<?xml version="1.0" encoding="utf-8"?>
<!-- Generator: Adobe Illustrator 24.0.0, SVG Export Plug-In . SVG Version: 6.00 Build 0)  -->
<svg version="1.1" id="Layer_1" xmlns="http://www.w3.org/2000/svg" xmlns:xlink="http://www.w3.org/1999/xlink" x="0px" y="0px"
	 viewBox="0 0 30 30" style="enable-background:new 0 0 30 30;" xml:space="preserve">
<style type="text/css">
	.st0{fill:#231F20;}
	.st1{fill:none;stroke:#231F20;stroke-width:1.5;stroke-linejoin:round;stroke-miterlimit:10;}
</style>
<path class="st0" d="M18.1,22.3L18.1,22.3c-0.7,0-1.2-0.5-1.2-1.2l0,0c0-0.7,0.5-1.2,1.2-1.2l0,0c0.7,0,1.2,0.5,1.2,1.2l0,0
	C19.3,21.8,18.8,22.3,18.1,22.3z"/>
<path class="st0" d="M11.9,22.3L11.9,22.3c-0.7,0-1.2-0.5-1.2-1.2l0,0c0-0.7,0.5-1.2,1.2-1.2l0,0c0.7,0,1.2,0.5,1.2,1.2l0,0
	C13.1,21.8,12.6,22.3,11.9,22.3z"/>
<path class="st1" d="M25.3,10.4c0.4-1.8,0-3.9-1.2-4.4s-2.9,0.6-4.5,2.9c-1.7,2.4-2.7,6.1-2.7,6.1l0,0c-0.3,0-0.6-0.1-0.9-0.1h-2
	c-0.3,0-0.6,0-0.9,0.1l0,0c0,0-0.8-3.7-2.5-6.1C9,6.6,7.1,5.5,5.9,6s-1.6,2.6-1.2,4.4c0.5,2.5,2.9,5.2,4,6.3C8,17.8,7.5,19,7.5,20.4
	l0,0c0,2.8,2.2,5,5,5h5c2.8,0,5-2.2,5-5l0,0c0-1.4-0.4-2.7-1.2-3.8l0,0C22.4,15.4,24.8,12.9,25.3,10.4z"/>
</svg>
