<?xml version="1.0" encoding="utf-8"?>
<!-- Generator: Adobe Illustrator 24.0.0, SVG Export Plug-In . SVG Version: 6.00 Build 0)  -->
<svg version="1.1" id="Layer_1" xmlns="http://www.w3.org/2000/svg" xmlns:xlink="http://www.w3.org/1999/xlink" x="0px" y="0px"
	 viewBox="0 0 30 30" style="enable-background:new 0 0 30 30;" xml:space="preserve">
<style type="text/css">
	.st0{fill:#838080;}
</style>
<path class="st0" d="M18.1,22.3L18.1,22.3c-0.7,0-1.2-0.5-1.2-1.2l0,0c0-0.7,0.5-1.2,1.2-1.2l0,0c0.7,0,1.2,0.5,1.2,1.2l0,0
	C19.3,21.8,18.8,22.3,18.1,22.3z"/>
<path class="st0" d="M11.9,22.3L11.9,22.3c-0.7,0-1.2-0.5-1.2-1.2l0,0c0-0.7,0.5-1.2,1.2-1.2l0,0c0.7,0,1.2,0.5,1.2,1.2l0,0
	C13.1,21.8,12.6,22.3,11.9,22.3z"/>
<path class="st0" d="M15,0C6.7,0,0,6.7,0,15s6.7,15,15,15s15-6.7,15-15S23.3,0,15,0z M25.3,10.4c-0.5,2.5-2.9,5-4,6.2
	c0.8,1.1,1.2,2.4,1.2,3.8c0,2.8-2.2,5-5,5h-5c-2.8,0-5-2.2-5-5c0-1.4,0.5-2.6,1.2-3.7c-1.1-1.1-3.5-3.8-4-6.3C4.3,8.6,4.7,6.5,5.9,6
	C7.1,5.5,9,6.6,10.6,8.9c1.7,2.4,2.5,6.1,2.5,6.1c0.3-0.1,0.6-0.1,0.9-0.1h2c0.3,0,0.6,0.1,0.9,0.1c0,0,1-3.7,2.7-6.1
	c1.6-2.3,3.3-3.4,4.5-2.9C25.3,6.5,25.7,8.6,25.3,10.4z"/>
</svg>
