<?xml version="1.0" encoding="utf-8"?>
<!-- Generator: Adobe Illustrator 24.0.0, SVG Export Plug-In . SVG Version: 6.00 Build 0)  -->
<svg version="1.1"
	 id="svg2" xmlns:cc="http://creativecommons.org/ns#" xmlns:dc="http://purl.org/dc/elements/1.1/" xmlns:inkscape="http://www.inkscape.org/namespaces/inkscape" xmlns:rdf="http://www.w3.org/1999/02/22-rdf-syntax-ns#" xmlns:sodipodi="http://sodipodi.sourceforge.net/DTD/sodipodi-0.dtd" xmlns:svg="http://www.w3.org/2000/svg"
	 xmlns="http://www.w3.org/2000/svg" xmlns:xlink="http://www.w3.org/1999/xlink" x="0px" y="0px" viewBox="0 0 88 31"
	 style="enable-background:new 0 0 88 31;" xml:space="preserve">
<style type="text/css">
	.st0{display:none;fill:#7FC2FF;}
</style>
<sodipodi:namedview  bordercolor="#666666" borderopacity="1" gridtolerance="10" guidetolerance="10" id="namedview14" inkscape:current-layer="svg2" inkscape:cx="54.657562" inkscape:cy="2.5922183" inkscape:pageopacity="0" inkscape:pageshadow="2" inkscape:window-height="705" inkscape:window-maximized="1" inkscape:window-width="1366" inkscape:window-x="-4" inkscape:window-y="-4" inkscape:zoom="8" objecttolerance="10" pagecolor="#ffffff" showgrid="false">
	</sodipodi:namedview>
<title  id="title4">Creative Commons “Attribution-Share Alike” license icon</title>
<path id="path6" class="st0" d="M2.5,0.4l83.1,0.1c1.2,0,2.2-0.2,2.2,2.3l-0.1,27.6H0.4V2.7C0.4,1.5,0.5,0.4,2.5,0.4z"/>
<path id="path10" d="M13.7,13.3c-0.3-0.6-0.7-0.9-1.3-0.9c-1,0-1.5,0.7-1.5,2.1s0.5,2.1,1.5,2.1c0.7,0,1.1-0.3,1.4-1l1.4,0.8
	c-0.7,1.2-1.7,1.8-3,1.8c-1,0-1.9-0.3-2.5-1c-0.6-0.6-0.9-1.5-0.9-2.6s0.3-2,1-2.6c0.6-0.6,1.4-1,2.4-1c1.4,0,2.4,0.6,3,1.7
	C15.2,12.5,13.7,13.3,13.7,13.3z M20.3,13.3c-0.3-0.6-0.7-0.9-1.3-0.9c-1,0-1.5,0.7-1.5,2.1s0.5,2.1,1.5,2.1c0.7,0,1.1-0.3,1.4-1
	l1.4,0.8c-0.7,1.2-1.7,1.8-3,1.8c-1,0-1.9-0.3-2.5-1c-0.6-0.6-0.9-1.5-0.9-2.6s0.3-2,0.9-2.6c0.6-0.6,1.4-1,2.4-1
	c1.4,0,2.4,0.6,3,1.7C21.8,12.5,20.3,13.3,20.3,13.3z M67.7,12.7c0.4-3,2.4-4.5,5-4.5c3.7,0,6,2.7,6,6.2s-2.4,6.2-6,6.2
	c-2.4,0-4.7-1.5-5.1-4.5h2.8c0.1,1.6,1.1,2.2,2.6,2.2c1.6,0,2.7-1.5,2.7-3.9s-0.9-3.8-2.7-3.8c-1.2,0-2.3,0.4-2.6,2h0.8L68.9,15
	l-2.3-2.3L67.7,12.7L67.7,12.7z M47.1,11.5c0-0.4-0.3-0.8-0.8-0.8h-4.7c-0.4,0-0.8,0.3-0.8,0.8v4.7h1.4v5.5h3.5v-5.5H47
	C47.1,16.3,47.1,11.5,47.1,11.5z M44.1,6.9c0.9,0,1.6,0.7,1.6,1.6c0,0.9-0.7,1.6-1.6,1.6c-0.9,0-1.6-0.7-1.6-1.6
	C42.5,7.7,43.2,6.9,44.1,6.9z"/>
<path d="M23.4,6.3C21.2,4,18.5,2.9,15.2,3C12,3,9.3,4.1,7.1,6.3c-2.3,2.3-3.4,5-3.4,8.2c0,3.1,1.1,5.8,3.4,8.1
	c2.3,2.3,5,3.4,8.1,3.4c3.2,0,5.9-1.1,8.2-3.4c2.2-2.2,3.3-4.9,3.3-8.1S25.6,8.5,23.4,6.3z M21.9,21.2c-1.9,1.9-4.1,2.8-6.7,2.8
	c-2.5,0-4.8-0.9-6.7-2.8c-1.9-1.9-2.8-4.1-2.8-6.7c0-2.6,0.9-4.8,2.8-6.7c1.8-1.8,4-2.7,6.7-2.7c2.7-0.1,4.9,0.8,6.7,2.7
	c1.8,1.8,2.7,4.1,2.7,6.7S23.7,19.3,21.9,21.2z"/>
<path d="M52.2,6.3C50,4,47.3,2.9,44,3c-3.2,0-5.9,1.1-8.1,3.3c-2.3,2.3-3.4,5-3.4,8.2c0,3.1,1.1,5.8,3.4,8.1c2.3,2.3,5,3.4,8.1,3.4
	c3.2,0,5.9-1.1,8.2-3.4c2.2-2.2,3.3-4.9,3.3-8.1S54.4,8.5,52.2,6.3z M50.7,21.2c-1.9,1.9-4.1,2.8-6.7,2.8c-2.5,0-4.8-0.9-6.7-2.8
	c-1.9-1.9-2.8-4.1-2.8-6.7c0-2.6,0.9-4.8,2.8-6.7c1.8-1.8,4-2.7,6.7-2.7c2.7-0.1,4.9,0.8,6.7,2.7c1.8,1.8,2.7,4.1,2.7,6.7
	S52.5,19.3,50.7,21.2z"/>
<path d="M81,6.3C78.8,4,76.1,2.9,72.8,3c-3.2,0-5.9,1.1-8.1,3.3c-2.3,2.3-3.4,5-3.4,8.2c0,3.1,1.1,5.8,3.4,8.1
	c2.3,2.3,5,3.4,8.1,3.4c3.2,0,5.9-1.1,8.2-3.4c2.2-2.2,3.3-4.9,3.3-8.1S83.2,8.5,81,6.3z M79.5,21.2c-1.9,1.9-4.1,2.8-6.7,2.8
	c-2.5,0-4.8-0.9-6.7-2.8c-1.9-1.9-2.8-4.1-2.8-6.7c0-2.6,0.9-4.8,2.8-6.7c1.8-1.8,4-2.7,6.7-2.7c2.7-0.1,4.9,0.8,6.7,2.7
	c1.8,1.8,2.7,4.1,2.7,6.7S81.3,19.3,79.5,21.2z"/>
</svg>
