<?xml version="1.0" encoding="utf-8"?>
<!-- Generator: Adobe Illustrator 23.1.1, SVG Export Plug-In . SVG Version: 6.00 Build 0)  -->
<svg version="1.1" id="Layer_1" xmlns="http://www.w3.org/2000/svg" xmlns:xlink="http://www.w3.org/1999/xlink" x="0px" y="0px"
	 viewBox="0 0 300 100" style="enable-background:new 0 0 300 100;" xml:space="preserve">
<style type="text/css">
	.st0{fill:none;stroke:#231F20;stroke-width:1.5;stroke-linecap:round;stroke-miterlimit:10;}
	.st1{fill:none;stroke:#231F20;stroke-width:1.5;stroke-linecap:round;stroke-linejoin:round;stroke-miterlimit:10;}
	.st2{fill:none;stroke:#231F20;stroke-linecap:round;stroke-miterlimit:10;}
	.st3{fill:none;stroke:#231F20;stroke-linecap:round;stroke-miterlimit:10;stroke-dasharray:1.0302,2.0605;}
	.st4{fill:none;stroke:#231F20;stroke-linecap:round;stroke-miterlimit:10;stroke-dasharray:0.9778,1.9556;}
	.st5{fill:none;stroke:#231F20;stroke-linecap:round;stroke-miterlimit:10;stroke-dasharray:1.0721,2.1442;}
	.st6{fill:none;stroke:#231F20;stroke-linecap:round;stroke-miterlimit:10;stroke-dasharray:1,2;}
	.st7{fill:#231F20;}
	.st8{fill:none;stroke:#FFFFFF;stroke-width:2;stroke-linecap:round;stroke-miterlimit:10;}
	.st9{fill:#FFFFFF;}
	.st10{fill:#DFC669;}
	.st11{fill:#EF569F;}
	.st12{fill:none;stroke:#231F20;stroke-width:2;stroke-linecap:round;stroke-miterlimit:10;}
	.st13{fill:#036C9B;}
	.st14{fill:#08C792;}
	.st15{fill:#3F3F3F;}
	.st16{fill:#A3A3A5;}
	.st17{fill:#B21F25;}
	.st18{fill:#E87E57;}
	.st19{fill:#D1D0D5;}
	.st20{fill:#2394A0;}
	.st21{fill:#838080;}
	.st22{fill:#55AF2F;}
	.st23{fill:#9C8035;}
</style>
<g>
	<path class="st14" d="M81.7,33.3L81,33.4c-1.2,0.2-3.6,0.7-7.1,1.4l-5.4,0.9c0.6,1.3,1.1,2.6,1.7,3.7c9.2-1.6,14.1-2.7,16.8-3.8
		L88,46.3c-1.6,0.2-1.8,0.2-8.9,1.7c-0.6,0.1-0.9,0.1-4.3,0.8c2.6,4.7,5,8.2,9.2,13.2l-10.6,5.5c-4.2-2.2-8.9-3.2-15.1-3.2
		C50.3,64.3,46,66,46,69c0,1.7,1.4,2.8,4.4,3.4c1.6,0.3,4.6,0.6,6.9,0.6c7.3,0,18-2.1,23-4.5l1.7,12.2c-1.7,0.2-2.2,0.3-5.1,0.9
		c-7.2,1.6-13.5,2.3-19.8,2.3c-3.7,0-7.8-0.4-11.2-1c-8.4-1.5-13.5-6.8-13.5-13.8c0-5,3.3-9.6,8.6-11.9c4.2-1.8,9.1-2.7,15.4-2.7
		c3.8,0,6.7,0.2,9.9,0.9c-0.9-1.2-1.5-2.1-2.1-3l-0.8-1.4l-0.4-0.7c-5.7,0.7-15.6,1.4-24.8,1.6c-4.2,0.1-4.5,0.1-6.3,0.4l-0.5-10.7
		c2.1,0.3,3.5,0.4,7.4,0.4c6.9,0,13.8-0.4,19.7-1.1c-0.3-0.7-0.9-1.9-1.7-3.7c-6.1,0.6-10.1,0.7-18.8,0.7C34.7,38,34,38,32.5,38
		l-0.6-10.5c2.5,0.2,4.9,0.4,8.2,0.4c4.1,0,9.6-0.2,12.9-0.6l-0.2-0.6c-0.1-0.4-0.4-1-0.8-1.9c-0.9-2.4-1.2-3-2-4.7l12.6-1.5
		c0.3,2.1,0.8,3.7,2.2,7.5c3.9-0.5,7.7-1.2,11.2-1.9c-0.9-2.1-1.4-3.1-2.7-5l6.8-1.8c2.4,3.7,4,6.8,5.3,11.2l-4.1,1.3L81.7,33.3z
		 M89.8,15c2.3,3.2,3.9,6.4,5.3,10.5l-6.6,2.2c-1.6-4.6-2.7-7-5-10.9L89.8,15z"/>
	<path class="st14" d="M109.6,33.4c-1,3.9-2.2,10.7-3.1,17.5c6-3.9,12.4-5.6,20.6-5.6c12.8,0,21.3,6.7,21.3,16.9
		c0,6.2-3,11.7-8.1,15.3s-11.7,5.2-20.6,5.2c-5.9,0-11-0.6-18.1-2.2c-0.2-6-0.5-8.3-1.7-12.8c7.1,2.2,13.8,3.4,19.2,3.4
		c9.5,0,15.8-3.4,15.8-8.5c0-3.8-3.7-6-10.2-6c-5.4,0-10.9,1.4-15.8,4.3c-1.9,1-2.6,1.7-4,3.2l-12-0.5c0.1-0.6,0.1-0.7,0.2-1.4
		c0.4-3.5,1.9-15,3.3-24.9c0.2-1.6,0.4-2.7,0.4-4.6L109.6,33.4z M108.3,17.5c3.5,1.8,7.8,3.3,14.7,5.1c4.9,1.3,11.1,2.6,14.5,3.1
		l-3.8,11.6c-13-2.7-22.7-5.5-31.1-9.4L108.3,17.5z"/>
	<path class="st14" d="M203.6,33.3l-0.7,0.1c-1.2,0.2-3.6,0.7-7.1,1.4l-5.4,0.9c0.6,1.3,1.1,2.6,1.7,3.7c9.2-1.6,14.1-2.7,16.8-3.8
		l1.1,10.6c-1.6,0.2-1.8,0.2-8.9,1.7c-0.6,0.1-0.9,0.1-4.3,0.8c2.6,4.7,5,8.2,9.2,13.2l-10.6,5.5c-4.2-2.2-8.9-3.2-15.1-3.2
		c-8,0-12.4,1.7-12.4,4.7c0,1.7,1.4,2.8,4.4,3.4c1.6,0.3,4.6,0.6,6.9,0.6c7.3,0,18-2.1,23-4.5l1.7,12.2c-1.7,0.2-2.2,0.3-5.1,0.9
		c-7.2,1.6-13.5,2.3-19.8,2.3c-3.7,0-7.8-0.4-11.2-1c-8.4-1.5-13.5-6.8-13.5-13.8c0-5,3.3-9.6,8.6-11.9c4.2-1.8,9.1-2.7,15.4-2.7
		c3.8,0,6.7,0.2,9.9,0.9c-0.9-1.2-1.5-2.1-2.1-3l-0.8-1.4l-0.4-0.7c-5.7,0.7-15.6,1.4-24.8,1.6c-4.2,0.1-4.5,0.1-6.3,0.4l-0.5-10.7
		c2.1,0.3,3.5,0.4,7.4,0.4c6.9,0,13.8-0.4,19.7-1.1c-0.3-0.7-0.9-1.9-1.7-3.7c-6.1,0.6-10.1,0.7-18.8,0.7c-3.2,0.1-3.9,0.1-5.4,0.1
		l-0.6-10.5c2.5,0.2,4.9,0.4,8.2,0.4c4.1,0,9.6-0.2,12.9-0.6l-0.2-0.6c-0.1-0.4-0.4-1-0.8-1.9c-0.9-2.4-1.2-3-2-4.7l12.6-1.5
		c0.3,2.1,0.8,3.7,2.2,7.5c3.9-0.5,7.7-1.2,11.2-1.9c-0.9-2.1-1.4-3.1-2.7-5l6.8-1.8c2.4,3.7,4,6.8,5.3,11.2l-4.1,1.3L203.6,33.3z
		 M211.7,15c2.3,3.2,3.9,6.4,5.3,10.5l-6.6,2.2c-1.6-4.6-2.7-7-5-10.9L211.7,15z"/>
	<path class="st14" d="M231.5,33.4c-1,3.9-2.2,10.7-3.1,17.5c6-3.9,12.4-5.6,20.6-5.6c12.8,0,21.3,6.7,21.3,16.9
		c0,6.2-3,11.7-8.1,15.3s-11.7,5.2-20.6,5.2c-5.9,0-11-0.6-18.1-2.2c-0.2-6-0.5-8.3-1.7-12.8c7.1,2.2,13.8,3.4,19.2,3.4
		c9.5,0,15.8-3.4,15.8-8.5c0-3.8-3.7-6-10.2-6c-5.4,0-10.9,1.4-15.8,4.3c-1.9,1-2.6,1.7-4,3.2l-12-0.5c0.1-0.6,0.1-0.7,0.2-1.4
		c0.4-3.5,1.9-15,3.3-24.9c0.2-1.6,0.4-2.7,0.4-4.6L231.5,33.4z M230.2,17.5c3.5,1.8,7.8,3.3,14.7,5.1c4.9,1.3,11.1,2.6,14.5,3.1
		l-3.8,11.6c-13-2.7-22.7-5.5-31.1-9.4L230.2,17.5z"/>
</g>
</svg>
