<?xml version="1.0" encoding="utf-8"?>
<!-- Generator: Adobe Illustrator 23.1.1, SVG Export Plug-In . SVG Version: 6.00 Build 0)  -->
<svg version="1.1" id="Layer_1" xmlns="http://www.w3.org/2000/svg" xmlns:xlink="http://www.w3.org/1999/xlink" x="0px" y="0px"
	 viewBox="0 0 300 100" style="enable-background:new 0 0 300 100;" xml:space="preserve">
<style type="text/css">
	.st0{fill:none;stroke:#231F20;stroke-width:1.5;stroke-linecap:round;stroke-miterlimit:10;}
	.st1{fill:none;stroke:#231F20;stroke-width:1.5;stroke-linecap:round;stroke-linejoin:round;stroke-miterlimit:10;}
	.st2{fill:none;stroke:#231F20;stroke-linecap:round;stroke-miterlimit:10;}
	.st3{fill:none;stroke:#231F20;stroke-linecap:round;stroke-miterlimit:10;stroke-dasharray:1.0302,2.0605;}
	.st4{fill:none;stroke:#231F20;stroke-linecap:round;stroke-miterlimit:10;stroke-dasharray:0.9778,1.9556;}
	.st5{fill:none;stroke:#231F20;stroke-linecap:round;stroke-miterlimit:10;stroke-dasharray:1.0721,2.1442;}
	.st6{fill:none;stroke:#231F20;stroke-linecap:round;stroke-miterlimit:10;stroke-dasharray:1,2;}
	.st7{fill:#231F20;}
	.st8{fill:none;stroke:#FFFFFF;stroke-width:2;stroke-linecap:round;stroke-miterlimit:10;}
	.st9{fill:#FFFFFF;}
	.st10{fill:#DFC669;}
	.st11{fill:#EF569F;}
	.st12{fill:none;stroke:#231F20;stroke-width:2;stroke-linecap:round;stroke-miterlimit:10;}
	.st13{fill:#036C9B;}
	.st14{fill:#08C792;}
	.st15{fill:#3F3F3F;}
	.st16{fill:#A3A3A5;}
	.st17{fill:#B21F25;}
	.st18{fill:#E87E57;}
	.st19{fill:#D1D0D5;}
	.st20{fill:#2394A0;}
	.st21{fill:#838080;}
	.st22{fill:#55AF2F;}
	.st23{fill:#9C8035;}
</style>
<g>
	<path class="st19" d="M40.3,30.1c-1.3,0.8-2.4,1.7-8.3,7c-4.2,3.6-9.3,7.6-14,11c-1.6,1.2-2,1.6-2,2.1c0,0.7,0,0.7,5.6,4.9
		c6,4.4,12.1,9.2,18.3,14.8c0.3,0.2,1,0.8,1.9,1.5l-8.6,8.8c-3.1-4.4-11.6-12.1-23.6-21.2c-3-2.3-4.1-3.4-4.9-4.9
		c-0.5-1.1-0.9-2.6-0.9-4c0-2.1,0.8-4.1,2.2-5.7c0.8-1,1.7-1.7,5.5-4.6c9.1-6.7,16.7-13.6,18.8-16.7L40.3,30.1z M38.3,38.8
		c2.3,2.6,4.4,5.6,6.1,8.9l-5.5,3c-2-3.8-3.7-6.4-6.1-9.1L38.3,38.8z M46,34.7c2.1,2.3,4,4.9,6.2,8.6l-5.3,2.9
		c-2.2-3.8-4-6.5-6.1-8.9L46,34.7z"/>
	<path class="st19" d="M52.3,32c2.6,0.7,6.7,1,13,1c1-4.4,1.3-6.6,1.4-9.1l11.2,0.9c-0.7,2.2-0.7,2.2-2.1,8
		c11.8-0.5,18.7-1.3,22.3-2.5l0.4,10.3c-1.6,0.1-2.2,0.1-4.3,0.3c-8.4,0.8-13.9,1.2-20.9,1.4c-1,3.3-2.1,6.1-3.5,9
		c4.1-1.9,8-2.7,13.1-2.7c5.6,0,9.8,1,13,3.2c3.2,2.2,5,5.9,5,10.1c0,9.7-9.2,15.8-23.9,15.8c-5.1,0-10.2-0.7-15.2-1.9
		c0-4.5-0.2-6.1-1-10.4c6.1,1.9,11.2,2.8,16.1,2.8c8,0,13.1-2.5,13.1-6.4c0-2.8-3-4.4-8.5-4.4c-4.6,0-8.6,0.9-12.2,2.8
		c-2,1-2.8,1.7-3.8,3.1l-10.1-3.2c2.2-3.4,6.2-12.6,7.7-17.9c-0.6,0-0.6,0-2.2-0.1c-1.2,0-1.3,0-5.9-0.4c-0.8-0.1-1.5-0.1-2-0.1
		c-0.1,0-0.4,0-0.7,0.1L52.3,32z"/>
	<path class="st19" d="M116,35.1c0.2,1.3,0.4,2.2,0.8,4c0.1,0.4,0.1,0.4,0.8,2.8c0.3,0.8,0.3,1,0.7,2.2c3.2-0.8,3.4-0.9,6.7-1.6
		c0-4.1-0.2-7.4-0.4-8.5h9.2c-0.2,1.7-0.2,3.4-0.3,7.4c0.7-0.1,1.1-0.1,1.7-0.1c7.7,0,12.5,4.4,12.5,11.5c0,4.2-1.6,7.5-4.8,9.8
		c-2.6,1.9-6.2,2.9-9.8,2.9c-2.2,0-4.4-0.3-7.1-1c-0.2-3.4-0.5-5.9-1.4-9.1c3.5,1.4,5,1.7,7.5,1.7c4,0,6.4-1.6,6.4-4.2
		c0-2.3-1.7-3.6-4.7-3.6c-2.2,0-5.4,0.4-8.4,1.1c-0.6,0.1-2.2,0.6-4.7,1.3c0.4,1.6,0.4,1.6,1.4,5.3c1.1,4.1,1.2,4.3,3.8,15.1
		c0.8,3.4,1,3.8,1.6,5.5l-9.8,2.1c-0.1-2-0.2-2.4-1.4-8.4c-1.1-5.5-2.3-10.3-4.1-17c-4.5,1.4-5.9,1.9-8,2.9l-2.6-8.5
		c1.6-0.3,1.6-0.3,8.5-2.4c-1.3-4.4-2.2-6.8-3.2-8.9L116,35.1z"/>
	<path class="st19" d="M189.2,30.1c-1.3,0.8-2.4,1.7-8.3,7c-4.2,3.6-9.3,7.6-14,11c-1.6,1.2-2,1.6-2,2.1c0,0.7,0,0.7,5.6,4.9
		c6,4.4,12.1,9.2,18.3,14.8c0.3,0.2,1,0.8,1.9,1.5l-8.6,8.8c-3.1-4.4-11.6-12.1-23.6-21.2c-3-2.3-4.1-3.4-4.9-4.9
		c-0.5-1.1-0.9-2.6-0.9-4c0-2.1,0.8-4.1,2.2-5.7c0.8-1,1.7-1.7,5.5-4.6c9.1-6.7,16.7-13.6,18.8-16.7L189.2,30.1z M187.3,38.8
		c2.3,2.6,4.4,5.6,6.1,8.9l-5.5,3c-2-3.8-3.7-6.4-6.1-9.1L187.3,38.8z M194.9,34.7c2.1,2.3,4,4.9,6.2,8.6l-5.3,2.9
		c-2.2-3.8-4-6.5-6.1-8.9L194.9,34.7z"/>
	<path class="st19" d="M201.2,32c2.6,0.7,6.7,1,13,1c1-4.4,1.3-6.6,1.4-9.1l11.2,0.9c-0.7,2.2-0.7,2.2-2.1,8
		c11.8-0.5,18.7-1.3,22.3-2.5l0.4,10.3c-1.6,0.1-2.2,0.1-4.3,0.3c-8.4,0.8-13.9,1.2-20.9,1.4c-1,3.3-2.1,6.1-3.5,9
		c4.1-1.9,8-2.7,13.1-2.7c5.6,0,9.8,1,13,3.2c3.2,2.2,5,5.9,5,10.1c0,9.7-9.2,15.8-23.9,15.8c-5.1,0-10.2-0.7-15.2-1.9
		c0-4.5-0.2-6.1-1-10.4c6.1,1.9,11.2,2.8,16.1,2.8c8,0,13.1-2.5,13.1-6.4c0-2.8-3-4.4-8.5-4.4c-4.6,0-8.6,0.9-12.2,2.8
		c-2,1-2.8,1.7-3.8,3.1l-10.1-3.2c2.2-3.4,6.2-12.6,7.7-17.9c-0.6,0-0.6,0-2.2-0.1c-1.2,0-1.3,0-5.9-0.4c-0.8-0.1-1.5-0.1-2-0.1
		c-0.1,0-0.4,0-0.7,0.1L201.2,32z"/>
	<path class="st19" d="M265,35.1c0.2,1.3,0.4,2.2,0.8,4c0.1,0.4,0.1,0.4,0.8,2.8c0.3,0.8,0.3,1,0.7,2.2c3.2-0.8,3.4-0.9,6.7-1.6
		c0-4.1-0.2-7.4-0.4-8.5h9.2c-0.2,1.7-0.2,3.4-0.3,7.4c0.7-0.1,1.1-0.1,1.7-0.1c7.7,0,12.5,4.4,12.5,11.5c0,4.2-1.6,7.5-4.8,9.8
		c-2.6,1.9-6.2,2.9-9.8,2.9c-2.2,0-4.4-0.3-7.1-1c-0.2-3.4-0.5-5.9-1.4-9.1c3.5,1.4,5,1.7,7.5,1.7c4,0,6.4-1.6,6.4-4.2
		c0-2.3-1.7-3.6-4.7-3.6c-2.2,0-5.4,0.4-8.4,1.1c-0.6,0.1-2.2,0.6-4.7,1.3c0.4,1.6,0.4,1.6,1.4,5.3c1.1,4.1,1.2,4.3,3.8,15.1
		c0.8,3.4,1,3.8,1.6,5.5l-9.8,2.1c-0.1-2-0.2-2.4-1.4-8.4c-1.1-5.5-2.3-10.3-4.1-17c-4.5,1.4-5.9,1.9-8,2.9l-2.6-8.5
		c1.6-0.3,1.6-0.3,8.5-2.4c-1.3-4.4-2.2-6.8-3.2-8.9L265,35.1z"/>
</g>
</svg>
