<?xml version="1.0" encoding="utf-8"?>
<!-- Generator: Adobe Illustrator 23.1.1, SVG Export Plug-In . SVG Version: 6.00 Build 0)  -->
<svg version="1.1" id="Layer_1" xmlns="http://www.w3.org/2000/svg" xmlns:xlink="http://www.w3.org/1999/xlink" x="0px" y="0px"
	 viewBox="0 0 300 100" style="enable-background:new 0 0 300 100;" xml:space="preserve">
<style type="text/css">
	.st0{fill:none;stroke:#231F20;stroke-width:1.5;stroke-linecap:round;stroke-miterlimit:10;}
	.st1{fill:none;stroke:#231F20;stroke-width:1.5;stroke-linecap:round;stroke-linejoin:round;stroke-miterlimit:10;}
	.st2{fill:none;stroke:#231F20;stroke-linecap:round;stroke-miterlimit:10;}
	.st3{fill:none;stroke:#231F20;stroke-linecap:round;stroke-miterlimit:10;stroke-dasharray:1.0302,2.0605;}
	.st4{fill:none;stroke:#231F20;stroke-linecap:round;stroke-miterlimit:10;stroke-dasharray:0.9778,1.9556;}
	.st5{fill:none;stroke:#231F20;stroke-linecap:round;stroke-miterlimit:10;stroke-dasharray:1.0721,2.1442;}
	.st6{fill:none;stroke:#231F20;stroke-linecap:round;stroke-miterlimit:10;stroke-dasharray:1,2;}
	.st7{fill:#231F20;}
	.st8{fill:none;stroke:#FFFFFF;stroke-width:2;stroke-linecap:round;stroke-miterlimit:10;}
	.st9{fill:#FFFFFF;}
	.st10{fill:#DFC669;}
	.st11{fill:#EF569F;}
	.st12{fill:none;stroke:#231F20;stroke-width:2;stroke-linecap:round;stroke-miterlimit:10;}
	.st13{fill:#036C9B;}
	.st14{fill:#08C792;}
	.st15{fill:#3F3F3F;}
	.st16{fill:#A3A3A5;}
	.st17{fill:#B21F25;}
	.st18{fill:#E87E57;}
	.st19{fill:#D1D0D5;}
	.st20{fill:#2394A0;}
	.st21{fill:#838080;}
	.st22{fill:#55AF2F;}
	.st23{fill:#9C8035;}
</style>
<g>
	<path class="st23" d="M23.5,34.7c0.3,0,0.5,0,0.6,0c2.3,0,9.2-0.6,13.9-1.2c1.2-7.6,1.7-11.8,1.7-14.3c0-0.2,0-0.6,0-1.2l13,1.2
		c-0.4,1.4-0.4,1.4-1.2,5.7c-0.6,3.3-1.1,6-1.4,7.7c1.2-0.1,2.1-0.1,3.1-0.1c4.5,0,7.8,0.9,10.2,2.9c3.7,3,5.1,7.3,5.1,15.5
		c0,11.2-1.7,20.6-4.5,25.6c-1,1.8-2.8,3.4-4.6,4.3c-1.4,0.6-3.3,1-5.6,1c-3.3,0-6.6-0.6-11.4-1.9c0.2-2,0.2-2.9,0.2-4.2
		c0-3.2-0.3-5.1-1.1-8.6c4.1,1.6,7.8,2.6,9.9,2.6c1.5,0,2.4-0.9,3.2-3.2c1.1-3.2,1.9-10.5,1.9-16c0-3.1-0.4-4.8-1.4-5.8
		c-0.8-0.9-1.8-1.2-4.3-1.2c-0.6,0-1.4,0-2.9,0.1c-1.3,6-2.8,11.3-5.1,17.9c-2.3,6.7-3.5,9.6-7.6,18.6c-0.6,1.2-0.7,1.6-1.2,2.6
		l-11.9-6.3c4.6-6.1,10.7-20.5,13.5-31.8c-5.1,0.6-8.8,1.4-11.2,2L23.5,34.7z M76.9,27c7.2,9,11.8,18.6,14.7,30.7l-11.8,5.6
		C77.4,50.2,73,39.8,66.3,31.9L76.9,27z"/>
	<path class="st23" d="M89.3,27.6c3.2,0.8,8,1.2,15.6,1.2c1.2-5.3,1.6-7.9,1.7-10.9l13.4,1.1c-0.8,2.6-0.8,2.6-2.5,9.6
		c14.2-0.6,22.5-1.5,26.8-3l0.5,12.3c-1.9,0.1-2.6,0.1-5.1,0.4c-10.1,1-16.7,1.4-25.1,1.7c-1.2,4-2.5,7.3-4.2,10.8
		c4.9-2.3,9.6-3.2,15.8-3.2c6.8,0,11.7,1.2,15.6,3.8c3.8,2.7,6,7.1,6,12.2c0,11.7-11,18.9-28.7,18.9c-6.1,0-12.2-0.8-18.3-2.3
		c0-5.4-0.2-7.3-1.2-12.5c7.3,2.2,13.5,3.3,19.4,3.3c9.6,0,15.7-3,15.7-7.6c0-3.4-3.6-5.3-10.2-5.3c-5.5,0-10.3,1.1-14.7,3.3
		c-2.4,1.2-3.4,2-4.6,3.7l-12.2-3.9c2.7-4,7.4-15.1,9.2-21.5c-0.7,0-0.7,0-2.7-0.1c-1.4,0-1.5,0-7.1-0.4c-1-0.1-1.8-0.1-2.4-0.1
		c-0.1,0-0.4,0-0.8,0.1L89.3,27.6z"/>
	<path class="st23" d="M151.3,34.7c0.3,0,0.5,0,0.6,0c2.3,0,9.2-0.6,13.9-1.2c1.2-7.6,1.7-11.8,1.7-14.3c0-0.2,0-0.6,0-1.2l13,1.2
		c-0.4,1.4-0.4,1.4-1.2,5.7c-0.6,3.3-1.1,6-1.4,7.7c1.2-0.1,2.1-0.1,3.1-0.1c4.5,0,7.8,0.9,10.2,2.9c3.7,3,5.1,7.3,5.1,15.5
		c0,11.2-1.7,20.6-4.5,25.6c-1,1.8-2.8,3.4-4.6,4.3c-1.4,0.6-3.3,1-5.6,1c-3.3,0-6.6-0.6-11.4-1.9c0.2-2,0.2-2.9,0.2-4.2
		c0-3.2-0.3-5.1-1.1-8.6c4.1,1.6,7.8,2.6,9.9,2.6c1.5,0,2.4-0.9,3.2-3.2c1.1-3.2,1.9-10.5,1.9-16c0-3.1-0.4-4.8-1.4-5.8
		c-0.8-0.9-1.8-1.2-4.3-1.2c-0.6,0-1.4,0-2.9,0.1c-1.3,6-2.8,11.3-5.1,17.9c-2.3,6.7-3.5,9.6-7.6,18.6c-0.6,1.2-0.7,1.6-1.2,2.6
		l-11.9-6.3c4.6-6.1,10.7-20.5,13.5-31.8c-5.1,0.6-8.8,1.4-11.2,2L151.3,34.7z M204.7,27c7.2,9,11.8,18.6,14.7,30.7l-11.8,5.6
		c-2.4-13.2-6.8-23.6-13.5-31.5L204.7,27z"/>
	<path class="st23" d="M217.1,27.6c3.2,0.8,8,1.2,15.6,1.2c1.2-5.3,1.6-7.9,1.7-10.9l13.4,1.1c-0.8,2.6-0.8,2.6-2.5,9.6
		c14.2-0.6,22.5-1.5,26.8-3l0.5,12.3c-1.9,0.1-2.6,0.1-5.1,0.4c-10.1,1-16.7,1.4-25.1,1.7c-1.2,4-2.5,7.3-4.2,10.8
		c4.9-2.3,9.6-3.2,15.8-3.2c6.8,0,11.7,1.2,15.6,3.8c3.8,2.7,6,7.1,6,12.2c0,11.7-11,18.9-28.7,18.9c-6.1,0-12.2-0.8-18.3-2.3
		c0-5.4-0.2-7.3-1.2-12.5c7.3,2.2,13.5,3.3,19.4,3.3c9.6,0,15.7-3,15.7-7.6c0-3.4-3.6-5.3-10.2-5.3c-5.5,0-10.3,1.1-14.7,3.3
		c-2.4,1.2-3.4,2-4.6,3.7l-12.2-3.9c2.7-4,7.4-15.1,9.2-21.5c-0.7,0-0.7,0-2.7-0.1c-1.4,0-1.5,0-7.1-0.4c-1-0.1-1.8-0.1-2.4-0.1
		c-0.1,0-0.4,0-0.8,0.1L217.1,27.6z"/>
</g>
</svg>
