<?xml version="1.0" encoding="utf-8"?>
<!-- Generator: Adobe Illustrator 23.1.1, SVG Export Plug-In . SVG Version: 6.00 Build 0)  -->
<svg version="1.1" id="Layer_1" xmlns="http://www.w3.org/2000/svg" xmlns:xlink="http://www.w3.org/1999/xlink" x="0px" y="0px"
	 viewBox="0 0 300 100" style="enable-background:new 0 0 300 100;" xml:space="preserve">
<style type="text/css">
	.st0{fill:none;stroke:#231F20;stroke-width:1.5;stroke-linecap:round;stroke-miterlimit:10;}
	.st1{fill:none;stroke:#231F20;stroke-width:1.5;stroke-linecap:round;stroke-linejoin:round;stroke-miterlimit:10;}
	.st2{fill:none;stroke:#231F20;stroke-linecap:round;stroke-miterlimit:10;}
	.st3{fill:none;stroke:#231F20;stroke-linecap:round;stroke-miterlimit:10;stroke-dasharray:1.0302,2.0605;}
	.st4{fill:none;stroke:#231F20;stroke-linecap:round;stroke-miterlimit:10;stroke-dasharray:0.9778,1.9556;}
	.st5{fill:none;stroke:#231F20;stroke-linecap:round;stroke-miterlimit:10;stroke-dasharray:1.0721,2.1442;}
	.st6{fill:none;stroke:#231F20;stroke-linecap:round;stroke-miterlimit:10;stroke-dasharray:1,2;}
	.st7{fill:#231F20;}
	.st8{fill:none;stroke:#FFFFFF;stroke-width:2;stroke-linecap:round;stroke-miterlimit:10;}
	.st9{fill:#FFFFFF;}
	.st10{fill:#DFC669;}
	.st11{fill:#EF569F;}
	.st12{fill:none;stroke:#231F20;stroke-width:2;stroke-linecap:round;stroke-miterlimit:10;}
	.st13{fill:#036C9B;}
	.st14{fill:#08C792;}
	.st15{fill:#3F3F3F;}
	.st16{fill:#A3A3A5;}
	.st17{fill:#B21F25;}
	.st18{fill:#E87E57;}
	.st19{fill:#D1D0D5;}
	.st20{fill:#2394A0;}
	.st21{fill:#838080;}
	.st22{fill:#55AF2F;}
	.st23{fill:#9C8035;}
</style>
<g>
	<path class="st18" d="M34.4,21.1c-1.8,6.2-3,12.9-3.8,20.4c-0.5,4.5-0.7,9.9-0.7,16.6c0,0,0,0.6,0.1,2.7c1-3.2,2.1-5.8,3.7-8.9
		l8.4,4.2c-4.7,7.6-8.7,18.4-9.1,24.6L21.3,81c-0.2-1.5-0.2-1.5-1-5.7c-1.3-6.8-2-15.2-2-22.8c0-7.9,0.3-11.3,2.4-26.8
		c0.4-2.7,0.4-3.8,0.4-5.7L34.4,21.1z M37.5,33.6c3.7,0.6,7.8,1,13,1c2.7,0,4.5-0.1,6.6-0.3c-0.5-12.2-0.5-12.4-1.1-15l12.8-0.1
		c-0.1,1.4-0.2,1.9-0.2,2.7c0,0.3,0,0.7,0.1,1.4c0.1,1.4,0.1,4.8,0.3,9.9c4.2-0.6,7.1-1.3,10.1-2.4l0.6,12c-1.2,0.1-1.7,0.2-4.2,0.6
		c-2.6,0.5-2.7,0.6-6.2,0.9c0.1,3.5,0.1,4.2,0.1,5.8c0,9.2-1.4,16.5-4.2,21.3c-3.2,5.5-6.8,8.9-14.1,13.2c-3.3-4.2-5.7-6.5-9.9-9.6
		c7.5-3.2,12.2-7.6,14.3-12.7c1.4-3.5,1.9-7.7,1.9-16.1c0-0.1,0-0.4,0-0.9c-2.8,0.2-4.6,0.3-7.7,0.3c-2.7,0-5-0.1-7.6-0.2
		c-2.4-0.1-2.4-0.1-4.6-0.1L37.5,33.6z"/>
	<path class="st18" d="M100.5,20.6c-2.8,6.8-5.6,24.5-5.5,35l5.5,1.9c-2.2,7.1-3,12.8-3,22c0,0.4,0.1,1.4,0.2,3l-12.2,0.5
		c0-0.6-0.1-0.9-0.1-1.4c0-0.2-0.1-0.9-0.1-1.6l-0.4-2.7c-1.3-10.2-1.6-14-1.6-21.8c0-10.2,0.6-16.5,2.9-29.1
		c0.6-3.2,0.9-5.2,0.9-6.3c0-0.1,0-0.2,0-0.4L100.5,20.6z M132.8,20.3c-0.4-0.9-0.5-1-1.2-2.1l5.5-1.6c1.8,3,3.3,6.5,4.9,11.2
		l-5.7,2c-0.5-2.2-1.8-5.9-3-8.4c-0.2,1.5-0.4,4.9-0.4,11c5.6-0.7,9.2-1.4,11.7-2.3l0.4,11.5c-1,0.1-1.2,0.1-2.7,0.4
		c-2.4,0.5-5.8,1-9.1,1.4c0.1,4.7,0.2,8.4,0.6,15.3c4.5,2,7.9,3.9,11.6,6.6c0.4,0.2,0.8,0.5,1.4,0.9l-4.5,12.2
		c-1.5-1.9-5-4.6-8.6-6.8c0,0.2,0,0.4,0,0.6c0,6.1-6.3,10.2-15.5,10.2c-10.6,0-16.8-5-16.8-13.4c0-4.3,1.9-8.1,5.5-10.6
		c2.7-1.9,6.6-3,11.1-3c1.5,0,2.6,0.1,4.2,0.4l-0.1-1.9l-0.1-3.7c-0.1-3-0.1-3.4-0.1-6c-1.6,0.1-2.5,0.1-4.2,0.1
		c-3.2,0-3.2,0-12.7-0.4c-0.6-0.1-1.1-0.1-1.2-0.1c-0.2,0-0.5,0-0.9,0.1l0.1-11.6c3,0.7,7.9,1.2,13.7,1.2c1.4,0,2.7,0,5-0.1
		c0-3.2,0-6.5,0-9.6c-0.1-1.6-0.1-2.4-0.4-3.3H132.8z M122.5,66.5c-1.8-0.6-2.9-0.8-4.5-0.8c-3.2,0-5.3,1.3-5.3,3.3
		c0,1.9,1.9,3.1,4.8,3.1c3.5,0,5-1.3,5-4.2L122.5,66.5z M145.1,27.8c-1.4-4.1-3.1-8.1-4.9-11.2l5.3-1.7c2,3.2,3.5,6.5,4.9,10.9
		L145.1,27.8z"/>
	<path class="st18" d="M168.6,21.1c-1.8,6.2-3,12.9-3.8,20.4c-0.5,4.5-0.7,9.9-0.7,16.6c0,0,0,0.6,0.1,2.7c1-3.2,2.1-5.8,3.7-8.9
		l8.4,4.2c-4.7,7.6-8.7,18.4-9.1,24.6L155.5,81c-0.2-1.5-0.2-1.5-1-5.7c-1.3-6.8-2-15.2-2-22.8c0-7.9,0.3-11.3,2.4-26.8
		c0.4-2.7,0.4-3.8,0.4-5.7L168.6,21.1z M171.7,33.6c3.7,0.6,7.8,1,13,1c2.7,0,4.5-0.1,6.6-0.3c-0.5-12.2-0.5-12.4-1.1-15l12.8-0.1
		c-0.1,1.4-0.2,1.9-0.2,2.7c0,0.3,0,0.7,0.1,1.4c0.1,1.4,0.1,4.8,0.3,9.9c4.2-0.6,7.1-1.3,10.1-2.4l0.6,12c-1.2,0.1-1.7,0.2-4.2,0.6
		c-2.6,0.5-2.7,0.6-6.2,0.9c0.1,3.5,0.1,4.2,0.1,5.8c0,9.2-1.4,16.5-4.2,21.3c-3.2,5.5-6.8,8.9-14.1,13.2c-3.3-4.2-5.7-6.5-9.9-9.6
		c7.5-3.2,12.2-7.6,14.3-12.7c1.4-3.5,1.9-7.7,1.9-16.1c0-0.1,0-0.4,0-0.9c-2.8,0.2-4.6,0.3-7.7,0.3c-2.7,0-5-0.1-7.6-0.2
		c-2.4-0.1-2.4-0.1-4.6-0.1L171.7,33.6z"/>
	<path class="st18" d="M234.6,20.6c-2.8,6.8-5.6,24.5-5.5,35l5.5,1.9c-2.2,7.1-3,12.8-3,22c0,0.4,0.1,1.4,0.2,3l-12.2,0.5
		c0-0.6-0.1-0.9-0.1-1.4c0-0.2-0.1-0.9-0.1-1.6l-0.4-2.7c-1.3-10.2-1.6-14-1.6-21.8c0-10.2,0.6-16.5,2.9-29.1
		c0.6-3.2,0.9-5.2,0.9-6.3c0-0.1,0-0.2,0-0.4L234.6,20.6z M266.9,20.3c-0.4-0.9-0.5-1-1.2-2.1l5.5-1.6c1.8,3,3.3,6.5,4.9,11.2
		l-5.7,2c-0.5-2.2-1.8-5.9-3-8.4c-0.2,1.5-0.4,4.9-0.4,11c5.6-0.7,9.2-1.4,11.7-2.3l0.4,11.5c-1,0.1-1.2,0.1-2.7,0.4
		c-2.4,0.5-5.8,1-9.1,1.4c0.1,4.7,0.2,8.4,0.6,15.3c4.5,2,7.9,3.9,11.6,6.6c0.4,0.2,0.8,0.5,1.4,0.9l-4.5,12.2
		c-1.5-1.9-5-4.6-8.6-6.8c0,0.2,0,0.4,0,0.6c0,6.1-6.3,10.2-15.5,10.2c-10.6,0-16.8-5-16.8-13.4c0-4.3,1.9-8.1,5.5-10.6
		c2.7-1.9,6.6-3,11.1-3c1.5,0,2.6,0.1,4.2,0.4l-0.1-1.9l-0.1-3.7c-0.1-3-0.1-3.4-0.1-6c-1.6,0.1-2.5,0.1-4.2,0.1
		c-3.2,0-3.2,0-12.7-0.4c-0.6-0.1-1.1-0.1-1.2-0.1c-0.2,0-0.5,0-0.9,0.1l0.1-11.6c3,0.7,7.9,1.2,13.7,1.2c1.4,0,2.7,0,5-0.1
		c0-3.2,0-6.5,0-9.6c-0.1-1.6-0.1-2.4-0.4-3.3H266.9z M256.6,66.5c-1.8-0.6-2.9-0.8-4.5-0.8c-3.2,0-5.3,1.3-5.3,3.3
		c0,1.9,1.9,3.1,4.8,3.1c3.5,0,5-1.3,5-4.2L256.6,66.5z M279.2,27.8c-1.4-4.1-3.1-8.1-4.9-11.2l5.3-1.7c2,3.2,3.5,6.5,4.9,10.9
		L279.2,27.8z"/>
</g>
</svg>
