<?xml version="1.0" encoding="utf-8"?>
<!-- Generator: Adobe Illustrator 24.0.0, SVG Export Plug-In . SVG Version: 6.00 Build 0)  -->
<svg version="1.1" id="Layer_1" xmlns="http://www.w3.org/2000/svg" xmlns:xlink="http://www.w3.org/1999/xlink" x="0px" y="0px"
	 viewBox="0 0 367.5 162.9" style="enable-background:new 0 0 367.5 162.9;" xml:space="preserve">
<style type="text/css">
	.st0{fill:#223E4C;}
	.st1{fill:#FFFFFF;}
	.st2{fill:#DA2C5E;}
	.st3{opacity:0.35;}
</style>
<g>
	<path class="st0" d="M75.5,0h-68C3.3,0,0,3.3,0,7.5v147.9c0,4.1,3.3,7.5,7.5,7.5H360c4.1,0,7.5-3.4,7.5-7.5V7.5
		c0-4.1-3.4-7.5-7.5-7.5H83.2H75.5z"/>
	<g>
		<g>
			<path class="st1" d="M33.2,50c0,0.8-0.7,1.5-1.5,1.5H15.4c-0.8,0-1.5-0.7-1.5-1.5V33.6c0-0.8,0.7-1.5,1.5-1.5h16.4
				c0.8,0,1.5,0.7,1.5,1.5V50z"/>
			<path class="st1" d="M34.8,27c0,0.8-0.7,1.5-1.5,1.5h-18c-0.8,0-1.5-0.7-1.5-1.5v-6.4c0-0.8,0.7-1.5,1.5-1.5h18
				c0.8,0,1.5,0.7,1.5,1.5L34.8,27L34.8,27z"/>
			<path class="st1" d="M59.4,27c0,0.8-0.7,1.5-1.5,1.5h-18c-0.8,0-1.5-0.7-1.5-1.5v-6.4c0-0.8,0.7-1.5,1.5-1.5h18
				c0.8,0,1.5,0.7,1.5,1.5L59.4,27L59.4,27z"/>
			<path class="st1" d="M83.9,27c0,0.8-0.7,1.5-1.5,1.5h-18c-0.8,0-1.5-0.7-1.5-1.5v-6.4c0-0.8,0.7-1.5,1.5-1.5h18
				c0.8,0,1.5,0.7,1.5,1.5V27z"/>
			<path class="st1" d="M108.5,27c0,0.8-0.7,1.5-1.5,1.5H89c-0.8,0-1.5-0.7-1.5-1.5v-6.4c0-0.8,0.7-1.5,1.5-1.5h18
				c0.8,0,1.5,0.7,1.5,1.5L108.5,27L108.5,27z"/>
			<path class="st1" d="M133.1,27c0,0.8-0.7,1.5-1.5,1.5h-18c-0.8,0-1.5-0.7-1.5-1.5v-6.4c0-0.8,0.7-1.5,1.5-1.5h18
				c0.8,0,1.5,0.7,1.5,1.5V27z"/>
			<path class="st1" d="M157.7,27c0,0.8-0.7,1.5-1.5,1.5h-18c-0.8,0-1.5-0.7-1.5-1.5v-6.4c0-0.8,0.7-1.5,1.5-1.5h18
				c0.8,0,1.5,0.7,1.5,1.5V27z"/>
			<path class="st1" d="M182.2,27c0,0.8-0.7,1.5-1.5,1.5h-18c-0.8,0-1.5-0.7-1.5-1.5v-6.4c0-0.8,0.7-1.5,1.5-1.5h18
				c0.8,0,1.5,0.7,1.5,1.5V27z"/>
			<path class="st1" d="M206.8,27c0,0.8-0.7,1.5-1.5,1.5h-18c-0.8,0-1.5-0.7-1.5-1.5v-6.4c0-0.8,0.7-1.5,1.5-1.5h18
				c0.8,0,1.5,0.7,1.5,1.5V27z"/>
			<path class="st1" d="M231.4,27c0,0.8-0.7,1.5-1.5,1.5h-18c-0.8,0-1.5-0.7-1.5-1.5v-6.4c0-0.8,0.7-1.5,1.5-1.5h18
				c0.8,0,1.5,0.7,1.5,1.5V27z"/>
			<path class="st1" d="M255.9,27c0,0.8-0.7,1.5-1.5,1.5h-18c-0.8,0-1.5-0.7-1.5-1.5v-6.4c0-0.8,0.7-1.5,1.5-1.5h18
				c0.8,0,1.5,0.7,1.5,1.5V27z"/>
			<path class="st1" d="M280.5,27c0,0.8-0.7,1.5-1.5,1.5h-18c-0.8,0-1.5-0.7-1.5-1.5v-6.4c0-0.8,0.7-1.5,1.5-1.5h18
				c0.8,0,1.5,0.7,1.5,1.5V27z"/>
			<path class="st1" d="M305.1,27c0,0.8-0.7,1.5-1.5,1.5h-18c-0.8,0-1.5-0.7-1.5-1.5v-6.4c0-0.8,0.7-1.5,1.5-1.5h18
				c0.8,0,1.5,0.7,1.5,1.5V27z"/>
			<path class="st1" d="M329,27c0,0.8-0.7,1.5-1.5,1.5h-18c-0.8,0-1.5-0.7-1.5-1.5v-6.4c0-0.8,0.7-1.5,1.5-1.5h18
				c0.8,0,1.5,0.7,1.5,1.5V27z"/>
			<path class="st1" d="M353.4,27c0,0.8-0.7,1.5-1.5,1.5h-18c-0.8,0-1.5-0.7-1.5-1.5v-6.4c0-0.8,0.7-1.5,1.5-1.5h18
				c0.8,0,1.5,0.7,1.5,1.5V27z"/>
			<path class="st1" d="M57,50c0,0.8-0.7,1.5-1.5,1.5H39.1c-0.8,0-1.5-0.7-1.5-1.5V33.6c0-0.8,0.7-1.5,1.5-1.5h16.4
				c0.8,0,1.5,0.7,1.5,1.5C57,33.6,57,50,57,50z"/>
			<path class="st1" d="M80.7,50c0,0.8-0.7,1.5-1.5,1.5H62.8c-0.8,0-1.5-0.7-1.5-1.5V33.6c0-0.8,0.7-1.5,1.5-1.5h16.4
				c0.8,0,1.5,0.7,1.5,1.5L80.7,50L80.7,50z"/>
			<path class="st1" d="M104.4,50c0,0.8-0.7,1.5-1.5,1.5H86.5c-0.8,0-1.5-0.7-1.5-1.5V33.6c0-0.8,0.7-1.5,1.5-1.5h16.4
				c0.8,0,1.5,0.7,1.5,1.5L104.4,50L104.4,50z"/>
			<path class="st1" d="M128.1,50c0,0.8-0.7,1.5-1.5,1.5h-16.4c-0.8,0-1.5-0.7-1.5-1.5V33.6c0-0.8,0.7-1.5,1.5-1.5h16.4
				c0.8,0,1.5,0.7,1.5,1.5V50z"/>
			<path class="st1" d="M151.8,50c0,0.8-0.7,1.5-1.5,1.5h-16.4c-0.8,0-1.5-0.7-1.5-1.5V33.6c0-0.8,0.7-1.5,1.5-1.5h16.4
				c0.8,0,1.5,0.7,1.5,1.5V50z"/>
			<path class="st1" d="M175.5,50c0,0.8-0.7,1.5-1.5,1.5h-16.4c-0.8,0-1.5-0.7-1.5-1.5V33.6c0-0.8,0.7-1.5,1.5-1.5H174
				c0.8,0,1.5,0.7,1.5,1.5V50z"/>
			<path class="st1" d="M199.2,50c0,0.8-0.7,1.5-1.5,1.5h-16.4c-0.8,0-1.5-0.7-1.5-1.5V33.6c0-0.8,0.7-1.5,1.5-1.5h16.4
				c0.8,0,1.5,0.7,1.5,1.5V50z"/>
			<path class="st1" d="M222.9,50c0,0.8-0.7,1.5-1.5,1.5H205c-0.8,0-1.5-0.7-1.5-1.5V33.6c0-0.8,0.7-1.5,1.5-1.5h16.4
				c0.8,0,1.5,0.7,1.5,1.5V50z"/>
			<path class="st1" d="M246.7,50c0,0.8-0.7,1.5-1.5,1.5h-16.4c-0.8,0-1.5-0.7-1.5-1.5V33.6c0-0.8,0.7-1.5,1.5-1.5h16.4
				c0.8,0,1.5,0.7,1.5,1.5V50z"/>
			<path class="st1" d="M270.4,50c0,0.8-0.7,1.5-1.5,1.5h-16.4c-0.8,0-1.5-0.7-1.5-1.5V33.6c0-0.8,0.7-1.5,1.5-1.5h16.4
				c0.8,0,1.5,0.7,1.5,1.5V50z"/>
			<path class="st1" d="M294.1,50c0,0.8-0.7,1.5-1.5,1.5h-16.4c-0.8,0-1.5-0.7-1.5-1.5V33.6c0-0.8,0.7-1.5,1.5-1.5h16.4
				c0.8,0,1.5,0.7,1.5,1.5V50z"/>
			<path class="st1" d="M317.8,50c0,0.8-0.7,1.5-1.5,1.5h-16.4c-0.8,0-1.5-0.7-1.5-1.5V33.6c0-0.8,0.7-1.5,1.5-1.5h16.4
				c0.8,0,1.5,0.7,1.5,1.5V50z"/>
			<path class="st1" d="M353.4,50c0,0.8-0.7,1.5-1.5,1.5h-28.3c-0.8,0-1.5-0.7-1.5-1.5V33.6c0-0.8,0.7-1.5,1.5-1.5h28.3
				c0.8,0,1.5,0.7,1.5,1.5V50z"/>
			<path class="st1" d="M334,72.5c0,0.8,0.7,1.5,1.5,1.5h16.4c0.8,0,1.5-0.7,1.5-1.5V56.1c0-0.8-0.7-1.5-1.5-1.5h-16.4
				c-0.8,0-1.5,0.7-1.5,1.5V72.5z"/>
			<path class="st1" d="M310.2,72.5c0,0.8,0.7,1.5,1.5,1.5h16.4c0.8,0,1.5-0.7,1.5-1.5V56.1c0-0.8-0.7-1.5-1.5-1.5h-16.4
				c-0.8,0-1.5,0.7-1.5,1.5V72.5z"/>
			<path class="st1" d="M286.5,72.5c0,0.8,0.7,1.5,1.5,1.5h16.4c0.8,0,1.5-0.7,1.5-1.5V56.1c0-0.8-0.7-1.5-1.5-1.5H288
				c-0.8,0-1.5,0.7-1.5,1.5V72.5z"/>
			<path class="st1" d="M262.8,72.5c0,0.8,0.7,1.5,1.5,1.5h16.4c0.8,0,1.5-0.7,1.5-1.5V56.1c0-0.8-0.7-1.5-1.5-1.5h-16.4
				c-0.8,0-1.5,0.7-1.5,1.5V72.5z"/>
			<path class="st1" d="M239.1,72.5c0,0.8,0.7,1.5,1.5,1.5H257c0.8,0,1.5-0.7,1.5-1.5V56.1c0-0.8-0.7-1.5-1.5-1.5h-16.4
				c-0.8,0-1.5,0.7-1.5,1.5L239.1,72.5L239.1,72.5z"/>
			<path class="st1" d="M215.4,72.5c0,0.8,0.7,1.5,1.5,1.5h16.4c0.8,0,1.5-0.7,1.5-1.5V56.1c0-0.8-0.7-1.5-1.5-1.5h-16.4
				c-0.8,0-1.5,0.7-1.5,1.5L215.4,72.5L215.4,72.5z"/>
			<path class="st1" d="M191.7,72.5c0,0.8,0.7,1.5,1.5,1.5h16.4c0.8,0,1.5-0.7,1.5-1.5V56.1c0-0.8-0.7-1.5-1.5-1.5h-16.4
				c-0.8,0-1.5,0.7-1.5,1.5V72.5z"/>
			<path class="st1" d="M168,72.5c0,0.8,0.7,1.5,1.5,1.5h16.4c0.8,0,1.5-0.7,1.5-1.5V56.1c0-0.8-0.7-1.5-1.5-1.5h-16.4
				c-0.8,0-1.5,0.7-1.5,1.5V72.5z"/>
			<path class="st1" d="M144.3,72.5c0,0.8,0.7,1.5,1.5,1.5h16.4c0.8,0,1.5-0.7,1.5-1.5V56.1c0-0.8-0.7-1.5-1.5-1.5h-16.4
				c-0.8,0-1.5,0.7-1.5,1.5V72.5z"/>
			<path class="st2" d="M120.6,72.5c0,0.8,0.7,1.5,1.5,1.5h16.4c0.8,0,1.5-0.7,1.5-1.5V56.1c0-0.8-0.7-1.5-1.5-1.5H122
				c-0.8,0-1.5,0.7-1.5,1.5C120.6,56.1,120.6,72.5,120.6,72.5z"/>
			<path class="st2" d="M96.8,72.5c0,0.8,0.7,1.5,1.5,1.5h16.4c0.8,0,1.5-0.7,1.5-1.5V56.1c0-0.8-0.7-1.5-1.5-1.5H98.3
				c-0.8,0-1.5,0.7-1.5,1.5V72.5z"/>
			<path class="st2" d="M73.1,72.5c0,0.8,0.7,1.5,1.5,1.5H91c0.8,0,1.5-0.7,1.5-1.5V56.1c0-0.8-0.7-1.5-1.5-1.5H74.6
				c-0.8,0-1.5,0.7-1.5,1.5V72.5z"/>
			<path class="st2" d="M49.4,72.5c0,0.8,0.7,1.5,1.5,1.5h16.4c0.8,0,1.5-0.7,1.5-1.5V56.1c0-0.8-0.7-1.5-1.5-1.5H50.9
				c-0.8,0-1.5,0.7-1.5,1.5L49.4,72.5L49.4,72.5z"/>
			<path class="st1" d="M293.4,95.4c0,0.8,0.7,1.5,1.5,1.5h16.4c0.8,0,1.5-0.7,1.5-1.5V79c0-0.8-0.7-1.5-1.5-1.5h-16.4
				c-0.8,0-1.5,0.7-1.5,1.5V95.4z"/>
			<path class="st1" d="M269.6,95.4c0,0.8,0.7,1.5,1.5,1.5h16.4c0.8,0,1.5-0.7,1.5-1.5V79c0-0.8-0.7-1.5-1.5-1.5h-16.4
				c-0.8,0-1.5,0.7-1.5,1.5V95.4z"/>
			<path class="st1" d="M245.9,95.4c0,0.8,0.7,1.5,1.5,1.5h16.4c0.8,0,1.5-0.7,1.5-1.5V79c0-0.8-0.7-1.5-1.5-1.5h-16.4
				c-0.8,0-1.5,0.7-1.5,1.5L245.9,95.4L245.9,95.4z"/>
			<path class="st1" d="M222.2,95.4c0,0.8,0.7,1.5,1.5,1.5h16.4c0.8,0,1.5-0.7,1.5-1.5V79c0-0.8-0.7-1.5-1.5-1.5h-16.4
				c-0.8,0-1.5,0.7-1.5,1.5V95.4z"/>
			<path class="st1" d="M198.5,95.4c0,0.8,0.7,1.5,1.5,1.5h16.4c0.8,0,1.5-0.7,1.5-1.5V79c0-0.8-0.7-1.5-1.5-1.5H200
				c-0.8,0-1.5,0.7-1.5,1.5V95.4z"/>
			<path class="st1" d="M174.8,95.4c0,0.8,0.7,1.5,1.5,1.5h16.4c0.8,0,1.5-0.7,1.5-1.5V79c0-0.8-0.7-1.5-1.5-1.5h-16.4
				c-0.8,0-1.5,0.7-1.5,1.5V95.4z"/>
			<path class="st1" d="M151.1,95.4c0,0.8,0.7,1.5,1.5,1.5H169c0.8,0,1.5-0.7,1.5-1.5V79c0-0.8-0.7-1.5-1.5-1.5h-16.4
				c-0.8,0-1.5,0.7-1.5,1.5V95.4z"/>
			<path class="st2" d="M127.4,95.4c0,0.8,0.7,1.5,1.5,1.5h16.4c0.8,0,1.5-0.7,1.5-1.5V79c0-0.8-0.7-1.5-1.5-1.5h-16.4
				c-0.8,0-1.5,0.7-1.5,1.5V95.4z"/>
			<path class="st2" d="M103.7,95.4c0,0.8,0.7,1.5,1.5,1.5h16.4c0.8,0,1.5-0.7,1.5-1.5V79c0-0.8-0.7-1.5-1.5-1.5h-16.4
				c-0.8,0-1.5,0.7-1.5,1.5C103.7,79,103.7,95.4,103.7,95.4z"/>
			<path class="st2" d="M79.9,95.4c0,0.8,0.7,1.5,1.5,1.5h16.4c0.8,0,1.5-0.7,1.5-1.5V79c0-0.8-0.7-1.5-1.5-1.5H81.4
				c-0.8,0-1.5,0.7-1.5,1.5C80,79,80,95.4,79.9,95.4z"/>
			<path class="st2" d="M56.2,95.4c0,0.8,0.7,1.5,1.5,1.5h16.4c0.8,0,1.5-0.7,1.5-1.5V79c0-0.8-0.7-1.5-1.5-1.5H57.7
				c-0.8,0-1.5,0.7-1.5,1.5C56.2,79,56.2,95.4,56.2,95.4z"/>
			<path class="st1" d="M13.9,72.5c0,0.8,0.7,1.5,1.5,1.5h28.3c0.8,0,1.5-0.7,1.5-1.5V56.1c0-0.8-0.7-1.5-1.5-1.5H15.4
				c-0.8,0-1.5,0.7-1.5,1.5C13.9,56.1,13.9,72.5,13.9,72.5z"/>
			<path class="st1" d="M13.9,95.4c0,0.8,0.7,1.5,1.5,1.5h35.1c0.8,0,1.5-0.7,1.5-1.5V79c0-0.8-0.7-1.5-1.5-1.5H15.4
				c-0.8,0-1.5,0.7-1.5,1.5C13.9,79,13.9,95.4,13.9,95.4z"/>
			<path class="st1" d="M316.8,95.4c0,0.8,0.7,1.5,1.5,1.5h33.9c0.8,0,1.5-0.7,1.5-1.5V79c0-0.8-0.7-1.5-1.5-1.5h-33.9
				c-0.8,0-1.5,0.7-1.5,1.5V95.4z"/>
			<path class="st1" d="M280.6,118.1c0,0.8,0.7,1.5,1.5,1.5h16.4c0.8,0,1.5-0.7,1.5-1.5v-16.4c0-0.8-0.7-1.5-1.5-1.5h-16.4
				c-0.8,0-1.5,0.7-1.5,1.5V118.1z"/>
			<path class="st1" d="M310,140.9c0,0.8,0.7,1.5,1.5,1.5h16.4c0.8,0,1.5-0.7,1.5-1.5v-5.8c0-0.8-0.7-1.5-1.5-1.5h-16.4
				c-0.8,0-1.5,0.7-1.5,1.5V140.9z"/>
			<path class="st1" d="M333.9,140.9c0,0.8,0.7,1.5,1.5,1.5h16.4c0.8,0,1.5-0.7,1.5-1.5v-5.8c0-0.8-0.7-1.5-1.5-1.5h-16.4
				c-0.8,0-1.5,0.7-1.5,1.5V140.9z"/>
			<path class="st1" d="M286.5,140.9c0,0.8,0.7,1.5,1.5,1.5h16.4c0.8,0,1.5-0.7,1.5-1.5v-5.8c0-0.8-0.7-1.5-1.5-1.5H288
				c-0.8,0-1.5,0.7-1.5,1.5V140.9z"/>
			<path class="st1" d="M310,130.4c0,0.8,0.7,1.5,1.5,1.5h16.4c0.8,0,1.5-0.7,1.5-1.5v-5.8c0-0.8-0.7-1.5-1.5-1.5h-16.4
				c-0.8,0-1.5,0.7-1.5,1.5V130.4z"/>
			<path class="st1" d="M256.9,118.1c0,0.8,0.7,1.5,1.5,1.5h16.4c0.8,0,1.5-0.7,1.5-1.5v-16.4c0-0.8-0.7-1.5-1.5-1.5h-16.4
				c-0.8,0-1.5,0.7-1.5,1.5V118.1z"/>
			<path class="st1" d="M262.8,140.9c0,0.8,0.7,1.5,1.5,1.5h16.4c0.8,0,1.5-0.7,1.5-1.5v-16.4c0-0.8-0.7-1.5-1.5-1.5h-16.4
				c-0.8,0-1.5,0.7-1.5,1.5V140.9z"/>
			<path class="st1" d="M233.2,118.1c0,0.8,0.7,1.5,1.5,1.5h16.4c0.8,0,1.5-0.7,1.5-1.5v-16.4c0-0.8-0.7-1.5-1.5-1.5h-16.4
				c-0.8,0-1.5,0.7-1.5,1.5V118.1z"/>
			<path class="st1" d="M209.4,118.1c0,0.8,0.7,1.5,1.5,1.5h16.4c0.8,0,1.5-0.7,1.5-1.5v-16.4c0-0.8-0.7-1.5-1.5-1.5h-16.4
				c-0.8,0-1.5,0.7-1.5,1.5V118.1z"/>
			<path class="st1" d="M185.7,118.1c0,0.8,0.7,1.5,1.5,1.5h16.4c0.8,0,1.5-0.7,1.5-1.5v-16.4c0-0.8-0.7-1.5-1.5-1.5h-16.4
				c-0.8,0-1.5,0.7-1.5,1.5V118.1z"/>
			<path class="st1" d="M162,118.1c0,0.8,0.7,1.5,1.5,1.5h16.4c0.8,0,1.5-0.7,1.5-1.5v-16.4c0-0.8-0.7-1.5-1.5-1.5h-16.4
				c-0.8,0-1.5,0.7-1.5,1.5V118.1z"/>
			<path class="st2" d="M138.3,118.1c0,0.8,0.7,1.5,1.5,1.5h16.4c0.8,0,1.5-0.7,1.5-1.5v-16.4c0-0.8-0.7-1.5-1.5-1.5h-16.4
				c-0.8,0-1.5,0.7-1.5,1.5V118.1z"/>
			<path class="st2" d="M114.6,118.1c0,0.8,0.7,1.5,1.5,1.5h16.4c0.8,0,1.5-0.7,1.5-1.5v-16.4c0-0.8-0.7-1.5-1.5-1.5h-16.4
				c-0.8,0-1.5,0.7-1.5,1.5V118.1z"/>
			<path class="st2" d="M90.9,118.1c0,0.8,0.7,1.5,1.5,1.5h16.4c0.8,0,1.5-0.7,1.5-1.5v-16.4c0-0.8-0.7-1.5-1.5-1.5H92.4
				c-0.8,0-1.5,0.7-1.5,1.5L90.9,118.1L90.9,118.1z"/>
			<path class="st2" d="M67.2,118.1c0,0.8,0.7,1.5,1.5,1.5h16.4c0.8,0,1.5-0.7,1.5-1.5v-16.4c0-0.8-0.7-1.5-1.5-1.5H68.7
				c-0.8,0-1.5,0.7-1.5,1.5V118.1z"/>
			<path class="st1" d="M61.3,140.9c0,0.8,0.7,1.5,1.5,1.5h16.4c0.8,0,1.5-0.7,1.5-1.5v-16.4c0-0.8-0.7-1.5-1.5-1.5H62.8
				c-0.8,0-1.5,0.7-1.5,1.5V140.9z"/>
			<path class="st1" d="M85,140.9c0,0.8,0.7,1.5,1.5,1.5h22.7c0.8,0,1.5-0.7,1.5-1.5v-16.4c0-0.8-0.7-1.5-1.5-1.5H86.5
				c-0.8,0-1.5,0.7-1.5,1.5C85,124.5,85,140.9,85,140.9z"/>
			<path class="st1" d="M233.1,140.9c0,0.8,0.7,1.5,1.5,1.5h22.6c0.8,0,1.5-0.7,1.5-1.5v-16.4c0-0.8-0.7-1.5-1.5-1.5h-22.6
				c-0.8,0-1.5,0.7-1.5,1.5V140.9z"/>
			<path class="st1" d="M114.9,140.9c0,0.8,0.7,1.5,1.5,1.5h111.1c0.8,0,1.5-0.7,1.5-1.5v-16.4c0-0.8-0.7-1.5-1.5-1.5H116.4
				c-0.8,0-1.5,0.7-1.5,1.5L114.9,140.9L114.9,140.9z"/>
			<path class="st1" d="M37.6,140.9c0,0.8,0.7,1.5,1.5,1.5h16.4c0.8,0,1.5-0.7,1.5-1.5v-16.4c0-0.8-0.7-1.5-1.5-1.5H39.1
				c-0.8,0-1.5,0.7-1.5,1.5V140.9z"/>
			<path class="st1" d="M13.9,140.9c0,0.8,0.7,1.5,1.5,1.5h16.4c0.8,0,1.5-0.7,1.5-1.5v-16.4c0-0.8-0.7-1.5-1.5-1.5H15.4
				c-0.8,0-1.5,0.7-1.5,1.5C13.9,124.5,13.9,140.9,13.9,140.9z"/>
			<path class="st1" d="M13.9,118.1c0,0.8,0.7,1.5,1.5,1.5h46.4c0.8,0,1.5-0.7,1.5-1.5v-16.4c0-0.8-0.7-1.5-1.5-1.5H15.4
				c-0.8,0-1.5,0.7-1.5,1.5C13.9,101.7,13.9,118.1,13.9,118.1z"/>
			<path class="st1" d="M304.3,118.1c0,0.8,0.7,1.5,1.5,1.5h46.4c0.8,0,1.5-0.7,1.5-1.5v-16.4c0-0.8-0.7-1.5-1.5-1.5h-46.4
				c-0.8,0-1.5,0.7-1.5,1.5V118.1z"/>
		</g>
	</g>
	<g class="st3">
		<g>
			<path d="M31.8,51.6H15.4c-1,0-1.9-0.8-1.9-1.9V33.4c0-1,0.8-1.9,1.9-1.9h16.4c1,0,1.9,0.8,1.9,1.9v16.4
				C33.6,50.8,32.8,51.6,31.8,51.6z M15.4,32.2c-0.6,0-1.1,0.5-1.1,1.1v16.4c0,0.6,0.5,1.1,1.1,1.1h16.4c0.6,0,1.1-0.5,1.1-1.1V33.4
				c0-0.6-0.5-1.1-1.1-1.1H15.4z"/>
		</g>
		<g>
			<path d="M33.4,28.5h-18c-1,0-1.9-0.8-1.9-1.9v-6.4c0-1,0.8-1.9,1.9-1.9h18c1,0,1.8,0.8,1.8,1.9v6.4
				C35.2,27.7,34.4,28.5,33.4,28.5z M15.3,19.1c-0.6,0-1.1,0.5-1.1,1.1v6.4c0,0.6,0.5,1.1,1.1,1.1h18c0.6,0,1.1-0.5,1.1-1.1v-6.4
				c0-0.6-0.5-1.1-1.1-1.1H15.3z"/>
		</g>
		<g>
			<path d="M57.9,28.5h-18c-1,0-1.8-0.8-1.8-1.9v-6.4c0-1,0.8-1.9,1.8-1.9h18c1,0,1.8,0.8,1.8,1.9v6.4C59.8,27.7,59,28.5,57.9,28.5z
				 M39.9,19.1c-0.6,0-1.1,0.5-1.1,1.1v6.4c0,0.6,0.5,1.1,1.1,1.1h18c0.6,0,1.1-0.5,1.1-1.1v-6.4c0-0.6-0.5-1.1-1.1-1.1H39.9z"/>
		</g>
		<g>
			<path d="M82.5,28.5h-18c-1,0-1.8-0.8-1.8-1.9v-6.4c0-1,0.8-1.9,1.8-1.9h18c1,0,1.8,0.8,1.8,1.9v6.4
				C84.3,27.7,83.5,28.5,82.5,28.5z M64.5,19.1c-0.6,0-1.1,0.5-1.1,1.1v6.4c0,0.6,0.5,1.1,1.1,1.1h18c0.6,0,1.1-0.5,1.1-1.1v-6.4
				c0-0.6-0.5-1.1-1.1-1.1H64.5z"/>
		</g>
		<g>
			<path d="M107.1,28.5h-18c-1,0-1.8-0.8-1.8-1.9v-6.4c0-1,0.8-1.9,1.8-1.9h18c1,0,1.8,0.8,1.8,1.9v6.4
				C108.9,27.7,108.1,28.5,107.1,28.5z M89.1,19.1c-0.6,0-1.1,0.5-1.1,1.1v6.4c0,0.6,0.5,1.1,1.1,1.1h18c0.6,0,1.1-0.5,1.1-1.1v-6.4
				c0-0.6-0.5-1.1-1.1-1.1H89.1z"/>
		</g>
		<g>
			<path d="M131.6,28.5h-18c-1,0-1.8-0.8-1.8-1.9v-6.4c0-1,0.8-1.9,1.8-1.9h18c1,0,1.8,0.8,1.8,1.9v6.4
				C133.5,27.7,132.6,28.5,131.6,28.5z M113.6,19.1c-0.6,0-1.1,0.5-1.1,1.1v6.4c0,0.6,0.5,1.1,1.1,1.1h18c0.6,0,1.1-0.5,1.1-1.1
				v-6.4c0-0.6-0.5-1.1-1.1-1.1H113.6z"/>
		</g>
		<g>
			<path d="M156.2,28.5h-18c-1,0-1.8-0.8-1.8-1.9v-6.4c0-1,0.8-1.9,1.8-1.9h18c1,0,1.9,0.8,1.9,1.9v6.4
				C158.1,27.7,157.2,28.5,156.2,28.5z M138.2,19.1c-0.6,0-1.1,0.5-1.1,1.1v6.4c0,0.6,0.5,1.1,1.1,1.1h18c0.6,0,1.1-0.5,1.1-1.1
				v-6.4c0-0.6-0.5-1.1-1.1-1.1H138.2z"/>
		</g>
		<g>
			<path d="M180.8,28.5h-18c-1,0-1.9-0.8-1.9-1.9v-6.4c0-1,0.8-1.9,1.9-1.9h18c1,0,1.8,0.8,1.8,1.9v6.4
				C182.6,27.7,181.8,28.5,180.8,28.5z M162.8,19.1c-0.6,0-1.1,0.5-1.1,1.1v6.4c0,0.6,0.5,1.1,1.1,1.1h18c0.6,0,1.1-0.5,1.1-1.1
				v-6.4c0-0.6-0.5-1.1-1.1-1.1H162.8z"/>
		</g>
		<g>
			<path d="M205.4,28.5h-18c-1,0-1.9-0.8-1.9-1.9v-6.4c0-1,0.8-1.9,1.9-1.9h18c1,0,1.8,0.8,1.8,1.9v6.4
				C207.2,27.7,206.4,28.5,205.4,28.5z M187.3,19.1c-0.6,0-1.1,0.5-1.1,1.1v6.4c0,0.6,0.5,1.1,1.1,1.1h18c0.6,0,1.1-0.5,1.1-1.1
				v-6.4c0-0.6-0.5-1.1-1.1-1.1H187.3z"/>
		</g>
		<g>
			<path d="M229.9,28.5h-18c-1,0-1.9-0.8-1.9-1.9v-6.4c0-1,0.8-1.9,1.9-1.9h18c1,0,1.8,0.8,1.8,1.9v6.4
				C231.8,27.7,230.9,28.5,229.9,28.5z M211.9,19.1c-0.6,0-1.1,0.5-1.1,1.1v6.4c0,0.6,0.5,1.1,1.1,1.1h18c0.6,0,1.1-0.5,1.1-1.1
				v-6.4c0-0.6-0.5-1.1-1.1-1.1H211.9z"/>
		</g>
		<g>
			<path d="M254.5,28.5h-18c-1,0-1.9-0.8-1.9-1.9v-6.4c0-1,0.8-1.9,1.9-1.9h18c1,0,1.8,0.8,1.8,1.9v6.4
				C256.3,27.7,255.5,28.5,254.5,28.5z M236.5,19.1c-0.6,0-1.1,0.5-1.1,1.1v6.4c0,0.6,0.5,1.1,1.1,1.1h18c0.6,0,1.1-0.5,1.1-1.1
				v-6.4c0-0.6-0.5-1.1-1.1-1.1H236.5z"/>
		</g>
		<g>
			<path d="M279,28.5h-18c-1,0-1.8-0.8-1.8-1.9v-6.4c0-1,0.8-1.9,1.8-1.9h18c1,0,1.9,0.8,1.9,1.9v6.4
				C280.9,27.7,280.1,28.5,279,28.5z M261,19.1c-0.6,0-1.1,0.5-1.1,1.1v6.4c0,0.6,0.5,1.1,1.1,1.1h18c0.6,0,1.1-0.5,1.1-1.1v-6.4
				c0-0.6-0.5-1.1-1.1-1.1H261z"/>
		</g>
		<g>
			<path d="M303.6,28.5h-18c-1,0-1.9-0.8-1.9-1.9v-6.4c0-1,0.8-1.9,1.9-1.9h18c1,0,1.9,0.8,1.9,1.9v6.4
				C305.5,27.7,304.6,28.5,303.6,28.5z M285.6,19.1c-0.6,0-1.1,0.5-1.1,1.1v6.4c0,0.6,0.5,1.1,1.1,1.1h18c0.6,0,1.1-0.5,1.1-1.1
				v-6.4c0-0.6-0.5-1.1-1.1-1.1H285.6z"/>
		</g>
		<g>
			<path d="M327.6,28.5h-18c-1,0-1.9-0.8-1.9-1.9v-6.4c0-1,0.8-1.9,1.9-1.9h18c1,0,1.8,0.8,1.8,1.9v6.4
				C329.4,27.7,328.6,28.5,327.6,28.5z M309.5,19.1c-0.6,0-1.1,0.5-1.1,1.1v6.4c0,0.6,0.5,1.1,1.1,1.1h18c0.6,0,1.1-0.5,1.1-1.1
				v-6.4c0-0.6-0.5-1.1-1.1-1.1H309.5z"/>
		</g>
		<g>
			<path d="M352,28.5h-18c-1,0-1.8-0.8-1.8-1.9v-6.4c0-1,0.8-1.9,1.8-1.9h18c1,0,1.9,0.8,1.9,1.9v6.4C353.8,27.7,353,28.5,352,28.5z
				 M334,19.1c-0.6,0-1.1,0.5-1.1,1.1v6.4c0,0.6,0.5,1.1,1.1,1.1h18c0.6,0,1.1-0.5,1.1-1.1v-6.4c0-0.6-0.5-1.1-1.1-1.1H334z"/>
		</g>
		<g>
			<path d="M55.5,51.6H39.1c-1,0-1.9-0.8-1.9-1.9V33.4c0-1,0.8-1.9,1.9-1.9h16.4c1,0,1.9,0.8,1.9,1.9v16.4
				C57.3,50.8,56.5,51.6,55.5,51.6z M39.1,32.2c-0.6,0-1.1,0.5-1.1,1.1v16.4c0,0.6,0.5,1.1,1.1,1.1h16.4c0.6,0,1.1-0.5,1.1-1.1V33.4
				c0-0.6-0.5-1.1-1.1-1.1H39.1z"/>
		</g>
		<g>
			<path d="M79.2,51.6H62.8c-1,0-1.9-0.8-1.9-1.9V33.4c0-1,0.8-1.9,1.9-1.9h16.4c1,0,1.9,0.8,1.9,1.9v16.4
				C81.1,50.8,80.2,51.6,79.2,51.6z M62.8,32.2c-0.6,0-1.1,0.5-1.1,1.1v16.4c0,0.6,0.5,1.1,1.1,1.1h16.4c0.6,0,1.1-0.5,1.1-1.1V33.4
				c0-0.6-0.5-1.1-1.1-1.1H62.8z"/>
		</g>
		<g>
			<path d="M102.9,51.6H86.5c-1,0-1.9-0.8-1.9-1.9V33.4c0-1,0.8-1.9,1.9-1.9h16.4c1,0,1.9,0.8,1.9,1.9v16.4
				C104.8,50.8,103.9,51.6,102.9,51.6z M86.5,32.2c-0.6,0-1.1,0.5-1.1,1.1v16.4c0,0.6,0.5,1.1,1.1,1.1h16.4c0.6,0,1.1-0.5,1.1-1.1
				V33.4c0-0.6-0.5-1.1-1.1-1.1H86.5z"/>
		</g>
		<g>
			<path d="M126.6,51.6h-16.4c-1,0-1.9-0.8-1.9-1.9V33.4c0-1,0.8-1.9,1.9-1.9h16.4c1,0,1.9,0.8,1.9,1.9v16.4
				C128.5,50.8,127.7,51.6,126.6,51.6z M110.2,32.2c-0.6,0-1.1,0.5-1.1,1.1v16.4c0,0.6,0.5,1.1,1.1,1.1h16.4c0.6,0,1.1-0.5,1.1-1.1
				V33.4c0-0.6-0.5-1.1-1.1-1.1H110.2z"/>
		</g>
		<g>
			<path d="M150.3,51.6h-16.4c-1,0-1.9-0.8-1.9-1.9V33.4c0-1,0.8-1.9,1.9-1.9h16.4c1,0,1.9,0.8,1.9,1.9v16.4
				C152.2,50.8,151.4,51.6,150.3,51.6z M133.9,32.2c-0.6,0-1.1,0.5-1.1,1.1v16.4c0,0.6,0.5,1.1,1.1,1.1h16.4c0.6,0,1.1-0.5,1.1-1.1
				V33.4c0-0.6-0.5-1.1-1.1-1.1H133.9z"/>
		</g>
		<g>
			<path d="M174.1,51.6h-16.4c-1,0-1.9-0.8-1.9-1.9V33.4c0-1,0.8-1.9,1.9-1.9h16.4c1,0,1.9,0.8,1.9,1.9v16.4
				C175.9,50.8,175.1,51.6,174.1,51.6z M157.6,32.2c-0.6,0-1.1,0.5-1.1,1.1v16.4c0,0.6,0.5,1.1,1.1,1.1H174c0.6,0,1.1-0.5,1.1-1.1
				V33.4c0-0.6-0.5-1.1-1.1-1.1H157.6z"/>
		</g>
		<g>
			<path d="M197.8,51.6h-16.4c-1,0-1.9-0.8-1.9-1.9V33.4c0-1,0.8-1.9,1.9-1.9h16.4c1,0,1.9,0.8,1.9,1.9v16.4
				C199.6,50.8,198.8,51.6,197.8,51.6z M181.4,32.2c-0.6,0-1.1,0.5-1.1,1.1v16.4c0,0.6,0.5,1.1,1.1,1.1h16.4c0.6,0,1.1-0.5,1.1-1.1
				V33.4c0-0.6-0.5-1.1-1.1-1.1H181.4z"/>
		</g>
		<g>
			<path d="M221.5,51.6h-16.4c-1,0-1.9-0.8-1.9-1.9V33.4c0-1,0.8-1.9,1.9-1.9h16.4c1,0,1.9,0.8,1.9,1.9v16.4
				C223.3,50.8,222.5,51.6,221.5,51.6z M205.1,32.2c-0.6,0-1.1,0.5-1.1,1.1v16.4c0,0.6,0.5,1.1,1.1,1.1h16.4c0.6,0,1.1-0.5,1.1-1.1
				V33.4c0-0.6-0.5-1.1-1.1-1.1H205.1z"/>
		</g>
		<g>
			<path d="M245.2,51.6h-16.4c-1,0-1.9-0.8-1.9-1.9V33.4c0-1,0.8-1.9,1.9-1.9h16.4c1,0,1.9,0.8,1.9,1.9v16.4
				C247.1,50.8,246.2,51.6,245.2,51.6z M228.8,32.2c-0.6,0-1.1,0.5-1.1,1.1v16.4c0,0.6,0.5,1.1,1.1,1.1h16.4c0.6,0,1.1-0.5,1.1-1.1
				V33.4c0-0.6-0.5-1.1-1.1-1.1H228.8z"/>
		</g>
		<g>
			<path d="M268.9,51.6h-16.4c-1,0-1.9-0.8-1.9-1.9V33.4c0-1,0.8-1.9,1.9-1.9h16.4c1,0,1.9,0.8,1.9,1.9v16.4
				C270.8,50.8,269.9,51.6,268.9,51.6z M252.5,32.2c-0.6,0-1.1,0.5-1.1,1.1v16.4c0,0.6,0.5,1.1,1.1,1.1h16.4c0.6,0,1.1-0.5,1.1-1.1
				V33.4c0-0.6-0.5-1.1-1.1-1.1H252.5z"/>
		</g>
		<g>
			<path d="M292.6,51.6h-16.4c-1,0-1.9-0.8-1.9-1.9V33.4c0-1,0.8-1.9,1.9-1.9h16.4c1,0,1.9,0.8,1.9,1.9v16.4
				C294.5,50.8,293.6,51.6,292.6,51.6z M276.2,32.2c-0.6,0-1.1,0.5-1.1,1.1v16.4c0,0.6,0.5,1.1,1.1,1.1h16.4c0.6,0,1.1-0.5,1.1-1.1
				V33.4c0-0.6-0.5-1.1-1.1-1.1H276.2z"/>
		</g>
		<g>
			<path d="M316.3,51.6h-16.4c-1,0-1.9-0.8-1.9-1.9V33.4c0-1,0.8-1.9,1.9-1.9h16.4c1,0,1.9,0.8,1.9,1.9v16.4
				C318.2,50.8,317.4,51.6,316.3,51.6z M299.9,32.2c-0.6,0-1.1,0.5-1.1,1.1v16.4c0,0.6,0.5,1.1,1.1,1.1h16.4c0.6,0,1.1-0.5,1.1-1.1
				V33.4c0-0.6-0.5-1.1-1.1-1.1H299.9z"/>
		</g>
		<g>
			<path d="M351.9,51.6h-28.3c-1,0-1.9-0.8-1.9-1.9V33.4c0-1,0.8-1.9,1.9-1.9h28.3c1,0,1.9,0.8,1.9,1.9v16.4
				C353.8,50.8,352.9,51.6,351.9,51.6z M323.6,32.2c-0.6,0-1.1,0.5-1.1,1.1v16.4c0,0.6,0.5,1.1,1.1,1.1h28.3c0.6,0,1.1-0.5,1.1-1.1
				V33.4c0-0.6-0.5-1.1-1.1-1.1H323.6z"/>
		</g>
		<g>
			<path d="M351.9,74.1h-16.4c-1,0-1.9-0.8-1.9-1.9V55.8c0-1,0.8-1.9,1.9-1.9h16.4c1,0,1.9,0.8,1.9,1.9v16.4
				C353.8,73.3,352.9,74.1,351.9,74.1z M335.5,54.7c-0.6,0-1.1,0.5-1.1,1.1v16.4c0,0.6,0.5,1.1,1.1,1.1h16.4c0.6,0,1.1-0.5,1.1-1.1
				V55.8c0-0.6-0.5-1.1-1.1-1.1H335.5z"/>
		</g>
		<g>
			<path d="M328.2,74.1h-16.4c-1,0-1.9-0.8-1.9-1.9V55.8c0-1,0.8-1.9,1.9-1.9h16.4c1,0,1.9,0.8,1.9,1.9v16.4
				C330,73.3,329.2,74.1,328.2,74.1z M311.8,54.7c-0.6,0-1.1,0.5-1.1,1.1v16.4c0,0.6,0.5,1.1,1.1,1.1h16.4c0.6,0,1.1-0.5,1.1-1.1
				V55.8c0-0.6-0.5-1.1-1.1-1.1H311.8z"/>
		</g>
		<g>
			<path d="M304.5,74.1H288c-1,0-1.9-0.8-1.9-1.9V55.8c0-1,0.8-1.9,1.9-1.9h16.4c1,0,1.9,0.8,1.9,1.9v16.4
				C306.3,73.3,305.5,74.1,304.5,74.1z M288,54.7c-0.6,0-1.1,0.5-1.1,1.1v16.4c0,0.6,0.5,1.1,1.1,1.1h16.4c0.6,0,1.1-0.5,1.1-1.1
				V55.8c0-0.6-0.5-1.1-1.1-1.1H288z"/>
		</g>
		<g>
			<path d="M280.8,74.1h-16.4c-1,0-1.9-0.8-1.9-1.9V55.8c0-1,0.8-1.9,1.9-1.9h16.4c1,0,1.9,0.8,1.9,1.9v16.4
				C282.6,73.3,281.8,74.1,280.8,74.1z M264.3,54.7c-0.6,0-1.1,0.5-1.1,1.1v16.4c0,0.6,0.5,1.1,1.1,1.1h16.4c0.6,0,1.1-0.5,1.1-1.1
				V55.8c0-0.6-0.5-1.1-1.1-1.1H264.3z"/>
		</g>
		<g>
			<path d="M257,74.1h-16.4c-1,0-1.9-0.8-1.9-1.9V55.8c0-1,0.8-1.9,1.9-1.9H257c1,0,1.9,0.8,1.9,1.9v16.4
				C258.9,73.3,258.1,74.1,257,74.1z M240.6,54.7c-0.6,0-1.1,0.5-1.1,1.1v16.4c0,0.6,0.5,1.1,1.1,1.1H257c0.6,0,1.1-0.5,1.1-1.1
				V55.8c0-0.6-0.5-1.1-1.1-1.1H240.6z"/>
		</g>
		<g>
			<path d="M233.3,74.1h-16.4c-1,0-1.9-0.8-1.9-1.9V55.8c0-1,0.8-1.9,1.9-1.9h16.4c1,0,1.9,0.8,1.9,1.9v16.4
				C235.2,73.3,234.4,74.1,233.3,74.1z M216.9,54.7c-0.6,0-1.1,0.5-1.1,1.1v16.4c0,0.6,0.5,1.1,1.1,1.1h16.4c0.6,0,1.1-0.5,1.1-1.1
				V55.8c0-0.6-0.5-1.1-1.1-1.1H216.9z"/>
		</g>
		<g>
			<path d="M209.6,74.1h-16.4c-1,0-1.9-0.8-1.9-1.9V55.8c0-1,0.8-1.9,1.9-1.9h16.4c1,0,1.9,0.8,1.9,1.9v16.4
				C211.5,73.3,210.6,74.1,209.6,74.1z M193.2,54.7c-0.6,0-1.1,0.5-1.1,1.1v16.4c0,0.6,0.5,1.1,1.1,1.1h16.4c0.6,0,1.1-0.5,1.1-1.1
				V55.8c0-0.6-0.5-1.1-1.1-1.1H193.2z"/>
		</g>
		<g>
			<path d="M185.9,74.1h-16.4c-1,0-1.9-0.8-1.9-1.9V55.8c0-1,0.8-1.9,1.9-1.9h16.4c1,0,1.9,0.8,1.9,1.9v16.4
				C187.8,73.3,186.9,74.1,185.9,74.1z M169.5,54.7c-0.6,0-1.1,0.5-1.1,1.1v16.4c0,0.6,0.5,1.1,1.1,1.1h16.4c0.6,0,1.1-0.5,1.1-1.1
				V55.8c0-0.6-0.5-1.1-1.1-1.1H169.5z"/>
		</g>
		<g>
			<path d="M162.2,74.1h-16.4c-1,0-1.9-0.8-1.9-1.9V55.8c0-1,0.8-1.9,1.9-1.9h16.4c1,0,1.9,0.8,1.9,1.9v16.4
				C164.1,73.3,163.2,74.1,162.2,74.1z M145.8,54.7c-0.6,0-1.1,0.5-1.1,1.1v16.4c0,0.6,0.5,1.1,1.1,1.1h16.4c0.6,0,1.1-0.5,1.1-1.1
				V55.8c0-0.6-0.5-1.1-1.1-1.1H145.8z"/>
		</g>
		<g>
			<path d="M138.5,74.1h-16.4c-1,0-1.9-0.8-1.9-1.9V55.8c0-1,0.8-1.9,1.9-1.9h16.4c1,0,1.9,0.8,1.9,1.9v16.4
				C140.3,73.3,139.5,74.1,138.5,74.1z M122.1,54.7c-0.6,0-1.1,0.5-1.1,1.1v16.4c0,0.6,0.5,1.1,1.1,1.1h16.4c0.6,0,1.1-0.5,1.1-1.1
				V55.8c0-0.6-0.5-1.1-1.1-1.1H122.1z"/>
		</g>
		<g>
			<path d="M114.8,74.1H98.3c-1,0-1.9-0.8-1.9-1.9V55.8c0-1,0.8-1.9,1.9-1.9h16.4c1,0,1.9,0.8,1.9,1.9v16.4
				C116.6,73.3,115.8,74.1,114.8,74.1z M98.3,54.7c-0.6,0-1.1,0.5-1.1,1.1v16.4c0,0.6,0.5,1.1,1.1,1.1h16.4c0.6,0,1.1-0.5,1.1-1.1
				V55.8c0-0.6-0.5-1.1-1.1-1.1H98.3z"/>
		</g>
		<g>
			<path d="M91.1,74.1H74.6c-1,0-1.9-0.8-1.9-1.9V55.8c0-1,0.8-1.9,1.9-1.9h16.4c1,0,1.9,0.8,1.9,1.9v16.4
				C92.9,73.3,92.1,74.1,91.1,74.1z M74.6,54.7c-0.6,0-1.1,0.5-1.1,1.1v16.4c0,0.6,0.5,1.1,1.1,1.1h16.4c0.6,0,1.1-0.5,1.1-1.1V55.8
				c0-0.6-0.5-1.1-1.1-1.1H74.6z"/>
		</g>
		<g>
			<path d="M67.3,74.1H50.9c-1,0-1.9-0.8-1.9-1.9V55.8c0-1,0.8-1.9,1.9-1.9h16.4c1,0,1.9,0.8,1.9,1.9v16.4
				C69.2,73.3,68.4,74.1,67.3,74.1z M50.9,54.7c-0.6,0-1.1,0.5-1.1,1.1v16.4c0,0.6,0.5,1.1,1.1,1.1h16.4c0.6,0,1.1-0.5,1.1-1.1V55.8
				c0-0.6-0.5-1.1-1.1-1.1H50.9z"/>
		</g>
		<g>
			<path d="M311.3,97h-16.4c-1,0-1.9-0.8-1.9-1.9V78.7c0-1,0.8-1.9,1.9-1.9h16.4c1,0,1.9,0.8,1.9,1.9v16.4
				C313.1,96.1,312.3,97,311.3,97z M294.9,77.6c-0.6,0-1.1,0.5-1.1,1.1v16.4c0,0.6,0.5,1.1,1.1,1.1h16.4c0.6,0,1.1-0.5,1.1-1.1V78.7
				c0-0.6-0.5-1.1-1.1-1.1C311.3,77.6,294.9,77.6,294.9,77.6z"/>
		</g>
		<g>
			<path d="M287.6,97h-16.4c-1,0-1.9-0.8-1.9-1.9V78.7c0-1,0.8-1.9,1.9-1.9h16.4c1,0,1.9,0.8,1.9,1.9v16.4
				C289.4,96.1,288.6,97,287.6,97z M271.1,77.6c-0.6,0-1.1,0.5-1.1,1.1v16.4c0,0.6,0.5,1.1,1.1,1.1h16.4c0.6,0,1.1-0.5,1.1-1.1V78.7
				c0-0.6-0.5-1.1-1.1-1.1C287.6,77.6,271.1,77.6,271.1,77.6z"/>
		</g>
		<g>
			<path d="M263.9,97h-16.4c-1,0-1.9-0.8-1.9-1.9V78.7c0-1,0.8-1.9,1.9-1.9h16.4c1,0,1.9,0.8,1.9,1.9v16.4
				C265.7,96.1,264.9,97,263.9,97z M247.4,77.6c-0.6,0-1.1,0.5-1.1,1.1v16.4c0,0.6,0.5,1.1,1.1,1.1h16.4c0.6,0,1.1-0.5,1.1-1.1V78.7
				c0-0.6-0.5-1.1-1.1-1.1C263.9,77.6,247.4,77.6,247.4,77.6z"/>
		</g>
		<g>
			<path d="M240.1,97h-16.4c-1,0-1.9-0.8-1.9-1.9V78.7c0-1,0.8-1.9,1.9-1.9h16.4c1,0,1.9,0.8,1.9,1.9v16.4
				C242,96.1,241.2,97,240.1,97z M223.7,77.6c-0.6,0-1.1,0.5-1.1,1.1v16.4c0,0.6,0.5,1.1,1.1,1.1h16.4c0.6,0,1.1-0.5,1.1-1.1V78.7
				c0-0.6-0.5-1.1-1.1-1.1C240.1,77.6,223.7,77.6,223.7,77.6z"/>
		</g>
		<g>
			<path d="M216.4,97H200c-1,0-1.9-0.8-1.9-1.9V78.7c0-1,0.8-1.9,1.9-1.9h16.4c1,0,1.9,0.8,1.9,1.9v16.4
				C218.3,96.1,217.4,97,216.4,97z M200,77.6c-0.6,0-1.1,0.5-1.1,1.1v16.4c0,0.6,0.5,1.1,1.1,1.1h16.4c0.6,0,1.1-0.5,1.1-1.1V78.7
				c0-0.6-0.5-1.1-1.1-1.1C216.4,77.6,200,77.6,200,77.6z"/>
		</g>
		<g>
			<path d="M192.7,97h-16.4c-1,0-1.9-0.8-1.9-1.9V78.7c0-1,0.8-1.9,1.9-1.9h16.4c1,0,1.9,0.8,1.9,1.9v16.4
				C194.6,96.1,193.7,97,192.7,97z M176.3,77.6c-0.6,0-1.1,0.5-1.1,1.1v16.4c0,0.6,0.5,1.1,1.1,1.1h16.4c0.6,0,1.1-0.5,1.1-1.1V78.7
				c0-0.6-0.5-1.1-1.1-1.1C192.7,77.6,176.3,77.6,176.3,77.6z"/>
		</g>
		<g>
			<path d="M169,97h-16.4c-1,0-1.9-0.8-1.9-1.9V78.7c0-1,0.8-1.9,1.9-1.9H169c1,0,1.9,0.8,1.9,1.9v16.4C170.9,96.1,170,97,169,97z
				 M152.6,77.6c-0.6,0-1.1,0.5-1.1,1.1v16.4c0,0.6,0.5,1.1,1.1,1.1H169c0.6,0,1.1-0.5,1.1-1.1V78.7c0-0.6-0.5-1.1-1.1-1.1
				C169,77.6,152.6,77.6,152.6,77.6z"/>
		</g>
		<g>
			<path d="M145.3,97h-16.4c-1,0-1.9-0.8-1.9-1.9V78.7c0-1,0.8-1.9,1.9-1.9h16.4c1,0,1.9,0.8,1.9,1.9v16.4
				C147.2,96.1,146.3,97,145.3,97z M128.9,77.6c-0.6,0-1.1,0.5-1.1,1.1v16.4c0,0.6,0.5,1.1,1.1,1.1h16.4c0.6,0,1.1-0.5,1.1-1.1V78.7
				c0-0.6-0.5-1.1-1.1-1.1C145.3,77.6,128.9,77.6,128.9,77.6z"/>
		</g>
		<g>
			<path d="M121.6,97h-16.4c-1,0-1.9-0.8-1.9-1.9V78.7c0-1,0.8-1.9,1.9-1.9h16.4c1,0,1.9,0.8,1.9,1.9v16.4
				C123.4,96.1,122.6,97,121.6,97z M105.2,77.6c-0.6,0-1.1,0.5-1.1,1.1v16.4c0,0.6,0.5,1.1,1.1,1.1h16.4c0.6,0,1.1-0.5,1.1-1.1V78.7
				c0-0.6-0.5-1.1-1.1-1.1C121.6,77.6,105.2,77.6,105.2,77.6z"/>
		</g>
		<g>
			<path d="M97.9,97H81.4c-1,0-1.9-0.8-1.9-1.9V78.7c0-1,0.8-1.9,1.9-1.9h16.4c1,0,1.9,0.8,1.9,1.9v16.4C99.7,96.1,98.9,97,97.9,97z
				 M81.4,77.6c-0.6,0-1.1,0.5-1.1,1.1v16.4c0,0.6,0.5,1.1,1.1,1.1h16.4c0.6,0,1.1-0.5,1.1-1.1V78.7c0-0.6-0.5-1.1-1.1-1.1
				C97.9,77.6,81.4,77.6,81.4,77.6z"/>
		</g>
		<g>
			<path d="M74.2,97H57.7c-1,0-1.9-0.8-1.9-1.9V78.7c0-1,0.8-1.9,1.9-1.9h16.4c1,0,1.9,0.8,1.9,1.9v16.4C76,96.1,75.2,97,74.2,97z
				 M57.7,77.6c-0.6,0-1.1,0.5-1.1,1.1v16.4c0,0.6,0.5,1.1,1.1,1.1h16.4c0.6,0,1.1-0.5,1.1-1.1V78.7c0-0.6-0.5-1.1-1.1-1.1
				C74.2,77.6,57.7,77.6,57.7,77.6z"/>
		</g>
		<g>
			<path d="M43.6,74.1H15.4c-1,0-1.9-0.8-1.9-1.9V55.8c0-1,0.8-1.9,1.9-1.9h28.3c1,0,1.9,0.8,1.9,1.9v16.4
				C45.5,73.3,44.7,74.1,43.6,74.1z M15.4,54.7c-0.6,0-1.1,0.5-1.1,1.1v16.4c0,0.6,0.5,1.1,1.1,1.1h28.3c0.6,0,1.1-0.5,1.1-1.1V55.8
				c0-0.6-0.5-1.1-1.1-1.1H15.4z"/>
		</g>
		<g>
			<path d="M50.5,97H15.4c-1,0-1.9-0.8-1.9-1.9V78.7c0-1,0.8-1.9,1.9-1.9h35.1c1,0,1.9,0.8,1.9,1.9v16.4C52.4,96.1,51.5,97,50.5,97z
				 M15.4,77.6c-0.6,0-1.1,0.5-1.1,1.1v16.4c0,0.6,0.5,1.1,1.1,1.1h35.1c0.6,0,1.1-0.5,1.1-1.1V78.7c0-0.6-0.5-1.1-1.1-1.1
				C50.5,77.6,15.4,77.6,15.4,77.6z"/>
		</g>
		<g>
			<path d="M298.5,119.7h-16.4c-1,0-1.9-0.8-1.9-1.9v-16.4c0-1,0.8-1.9,1.9-1.9h16.4c1,0,1.9,0.8,1.9,1.9v16.4
				C300.4,118.8,299.5,119.7,298.5,119.7z M282.1,100.2c-0.6,0-1.1,0.5-1.1,1.1v16.4c0,0.6,0.5,1.1,1.1,1.1h16.4
				c0.6,0,1.1-0.5,1.1-1.1v-16.4c0-0.6-0.5-1.1-1.1-1.1H282.1z"/>
		</g>
		<g>
			<path d="M327.9,142.5h-16.4c-1,0-1.9-0.8-1.9-1.9v-5.8c0-1,0.8-1.9,1.9-1.9h16.4c1,0,1.9,0.8,1.9,1.9v5.8
				C329.8,141.7,328.9,142.5,327.9,142.5z M311.5,133.7c-0.6,0-1.1,0.5-1.1,1.1v5.8c0,0.6,0.5,1.1,1.1,1.1h16.4
				c0.6,0,1.1-0.5,1.1-1.1v-5.8c0-0.6-0.5-1.1-1.1-1.1H311.5z"/>
		</g>
		<g>
			<path d="M351.8,142.5h-16.4c-1,0-1.9-0.8-1.9-1.9v-5.8c0-1,0.8-1.9,1.9-1.9h16.4c1,0,1.9,0.8,1.9,1.9v5.8
				C353.7,141.7,352.8,142.5,351.8,142.5z M335.4,133.7c-0.6,0-1.1,0.5-1.1,1.1v5.8c0,0.6,0.5,1.1,1.1,1.1h16.4
				c0.6,0,1.1-0.5,1.1-1.1v-5.8c0-0.6-0.5-1.1-1.1-1.1H335.4z"/>
		</g>
		<g>
			<path d="M304.5,142.5H288c-1,0-1.9-0.8-1.9-1.9v-5.8c0-1,0.8-1.9,1.9-1.9h16.4c1,0,1.9,0.8,1.9,1.9v5.8
				C306.3,141.7,305.5,142.5,304.5,142.5z M288,133.7c-0.6,0-1.1,0.5-1.1,1.1v5.8c0,0.6,0.5,1.1,1.1,1.1h16.4c0.6,0,1.1-0.5,1.1-1.1
				v-5.8c0-0.6-0.5-1.1-1.1-1.1H288z"/>
		</g>
		<g>
			<path d="M327.9,132h-16.4c-1,0-1.9-0.8-1.9-1.9v-5.8c0-1,0.8-1.9,1.9-1.9h16.4c1,0,1.9,0.8,1.9,1.9v5.8
				C329.8,131.2,328.9,132,327.9,132z M311.5,123.2c-0.6,0-1.1,0.5-1.1,1.1v5.8c0,0.6,0.5,1.1,1.1,1.1h16.4c0.6,0,1.1-0.5,1.1-1.1
				v-5.8c0-0.6-0.5-1.1-1.1-1.1H311.5z"/>
		</g>
		<g>
			<path d="M274.8,119.7h-16.4c-1,0-1.9-0.8-1.9-1.9v-16.4c0-1,0.8-1.9,1.9-1.9h16.4c1,0,1.9,0.8,1.9,1.9v16.4
				C276.7,118.8,275.8,119.7,274.8,119.7z M258.4,100.2c-0.6,0-1.1,0.5-1.1,1.1v16.4c0,0.6,0.5,1.1,1.1,1.1h16.4
				c0.6,0,1.1-0.5,1.1-1.1v-16.4c0-0.6-0.5-1.1-1.1-1.1H258.4z"/>
		</g>
		<g>
			<path d="M280.8,142.5h-16.4c-1,0-1.9-0.8-1.9-1.9v-16.4c0-1,0.8-1.9,1.9-1.9h16.4c1,0,1.9,0.8,1.9,1.9v16.4
				C282.6,141.7,281.8,142.5,280.8,142.5z M264.3,123.1c-0.6,0-1.1,0.5-1.1,1.1v16.4c0,0.6,0.5,1.1,1.1,1.1h16.4
				c0.6,0,1.1-0.5,1.1-1.1v-16.4c0-0.6-0.5-1.1-1.1-1.1H264.3z"/>
		</g>
		<g>
			<path d="M251.1,119.7h-16.4c-1,0-1.9-0.8-1.9-1.9v-16.4c0-1,0.8-1.9,1.9-1.9h16.4c1,0,1.9,0.8,1.9,1.9v16.4
				C252.9,118.8,252.1,119.7,251.1,119.7z M234.7,100.2c-0.6,0-1.1,0.5-1.1,1.1v16.4c0,0.6,0.5,1.1,1.1,1.1h16.4
				c0.6,0,1.1-0.5,1.1-1.1v-16.4c0-0.6-0.5-1.1-1.1-1.1H234.7z"/>
		</g>
		<g>
			<path d="M227.4,119.7H211c-1,0-1.9-0.8-1.9-1.9v-16.4c0-1,0.8-1.9,1.9-1.9h16.4c1,0,1.9,0.8,1.9,1.9v16.4
				C229.2,118.8,228.4,119.7,227.4,119.7z M211,100.2c-0.6,0-1.1,0.5-1.1,1.1v16.4c0,0.6,0.5,1.1,1.1,1.1h16.4
				c0.6,0,1.1-0.5,1.1-1.1v-16.4c0-0.6-0.5-1.1-1.1-1.1H211z"/>
		</g>
		<g>
			<path d="M203.7,119.7h-16.4c-1,0-1.9-0.8-1.9-1.9v-16.4c0-1,0.8-1.9,1.9-1.9h16.4c1,0,1.9,0.8,1.9,1.9v16.4
				C205.5,118.8,204.7,119.7,203.7,119.7z M187.2,100.2c-0.6,0-1.1,0.5-1.1,1.1v16.4c0,0.6,0.5,1.1,1.1,1.1h16.4
				c0.6,0,1.1-0.5,1.1-1.1v-16.4c0-0.6-0.5-1.1-1.1-1.1H187.2z"/>
		</g>
		<g>
			<path d="M179.9,119.7h-16.4c-1,0-1.9-0.8-1.9-1.9v-16.4c0-1,0.8-1.9,1.9-1.9h16.4c1,0,1.9,0.8,1.9,1.9v16.4
				C181.8,118.8,181,119.7,179.9,119.7z M163.5,100.2c-0.6,0-1.1,0.5-1.1,1.1v16.4c0,0.6,0.5,1.1,1.1,1.1h16.4
				c0.6,0,1.1-0.5,1.1-1.1v-16.4c0-0.6-0.5-1.1-1.1-1.1H163.5z"/>
		</g>
		<g>
			<path d="M156.2,119.7h-16.4c-1,0-1.9-0.8-1.9-1.9v-16.4c0-1,0.8-1.9,1.9-1.9h16.4c1,0,1.9,0.8,1.9,1.9v16.4
				C158.1,118.8,157.3,119.7,156.2,119.7z M139.8,100.2c-0.6,0-1.1,0.5-1.1,1.1v16.4c0,0.6,0.5,1.1,1.1,1.1h16.4
				c0.6,0,1.1-0.5,1.1-1.1v-16.4c0-0.6-0.5-1.1-1.1-1.1H139.8z"/>
		</g>
		<g>
			<path d="M132.5,119.7h-16.4c-1,0-1.9-0.8-1.9-1.9v-16.4c0-1,0.8-1.9,1.9-1.9h16.4c1,0,1.9,0.8,1.9,1.9v16.4
				C134.4,118.8,133.6,119.7,132.5,119.7z M116.1,100.2c-0.6,0-1.1,0.5-1.1,1.1v16.4c0,0.6,0.5,1.1,1.1,1.1h16.4
				c0.6,0,1.1-0.5,1.1-1.1v-16.4c0-0.6-0.5-1.1-1.1-1.1H116.1z"/>
		</g>
		<g>
			<path d="M108.8,119.7H92.4c-1,0-1.9-0.8-1.9-1.9v-16.4c0-1,0.8-1.9,1.9-1.9h16.4c1,0,1.9,0.8,1.9,1.9v16.4
				C110.7,118.8,109.8,119.7,108.8,119.7z M92.4,100.2c-0.6,0-1.1,0.5-1.1,1.1v16.4c0,0.6,0.5,1.1,1.1,1.1h16.4
				c0.6,0,1.1-0.5,1.1-1.1v-16.4c0-0.6-0.5-1.1-1.1-1.1H92.4z"/>
		</g>
		<g>
			<path d="M85.1,119.7H68.7c-1,0-1.9-0.8-1.9-1.9v-16.4c0-1,0.8-1.9,1.9-1.9h16.4c1,0,1.9,0.8,1.9,1.9v16.4
				C87,118.8,86.1,119.7,85.1,119.7z M68.7,100.2c-0.6,0-1.1,0.5-1.1,1.1v16.4c0,0.6,0.5,1.1,1.1,1.1h16.4c0.6,0,1.1-0.5,1.1-1.1
				v-16.4c0-0.6-0.5-1.1-1.1-1.1H68.7z"/>
		</g>
		<g>
			<path d="M79.2,142.5H62.8c-1,0-1.9-0.8-1.9-1.9v-16.4c0-1,0.8-1.9,1.9-1.9h16.4c1,0,1.9,0.8,1.9,1.9v16.4
				C81.1,141.7,80.2,142.5,79.2,142.5z M62.8,123.1c-0.6,0-1.1,0.5-1.1,1.1v16.4c0,0.6,0.5,1.1,1.1,1.1h16.4c0.6,0,1.1-0.5,1.1-1.1
				v-16.4c0-0.6-0.5-1.1-1.1-1.1H62.8z"/>
		</g>
		<g>
			<path d="M109.2,142.5H86.5c-1,0-1.9-0.8-1.9-1.9v-16.4c0-1,0.8-1.9,1.9-1.9h22.7c1,0,1.9,0.8,1.9,1.9v16.4
				C111,141.7,110.2,142.5,109.2,142.5z M86.5,123.1c-0.6,0-1.1,0.5-1.1,1.1v16.4c0,0.6,0.5,1.1,1.1,1.1h22.7c0.6,0,1.1-0.5,1.1-1.1
				v-16.4c0-0.6-0.5-1.1-1.1-1.1H86.5z"/>
		</g>
		<g>
			<path d="M257.3,142.5h-22.6c-1,0-1.9-0.8-1.9-1.9v-16.4c0-1,0.8-1.9,1.9-1.9h22.6c1,0,1.9,0.8,1.9,1.9v16.4
				C259.1,141.7,258.3,142.5,257.3,142.5z M234.6,123.1c-0.6,0-1.1,0.5-1.1,1.1v16.4c0,0.6,0.5,1.1,1.1,1.1h22.6
				c0.6,0,1.1-0.5,1.1-1.1v-16.4c0-0.6-0.5-1.1-1.1-1.1H234.6z"/>
		</g>
		<g>
			<path d="M227.5,142.5H116.4c-1,0-1.9-0.8-1.9-1.9v-16.4c0-1,0.8-1.9,1.9-1.9h111.1c1,0,1.9,0.8,1.9,1.9v16.4
				C229.4,141.7,228.5,142.5,227.5,142.5z M116.4,123.1c-0.6,0-1.1,0.5-1.1,1.1v16.4c0,0.6,0.5,1.1,1.1,1.1h111.1
				c0.6,0,1.1-0.5,1.1-1.1v-16.4c0-0.6-0.5-1.1-1.1-1.1H116.4z"/>
		</g>
		<g>
			<path d="M55.5,142.5H39.1c-1,0-1.9-0.8-1.9-1.9v-16.4c0-1,0.8-1.9,1.9-1.9h16.4c1,0,1.9,0.8,1.9,1.9v16.4
				C57.3,141.7,56.5,142.5,55.5,142.5z M39.1,123.1c-0.6,0-1.1,0.5-1.1,1.1v16.4c0,0.6,0.5,1.1,1.1,1.1h16.4c0.6,0,1.1-0.5,1.1-1.1
				v-16.4c0-0.6-0.5-1.1-1.1-1.1H39.1z"/>
		</g>
		<g>
			<path d="M31.8,142.5H15.4c-1,0-1.9-0.8-1.9-1.9v-16.4c0-1,0.8-1.9,1.9-1.9h16.4c1,0,1.9,0.8,1.9,1.9v16.4
				C33.6,141.7,32.8,142.5,31.8,142.5z M15.4,123.1c-0.6,0-1.1,0.5-1.1,1.1v16.4c0,0.6,0.5,1.1,1.1,1.1h16.4c0.6,0,1.1-0.5,1.1-1.1
				v-16.4c0-0.6-0.5-1.1-1.1-1.1H15.4z"/>
		</g>
		<g>
			<path d="M61.7,119.7H15.4c-1,0-1.9-0.8-1.9-1.9v-16.4c0-1,0.8-1.9,1.9-1.9h46.4c1,0,1.9,0.8,1.9,1.9v16.4
				C63.6,118.8,62.8,119.7,61.7,119.7z M15.4,100.2c-0.6,0-1.1,0.5-1.1,1.1v16.4c0,0.6,0.5,1.1,1.1,1.1h46.4c0.6,0,1.1-0.5,1.1-1.1
				v-16.4c0-0.6-0.5-1.1-1.1-1.1H15.4z"/>
		</g>
		<g>
			<path d="M352.2,119.7h-46.4c-1,0-1.9-0.8-1.9-1.9v-16.4c0-1,0.8-1.9,1.9-1.9h46.4c1,0,1.9,0.8,1.9,1.9v16.4
				C354,118.8,353.2,119.7,352.2,119.7z M305.8,100.2c-0.6,0-1.1,0.5-1.1,1.1v16.4c0,0.6,0.5,1.1,1.1,1.1h46.4
				c0.6,0,1.1-0.5,1.1-1.1v-16.4c0-0.6-0.5-1.1-1.1-1.1H305.8z"/>
		</g>
	</g>
</g>
<g>
	<path class="st1" d="M57.1,61.5c0-1.3,0.7-2.1,2-2.1s2,0.8,2,2.1v4.4c0,0.5-0.1,0.9-0.2,1.2c0.1,0.2,0.2,0.2,0.4,0.2h0.1v1.2h-0.2
		c-0.6,0-1-0.2-1.1-0.6c-0.3,0.1-0.6,0.2-0.9,0.2c-1.3,0-2-0.8-2-2.1L57.1,61.5L57.1,61.5z M58.5,65.9c0,0.6,0.3,0.8,0.7,0.8
		s0.7-0.2,0.7-0.8v-4.5c0-0.6-0.3-0.8-0.7-0.8s-0.7,0.2-0.7,0.8V65.9z"/>
</g>
<g>
	<path class="st1" d="M82.9,63.4l-0.5,4.5h-1.8l-0.9-8.4h1.3l0.7,6.6l0.6-6.6h1.3l0.7,6.7l0.7-6.7H86l-0.9,8.4h-1.8L82.9,63.4z"/>
</g>
<g>
	<path class="st1" d="M106.2,63h1.8v1.2h-1.8v2.5h2.3v1.2h-3.6v-8.4h3.6v1.2h-2.3V63z"/>
</g>
<g>
	<path class="st1" d="M131.1,67.9c-0.1-0.2-0.1-0.3-0.1-1v-1.3c0-0.8-0.3-1.1-0.9-1.1h-0.5v3.4h-1.3v-8.4h2c1.4,0,2,0.6,2,1.9v0.7
		c0,0.9-0.3,1.4-0.9,1.7c0.7,0.3,0.9,0.9,0.9,1.8v1.3c0,0.4,0,0.7,0.1,1H131.1z M129.7,60.7v2.6h0.5c0.5,0,0.8-0.2,0.8-0.9v-0.8
		c0-0.6-0.2-0.9-0.7-0.9H129.7z"/>
</g>
<g>
	<path class="st1" d="M68.2,90.8h-1.3l-0.2-1.5h-1.6l-0.2,1.5h-1.2l1.3-8.4h1.9L68.2,90.8z M65.2,88.2h1.3l-0.6-4.2L65.2,88.2z"/>
</g>
<g>
	<path class="st1" d="M89.7,82.3c1.3,0,1.9,0.8,1.9,2.1v0.3h-1.2v-0.3c0-0.6-0.2-0.8-0.7-0.8S89,83.7,89,84.3c0,1.7,2.6,2.1,2.6,4.4
		c0,1.3-0.7,2.1-2,2.1s-2-0.8-2-2.1v-0.5h1.2v0.6c0,0.6,0.3,0.8,0.7,0.8s0.7-0.2,0.7-0.8c0-1.7-2.6-2.1-2.6-4.4
		C87.7,83.1,88.4,82.3,89.7,82.3z"/>
</g>
<g>
	<path class="st1" d="M111.4,82.4h2.1c1.3,0,2,0.7,2,2.1v4.2c0,1.3-0.7,2.1-2,2.1h-2.1V82.4z M112.7,83.6v6h0.7
		c0.4,0,0.7-0.2,0.7-0.8v-4.4c0-0.6-0.2-0.8-0.7-0.8L112.7,83.6L112.7,83.6z"/>
</g>
<g>
	<path class="st1" d="M136.8,86.2h1.7v1.2h-1.7v3.5h-1.3v-8.4h3.5v1.2h-2.2V86.2z"/>
</g>
<g>
	<path class="st1" d="M78.8,105.4v1.2l-2.5,6h2.5v1.2h-3.9v-1.2l2.5-6h-2.4v-1.2H78.8z"/>
</g>
<g>
	<path class="st1" d="M102.9,105.4l-1.4,4.1l1.5,4.3h-1.4l-1.1-3.3l-1.1,3.3h-1.2l1.5-4.3l-1.4-4.1h1.4l1,3.1l1-3.1H102.9z"/>
</g>
<g>
	<path class="st1" d="M126.3,110.6v1.1c0,1.3-0.7,2.1-2,2.1s-2-0.8-2-2.1v-4.4c0-1.3,0.7-2.1,2-2.1c1.3,0,2,0.8,2,2.1v0.8H125v-0.9
		c0-0.6-0.3-0.8-0.7-0.8s-0.7,0.2-0.7,0.8v4.5c0,0.6,0.3,0.8,0.7,0.8s0.7-0.2,0.7-0.8v-1.2H126.3z"/>
</g>
<g>
	<path class="st1" d="M148.1,112.2l1-6.8h1.2l-1.3,8.4h-2l-1.3-8.4h1.3L148.1,112.2z"/>
</g>
</svg>
