<?xml version="1.0" encoding="utf-8"?>
<!-- Generator: Adobe Illustrator 23.1.1, SVG Export Plug-In . SVG Version: 6.00 Build 0)  -->
<svg version="1.1" id="Layer_1" xmlns="http://www.w3.org/2000/svg" xmlns:xlink="http://www.w3.org/1999/xlink" x="0px" y="0px"
	 viewBox="0 0 300 100" style="enable-background:new 0 0 300 100;" xml:space="preserve">
<style type="text/css">
	.st0{fill:none;stroke:#231F20;stroke-width:1.5;stroke-linecap:round;stroke-miterlimit:10;}
	.st1{fill:none;stroke:#231F20;stroke-width:1.5;stroke-linecap:round;stroke-linejoin:round;stroke-miterlimit:10;}
	.st2{fill:none;stroke:#231F20;stroke-linecap:round;stroke-miterlimit:10;}
	.st3{fill:none;stroke:#231F20;stroke-linecap:round;stroke-miterlimit:10;stroke-dasharray:1.0302,2.0605;}
	.st4{fill:none;stroke:#231F20;stroke-linecap:round;stroke-miterlimit:10;stroke-dasharray:0.9778,1.9556;}
	.st5{fill:none;stroke:#231F20;stroke-linecap:round;stroke-miterlimit:10;stroke-dasharray:1.0721,2.1442;}
	.st6{fill:none;stroke:#231F20;stroke-linecap:round;stroke-miterlimit:10;stroke-dasharray:1,2;}
	.st7{fill:#231F20;}
	.st8{fill:none;stroke:#FFFFFF;stroke-width:2;stroke-linecap:round;stroke-miterlimit:10;}
	.st9{fill:#FFFFFF;}
	.st10{fill:#DFC669;}
	.st11{fill:#EF569F;}
	.st12{fill:none;stroke:#231F20;stroke-width:2;stroke-linecap:round;stroke-miterlimit:10;}
	.st13{fill:#036C9B;}
	.st14{fill:#08C792;}
	.st15{fill:#3F3F3F;}
	.st16{fill:#A3A3A5;}
	.st17{fill:#B21F25;}
	.st18{fill:#E87E57;}
	.st19{fill:#D1D0D5;}
	.st20{fill:#2394A0;}
	.st21{fill:#838080;}
	.st22{fill:#55AF2F;}
	.st23{fill:#9C8035;}
</style>
<g>
	<path class="st13" d="M52.9,54.3c-4.2,3.2-6.5,6.3-6.5,8.9c0,3.7,4.7,5.4,15.6,5.4c8.5,0,18.8-1.4,23.5-3.3l0.9,13.8
		c-1.9,0.1-1.9,0.1-7.1,0.7c-6,0.8-12,1.2-17.9,1.2c-8.1,0-13.9-0.8-18.3-2.6c-6.4-2.6-9.6-7-9.6-13c0-6.4,3.2-11.7,10.3-17.4
		L52.9,54.3z M38.2,21.6c4.7,1.2,13.5,1.9,23.8,1.9c9.4,0,16.3-0.4,20-1.3l0.3,11c-4.5,2.2-13.5,7.9-20,12.7l-8.9-6.1
		c2.1-1.4,2.2-1.5,5.7-3.6c0.9-0.6,1-0.6,1.7-1c0.5-0.3,0.6-0.3,1.2-0.6c-2.4,0.2-3.5,0.3-5.9,0.3c-5.5,0-9.1-0.2-16.2-0.9
		c-1.3-0.1-1.5-0.1-2.5-0.2L38.2,21.6z"/>
	<path class="st13" d="M86.4,31.9c2.9-0.3,4.7-0.6,9.5-1.7c14.7-3,20.2-3.8,27.5-3.8c7.6,0,13.5,1.5,17.9,4.5
		c5.6,4,8.9,10.4,8.9,17.9c0,10.6-6.2,19.7-16.8,24.8c-7.3,3.5-14.3,5.1-27,6.3c-1.7-6.5-2.3-7.8-5.1-13c8.9-0.1,15-0.9,20.5-2.5
		c5.7-1.7,9.7-4.3,12.4-8.1c1.6-2.2,2.3-4.5,2.3-7.2c0-2.9-0.9-5.2-2.7-7c-2.3-2.4-5.6-3.5-10.7-3.5c-7.6,0-16.3,1.6-27.7,5.1
		c-2.7,0.8-4.5,1.5-6.2,2.3L86.4,31.9z"/>
	<path class="st13" d="M172.3,54.3c-4.2,3.2-6.5,6.3-6.5,8.9c0,3.7,4.7,5.4,15.6,5.4c8.5,0,18.8-1.4,23.5-3.3l0.9,13.8
		c-1.9,0.1-1.9,0.1-7.1,0.7c-6,0.8-12,1.2-17.9,1.2c-8.1,0-13.9-0.8-18.3-2.6c-6.4-2.6-9.6-7-9.6-13c0-6.4,3.2-11.7,10.3-17.4
		L172.3,54.3z M157.6,21.6c4.7,1.2,13.5,1.9,23.8,1.9c9.4,0,16.3-0.4,20-1.3l0.3,11c-4.5,2.2-13.5,7.9-20,12.7l-8.9-6.1
		c2.1-1.4,2.2-1.5,5.7-3.6c0.9-0.6,1-0.6,1.7-1c0.5-0.3,0.6-0.3,1.2-0.6c-2.4,0.2-3.5,0.3-5.9,0.3c-5.5,0-9.1-0.2-16.2-0.9
		c-1.3-0.1-1.5-0.1-2.5-0.2L157.6,21.6z"/>
	<path class="st13" d="M205.9,31.9c2.9-0.3,4.7-0.6,9.5-1.7c14.7-3,20.2-3.8,27.5-3.8c7.6,0,13.5,1.5,17.9,4.5
		c5.6,4,8.9,10.4,8.9,17.9c0,10.6-6.2,19.7-16.8,24.8c-7.3,3.5-14.3,5.1-27,6.3c-1.7-6.5-2.3-7.8-5.1-13c8.9-0.1,15-0.9,20.5-2.5
		c5.7-1.7,9.7-4.3,12.4-8.1c1.6-2.2,2.3-4.5,2.3-7.2c0-2.9-0.9-5.2-2.7-7c-2.3-2.4-5.6-3.5-10.7-3.5c-7.6,0-16.3,1.6-27.7,5.1
		c-2.7,0.8-4.5,1.5-6.2,2.3L205.9,31.9z"/>
</g>
</svg>
