<?xml version="1.0" encoding="utf-8"?>
<!-- Generator: Adobe Illustrator 23.1.1, SVG Export Plug-In . SVG Version: 6.00 Build 0)  -->
<svg version="1.1" id="Layer_1" xmlns="http://www.w3.org/2000/svg" xmlns:xlink="http://www.w3.org/1999/xlink" x="0px" y="0px"
	 viewBox="0 0 300 100" style="enable-background:new 0 0 300 100;" xml:space="preserve">
<style type="text/css">
	.st0{fill:none;stroke:#231F20;stroke-width:1.5;stroke-linecap:round;stroke-miterlimit:10;}
	.st1{fill:none;stroke:#231F20;stroke-width:1.5;stroke-linecap:round;stroke-linejoin:round;stroke-miterlimit:10;}
	.st2{fill:none;stroke:#231F20;stroke-linecap:round;stroke-miterlimit:10;}
	.st3{fill:none;stroke:#231F20;stroke-linecap:round;stroke-miterlimit:10;stroke-dasharray:1.0302,2.0605;}
	.st4{fill:none;stroke:#231F20;stroke-linecap:round;stroke-miterlimit:10;stroke-dasharray:0.9778,1.9556;}
	.st5{fill:none;stroke:#231F20;stroke-linecap:round;stroke-miterlimit:10;stroke-dasharray:1.0721,2.1442;}
	.st6{fill:none;stroke:#231F20;stroke-linecap:round;stroke-miterlimit:10;stroke-dasharray:1,2;}
	.st7{fill:#231F20;}
	.st8{fill:none;stroke:#FFFFFF;stroke-width:2;stroke-linecap:round;stroke-miterlimit:10;}
	.st9{fill:#FFFFFF;}
	.st10{fill:#DFC669;}
	.st11{fill:#EF569F;}
	.st12{fill:none;stroke:#231F20;stroke-width:2;stroke-linecap:round;stroke-miterlimit:10;}
	.st13{fill:#036C9B;}
	.st14{fill:#08C792;}
	.st15{fill:#3F3F3F;}
	.st16{fill:#A3A3A5;}
	.st17{fill:#B21F25;}
	.st18{fill:#E87E57;}
	.st19{fill:#D1D0D5;}
	.st20{fill:#2394A0;}
	.st21{fill:#838080;}
	.st22{fill:#55AF2F;}
	.st23{fill:#9C8035;}
</style>
<g>
	<path class="st16" d="M79.9,25.4c-1.7,1.1-2.4,1.7-9.1,7.7c-4.2,3.7-10,8.4-17.6,14c-1.9,1.4-2.4,1.9-2.4,2.5c0,0.9,0,0.9,6.8,5.8
		c7.8,5.7,14,10.7,22,17.6c0.4,0.4,1.1,0.9,2.2,1.9L71.4,85.4c-1.7-2.4-3.3-4.2-7.1-7.8c-6.2-5.8-8.7-7.9-21.2-17.6
		c-3.6-2.8-4.9-4.1-5.8-5.9c-0.6-1.4-1.1-3.2-1.1-4.8c0-2.5,0.9-4.9,2.7-6.9c1-1.1,2.1-2,6.6-5.4c9.6-7.2,14-10.9,18.9-15.9
		c1.7-1.7,2.4-2.5,3.6-4.2L79.9,25.4z"/>
	<path class="st16" d="M126.1,37.8c6.8-0.9,10-1.1,19.1-1.1c0.5,0,2,0,3.5,0.1l0.2,12.2c-3.5-0.4-5.5-0.5-9.4-0.5
		c-7.9,0-13,0.4-20.2,1.8L118.5,40c-3.5,0.4-4.3,0.4-6.6,0.6c-1.2,6.8-2.5,12.1-4.5,19.6c-1.8,6.3-2.2,7.9-5.3,17.2
		c-1.2,3.5-1.2,3.5-1.7,5.2l-13.2-4.8c4.8-9.2,9.4-23.5,12.1-36.9c-0.5,0-0.9,0-1.2,0c-2.3,0-3.8-0.1-6.9-0.2c-0.1,0-0.4,0-0.7,0
		c-0.6,0-0.9,0-1.7,0.1L89.1,29c2.8,0.4,6.6,0.7,10.9,0.7c0.2,0,0.7,0,1.4,0c0.9-5.8,1.2-8.6,1.2-10.8c0-0.2,0-0.6,0-1.1l13.5,1
		c-0.4,1.4-0.6,2.2-0.9,4.2c-0.1,0.4-0.5,2.5-1.2,6.2c5-0.5,7.8-0.9,11.8-1.9L126.1,37.8z M128.6,57.6c-2.7,3.2-3.9,5.6-3.9,7.8
		c0,3.3,3,4.9,9,4.9c5.6,0,12.6-1.2,17-2.8l0.9,12.6c-1.4,0.1-2.1,0.2-3.8,0.4c-6.8,0.9-9.6,1.2-14,1.2c-14.1,0-21.2-4.5-21.2-13.6
		c0-4.2,1.7-8.2,5.6-14L128.6,57.6z"/>
	<path class="st16" d="M196.5,25.4c-1.7,1.1-2.4,1.7-9.1,7.7c-4.2,3.7-10,8.4-17.6,14c-1.9,1.4-2.4,1.9-2.4,2.5c0,0.9,0,0.9,6.8,5.8
		c7.8,5.7,14,10.7,22,17.6c0.4,0.4,1.1,0.9,2.2,1.9L188,85.4c-1.7-2.4-3.3-4.2-7.1-7.8c-6.2-5.8-8.7-7.9-21.2-17.6
		c-3.6-2.8-4.9-4.1-5.8-5.9c-0.6-1.4-1.1-3.2-1.1-4.8c0-2.5,0.9-4.9,2.7-6.9c1-1.1,2.1-2,6.6-5.4c9.6-7.2,14-10.9,18.9-15.9
		c1.7-1.7,2.4-2.5,3.6-4.2L196.5,25.4z"/>
	<path class="st16" d="M242.7,37.8c6.8-0.9,10-1.1,19.1-1.1c0.5,0,2,0,3.5,0.1l0.2,12.2c-3.5-0.4-5.5-0.5-9.4-0.5
		c-7.9,0-13,0.4-20.2,1.8L235.1,40c-3.5,0.4-4.3,0.4-6.6,0.6c-1.2,6.8-2.5,12.1-4.5,19.6c-1.8,6.3-2.2,7.9-5.3,17.2
		c-1.2,3.5-1.2,3.5-1.7,5.2l-13.2-4.8c4.8-9.2,9.4-23.5,12.1-36.9c-0.5,0-0.9,0-1.2,0c-2.3,0-3.8-0.1-6.9-0.2c-0.1,0-0.4,0-0.7,0
		c-0.6,0-0.9,0-1.7,0.1l0.2-11.7c2.8,0.4,6.6,0.7,10.9,0.7c0.2,0,0.7,0,1.4,0c0.9-5.8,1.2-8.6,1.2-10.8c0-0.2,0-0.6,0-1.1l13.5,1
		c-0.4,1.4-0.6,2.2-0.9,4.2c-0.1,0.4-0.5,2.5-1.2,6.2c5-0.5,7.8-0.9,11.8-1.9L242.7,37.8z M245.2,57.6c-2.7,3.2-3.9,5.6-3.9,7.8
		c0,3.3,3,4.9,9,4.9c5.6,0,12.6-1.2,17-2.8l0.9,12.6c-1.4,0.1-2.1,0.2-3.8,0.4c-6.8,0.9-9.6,1.2-14,1.2c-14.1,0-21.2-4.5-21.2-13.6
		c0-4.2,1.7-8.2,5.6-14L245.2,57.6z"/>
</g>
</svg>
