<?xml version="1.0" encoding="utf-8"?>
<!-- Generator: Adobe Illustrator 24.0.0, SVG Export Plug-In . SVG Version: 6.00 Build 0)  -->
<svg version="1.1" id="Layer_1" xmlns="http://www.w3.org/2000/svg" xmlns:xlink="http://www.w3.org/1999/xlink" x="0px" y="0px"
	 viewBox="0 0 16 16" style="enable-background:new 0 0 16 16;" xml:space="preserve">
<style type="text/css">
	.st0{fill:#FFFFFF;}
	.st1{fill:#1f1f1f;}
</style>
<path class="st0" d="M14,16H2c-1.1,0-2-0.9-2-2V2c0-1.1,0.9-2,2-2h12c1.1,0,2,0.9,2,2v12C16,15.1,15.1,16,14,16z"/>
<g>
	<path class="st1" d="M10.7,12.8c-0.1-0.4-0.2-0.9-0.3-1.3l-0.5-1.3H6.1l-0.5,1.3c-0.2,0.6-0.3,0.8-0.4,1.3h-2c0.2-0.3,0.4-0.9,0.6-1.4l2.6-6.9
		c0.2-0.6,0.3-0.9,0.4-1.2H9c0.1,0.3,0.1,0.5,0.4,1.2l2.7,6.9c0.3,0.8,0.4,1.1,0.6,1.4H10.7z M8.2,5.3C8.2,5.1,8.1,5,8,4.6
		C7.8,5.2,7.8,5.2,7.8,5.3L6.5,8.8h3L8.2,5.3z"/>
</g>
</svg>
