<?xml version="1.0" encoding="utf-8"?>
<!-- Generator: Adobe Illustrator 24.0.0, SVG Export Plug-In . SVG Version: 6.00 Build 0)  -->
<svg version="1.1" id="Layer_1" xmlns="http://www.w3.org/2000/svg" xmlns:xlink="http://www.w3.org/1999/xlink" x="0px" y="0px"
	 viewBox="0 0 16 16" style="enable-background:new 0 0 16 16;" xml:space="preserve">
<style type="text/css">
	.st0{fill:#FFFFFF;}
	.st1{fill:#1f1f1f;}
</style>
<path class="st0" d="M14,16H2c-1.1,0-2-0.9-2-2V2c0-1.1,0.9-2,2-2h12c1.1,0,2,0.9,2,2v12C16,15.1,15.1,16,14,16z"/>
<g>
	<path class="st1" d="M10.9,6c0,0.1,0,0.1-0.1,0.3c-0.1,0.3-0.1,0.3-0.2,0.5c0.5,0.1,0.8,0.3,1.2,0.6c0.8,0.6,1.1,1.3,1.1,2.3
		c0,1.3-0.7,2.3-2.1,3c-0.7,0.3-1.4,0.5-2.4,0.6c-0.1-0.5-0.2-0.7-0.6-1.4c1,0,1.6-0.1,2.3-0.5c1-0.5,1.4-1,1.4-1.9
		c0-0.8-0.5-1.4-1.3-1.7c-0.7,1.4-1.2,2.3-2.1,3.2c-1.1,1.1-2.1,1.7-3.1,1.7c-1.1,0-1.9-0.9-1.9-2.1c0-1,0.4-1.9,1.2-2.7
		C4.7,7.6,5.2,7.3,5.9,7c0-0.4,0-0.9,0-1.4c-0.1,0-0.8,0-1.9,0c-0.1,0-0.2,0-0.2,0c0,0-0.1,0-0.3,0V4.1C4,4.3,4.7,4.3,5.7,4.3
		c0,0,0,0,0.3,0c0-0.2,0-0.2,0-0.7c0-0.2,0-0.5,0-0.7c0,0,0-0.1,0-0.2l1.5,0.1C7.4,3.1,7.4,3.4,7.3,4.3c1.9-0.1,3.6-0.3,4.5-0.6
		L11.9,5c-0.2,0-0.2,0-0.5,0c-1.3,0.2-3.3,0.4-4.2,0.4c0,0.5,0,0.9-0.1,1.2c0.6-0.1,0.9-0.2,1.7-0.2c0.1,0,0.2,0,0.5,0
		c0.1-0.4,0.2-0.6,0.2-0.9L10.9,6z M4.9,9.2c-0.4,0.5-0.5,1-0.5,1.5c0,0.5,0.3,0.9,0.7,0.9c0.3,0,0.7-0.1,1-0.5
		C6,10.3,5.9,9.5,5.9,8.3C5.4,8.7,5.2,8.9,4.9,9.2z M7.3,10.2c0-0.1,0-0.1,0.1-0.2c0.6-0.6,1-1.4,1.5-2.4c-0.1,0-0.2,0-0.3,0
		c-0.5,0-1,0.1-1.4,0.2c0,1.1,0,1.2,0.1,2.1c0,0.1,0,0.1,0,0.2C7.3,10.1,7.3,10.1,7.3,10.2L7.3,10.2z"/>
</g>
</svg>
