<?xml version="1.0" encoding="utf-8"?>
<!-- Generator: Adobe Illustrator 24.0.0, SVG Export Plug-In . SVG Version: 6.00 Build 0)  -->
<svg version="1.1" id="Layer_1" xmlns="http://www.w3.org/2000/svg" xmlns:xlink="http://www.w3.org/1999/xlink" x="0px" y="0px"
	 viewBox="0 0 368 226" style="enable-background:new 0 0 368 226;" xml:space="preserve">
<style type="text/css">
	.st0{fill:#233E4C;}
</style>
<path class="st0" d="M114.2,226H6.2c-3.3,0-6-2.7-6-6V6c0-3.3,2.7-6,6-6h108c3.3,0,6,2.7,6,6v214C120.2,223.3,117.6,226,114.2,226z"
	/>
<path class="st0" d="M367.8,6v108c0,3.3-2.7,6-6,6h-214c-3.3,0-6-2.7-6-6V6c0-3.3,2.7-6,6-6l214,0C365.1,0,367.8,2.7,367.8,6z"/>
<g>
	<defs>
		<path id="SVGID_1_" d="M110.4,219.3H10.1c-1.7,0-3-1.3-3-3V9.7c0-1.7,1.3-3,3-3h100.3c1.7,0,3,1.3,3,3v206.6
			C113.4,218,112.1,219.3,110.4,219.3z"/>
	</defs>
	<clipPath id="SVGID_2_">
		<use xlink:href="#SVGID_1_"  style="overflow:visible;"/>
	</clipPath>
	<g style="clip-path:url(#SVGID_2_);">
		
			<image style="overflow:visible;" width="1080" height="2160" xlink:href="../../../../../Downloads/Photos/Screenshot_20191123-162741.png"  transform="matrix(9.843750e-02 0 0 9.843750e-02 7.0938 6.6875)">
		</image>
	</g>
</g>
<g>
	<defs>
		<path id="SVGID_3_" d="M358.1,113.2H151.4c-1.7,0-3-1.3-3-3V9.8c0-1.7,1.3-3,3-3h206.6c1.7,0,3,1.3,3,3v100.3
			C361.1,111.8,359.7,113.2,358.1,113.2z"/>
	</defs>
	<clipPath id="SVGID_4_">
		<use xlink:href="#SVGID_3_"  style="overflow:visible;"/>
	</clipPath>
	<g transform="matrix(1 0 0 1 0 4.768372e-07)" style="clip-path:url(#SVGID_4_);">
		
			<image style="overflow:visible;" width="2160" height="1080" xlink:href="../../../../../Downloads/Photos/Screenshot_20191123-162711.png"  transform="matrix(9.843750e-02 0 0 9.843750e-02 148.4375 6.8438)">
		</image>
	</g>
</g>
</svg>
