<?xml version="1.0" encoding="utf-8"?>
<!-- Generator: Adobe Illustrator 23.1.1, SVG Export Plug-In . SVG Version: 6.00 Build 0)  -->
<svg version="1.1" id="Layer_1" xmlns="http://www.w3.org/2000/svg" xmlns:xlink="http://www.w3.org/1999/xlink" x="0px" y="0px"
	 viewBox="0 0 40 40" style="enable-background:new 0 0 40 40;" xml:space="preserve">
<style type="text/css">
	.st0{fill:#FFFFFF;}
</style>
<g>
	<g>
		<path class="st0" d="M16.9,10.9c-0.3,0-0.4,0-0.8,0.1c-0.8,0.2-2.2,0.3-3.2,0.4v1.9c1.3-0.3,2-0.4,3.1-0.4c2.6,0,4.6,0.7,5.8,1.9
			c1,1,1.5,2.3,1.5,3.8c0,3-2.3,5.3-5.4,5.3c-2.7,0-4.2-1.8-4.2-4.9c0-0.1,0-0.3,0-0.5c1.6-0.5,2.1-0.7,3.3-1.3c0,0.5,0,0.7,0,1.1
			c0,0.7,0,1,0.2,1.4c0.2,0.4,0.5,0.7,1,0.7c0.9,0,1.6-0.8,1.6-1.9c0-0.7-0.4-1.5-1.1-1.9c-0.6-0.4-1.4-0.6-2.5-0.6
			c-1.1,0-1.9,0.1-3.2,0.4l0,3.8v0.6c0,1.3-0.1,1.8-0.4,2.2c-0.4,0.6-1.2,1-2.2,1c-1.6,0-3.4-0.7-4.6-1.7c-0.9-0.8-1.4-1.8-1.4-2.8
			c0-1.2,0.7-2.4,2-3.6c0.9-0.8,1.8-1.3,3.2-1.9v-2.5l-1.6,0l-2.1,0c-0.1,0-0.3,0-0.5,0l0-3.4C6,8.4,6.9,8.4,8.3,8.4
			c0.1,0,0.2,0,0.8,0c0.3,0,0.3,0,0.4,0V7.7c0-1.6,0-2.1-0.2-2.9h3.7c-0.1,0.8-0.1,1.3-0.1,2.7v0.7c1.5-0.2,2.8-0.4,3.9-0.7
			L16.9,10.9z M9.5,17.7c-1,0.5-1.8,1.3-1.8,1.9c0,0.3,0.2,0.5,0.5,0.7c0.3,0.2,0.7,0.3,1,0.3c0.3,0,0.3-0.2,0.3-0.9L9.5,17.7
			L9.5,17.7z M21.5,12.9c-1.1-1.9-2.3-3.4-4.2-5.1L20.1,6c1.8,1.5,3.2,3,4.2,4.8L21.5,12.9z"/>
	</g>
	<path class="st0" d="M16.3,27.5c0.7-0.4,2-1.9,4.7-5.3c0.8-1,1.3-1.4,1.8-1.7c0.5-0.3,1-0.4,1.6-0.4c1.2,0,1.8,0.4,3.5,2.3
		c2.7,3,3.9,4.3,6.4,6.5c1.2,1.1,1.6,1.4,2.2,1.9l-1.8,4c-3-2.8-4.9-4.8-9.4-10c-0.3-0.4-0.5-0.5-0.8-0.5c-0.3,0-0.3,0-1.1,1.1
		c-1.2,1.6-2.3,3-3.8,4.7c-0.2,0.3-0.4,0.5-0.8,1L16.3,27.5z M34.8,21c0,1.3-1,2.4-2.3,2.4s-2.4-1.1-2.4-2.4c0-1.3,1-2.4,2.4-2.4
		C33.8,18.7,34.8,19.7,34.8,21z M31.3,21c0,0.6,0.6,1.2,1.2,1.2c0.6,0,1.2-0.6,1.2-1.2c0-0.6-0.6-1.2-1.2-1.2
		C31.9,19.9,31.3,20.4,31.3,21z"/>
</g>
</svg>
