<?xml version="1.0" encoding="utf-8"?>
<!-- Generator: Adobe Illustrator 23.0.6, SVG Export Plug-In . SVG Version: 6.00 Build 0)  -->
<svg version="1.1" id="Layer_1" xmlns="http://www.w3.org/2000/svg" xmlns:xlink="http://www.w3.org/1999/xlink" x="0px" y="0px"
	 viewBox="0 0 300 100" style="enable-background:new 0 0 300 100;" xml:space="preserve">
<style type="text/css">
	.st0{fill:none;stroke:#000000;stroke-linecap:round;stroke-miterlimit:10;}
	.st1{fill:none;stroke:#000000;stroke-linecap:round;stroke-miterlimit:10;stroke-dasharray:1.0302,2.0605;}
	.st2{fill:none;stroke:#000000;stroke-linecap:round;stroke-miterlimit:10;stroke-dasharray:0.9778,1.9556;}
	.st3{fill:none;stroke:#000000;stroke-linecap:round;stroke-miterlimit:10;stroke-dasharray:1.0721,2.1442;}
	.st4{fill:none;stroke:#000000;stroke-linecap:round;stroke-miterlimit:10;stroke-dasharray:1,2;}
	.st5{fill:none;stroke:#FFFFFF;stroke-width:2;stroke-linecap:round;stroke-miterlimit:10;}
	.st6{fill:#FFFFFF;}
</style>
<g>
	<path class="st6" d="M21.2,29.4c-4.1,0.6-8.2,1-12.5,1.2l-0.5-0.4l-0.4-7.9l0.5-0.5c4.5-0.2,8.8-0.5,12.9-1.1l0.1-11.4l0.5-0.5h8.5
		l0.5,0.4l-0.1,9.9c2.7-0.6,5.1-1.2,7.7-2l0.5,0.3l0.8,7.9L39.1,26c-2.9,0.6-5.8,1.4-8.7,1.9l-0.1,6.3c4.1-1.5,9-2.9,13.7-2.9
		c10.7,0,16.2,6.7,16.2,14c0,9.9-6.8,15.3-16.4,15.3c-3.8,0-6.7-0.6-9.3-2.2c-0.4-0.3-0.5-0.8-0.3-1.2l2-7.9c2.2,1,4.8,1.9,7.1,1.8
		c3.8-0.1,6.6-2.1,6.6-5.9c0-3.3-2.5-5.7-7-5.7c-4,0-7.8,1.2-12.4,3.5v14.6c0,3.6-2,6-7,6c-4.2,0-16.2-5.7-16.2-12.1
		c0-4,6.5-10.7,13.8-14.3L21.2,29.4z M21.3,46.8c-2.9,1.7-4.7,3.5-4.7,4.4c0,1.2,2.9,2.8,4,2.8c0.6,0,0.8-0.3,0.8-1.2V46.8z
		 M44.9,21.5l4.6-6.8l0.7-0.1c5.6,1.8,11,4.7,15.1,8.9l0.1,0.7l-4.9,6.9l-0.7,0.2c-4.2-4.2-8.5-7.2-14.7-9.2L44.9,21.5z"/>
</g>
<g>
	<path class="st6" d="M67.6,88.7c14-2.3,20.3-9,20.3-16.8c0-9.9-5.5-16.1-12.1-17.5c-1.3,12.3-5.5,23.7-10,30.3
		c-3.5,5.1-7.1,7-12.2,7c-3.9,0-6.7-1.9-9.2-5.8c-1.9-2.9-3.2-6.5-3.2-11.8c0-15.7,11.8-28.5,29.6-28.5c17.7,0,27.2,11.9,27.2,26.3
		c0,11.8-8.3,20.8-22.1,24.1c-0.9,0.1-1.4,0.1-2.1-0.6L67.6,88.7z M50.2,74.1c0,2.1,0.4,3.7,1.1,4.9c0.7,1.3,1.6,2.1,2.7,2.1
		c1.5,0,3.4-1.5,5.1-5c3.6-7.3,5.5-14.2,6.4-22.1C56.1,55.7,50.2,64.1,50.2,74.1z"/>
</g>
<g>
	<path class="st6" d="M83.6,26.2c5.1,0.6,10.4,0.7,15.9,0.4c-0.1-2.1,0-4.2-0.2-6.2c-4.8,0.3-9.5,0.2-14.3-0.1l-0.5-0.6l0.2-7.2
		l0.5-0.4c4.5,0.3,9.2,0.3,14,0.1c0-2.7,0-5.4,0.1-8.4l0.5-0.5h8.8l0.5,0.5c-0.1,2.5-0.1,5.1-0.2,7.5c3.6-0.5,6.9-1.1,9.9-1.8
		l0.5,0.5l0.8,6.8l-0.5,0.5c-3.5,0.9-7.2,1.7-10.8,2.2c0,2.1,0,4.1,0.1,6.2c4.2-0.7,8.2-1.6,12-2.7l0.6,0.4l1,7.3l-0.3,0.6
		c-4.4,1.2-8.8,2.1-13.1,2.8c0.1,3.1,0.3,5.9,0.5,8.6c6.6,2.7,12,6.2,18.1,11v0.7l-5.7,6.9h-0.7c-3.7-3.5-8.8-7.3-11.8-9
		c-0.4,7-6,9.8-15.1,9.8c-6.2,0-13.5-2.8-13.5-10.4c0-8.8,9.4-11,19.3-10.5c-0.1-2-0.3-4-0.3-5.9c-6.1,0.4-11.8,0.3-17.6-0.3
		l-0.4-0.5l1.2-7.6L83.6,26.2z M95.3,48.3c-3.4,0-5.6,1.4-5.6,2.6c0,1.6,1.4,2.7,5.6,2.7c3.6,0,4.9-1.6,4.7-4.5
		C98.5,48.5,97.5,48.3,95.3,48.3z"/>
</g>
<g>
	<path class="st6" d="M288.4,94.6c-6,0.5-140.3,0.7-148.5,0.7c-15.6,0-23.1-4.7-23.1-15c0-5.9,4.9-11.6,11.8-16.4
		c-3.2-4.6-6.6-10.3-9.5-15.5l0.1-0.7l7.9-4.1l0.7,0.2c2.9,5.2,6.1,10.7,9.2,15.1c5.9-3,12.5-5.8,19-8.2l0.6,0.3l3.8,8.5l-0.3,0.5
		c-5.7,1.9-11.4,4.1-15.2,5.7c-1,0.8-1.6,1.7-1.8,3.2c-0.2,2.6-2.7,4.2-4.7,4.2c-1.8,0-3.2-0.6-4.5-1.8c-5.1,2.9-7.3,5.7-7.3,8.7
		c0,4.4,5.5,5.3,13.2,5.3c5.7,0,140.1-0.5,148-1.3l0.5,0.4l0.3,9.3L288.4,94.6z"/>
</g>
<g>
	<path class="st6" d="M136.8,42.6l-7-6.1l-0.1-0.6c6.1-6.2,11.1-11.4,13.7-14c2.3-2.3,4.3-3.5,5.9-3.5c2,0,4.2,1.3,7,3.1
		c9.6,6.2,18.3,12.5,27,19.6l0.1,0.7l-5.9,7.2l-0.6,0.1c-8-6.8-16.3-13.6-23.7-18.7c-1.7-1.1-2.1-1.4-2.9-1.4
		c-0.7,0-1.6,0.6-2.8,1.9c-3.8,4.3-7,7.9-10.2,11.7L136.8,42.6z M178.2,16.7c0,3.3-2.8,6.1-6.1,6.1c-3.4,0-6.1-2.8-6.1-6.1
		c0-3.4,2.8-6.1,6.1-6.1C175.4,10.6,178.2,13.3,178.2,16.7z M169.3,16.7c0,1.5,1.3,2.7,2.8,2.7c1.5,0,2.7-1.2,2.7-2.7
		c0-1.6-1.2-2.8-2.7-2.8C170.6,13.9,169.3,15.1,169.3,16.7z"/>
	<path class="st6" d="M231.5,18.4c0.4,0.5,0.7,0.7,0.7,1.1c0,0.2-0.1,0.5-0.3,1c-2.8,6.1-6,11.6-9.5,16.3c1.9,1.6,3.8,3.4,5.7,5.3
		v0.7l-5.8,6.5l-0.5,0.1c-1.7-1.9-3.5-3.7-5.3-5.4c-5.5,5.6-12,10.2-20.2,14.3c-0.5,0.3-0.9,0.4-1.1,0.4c-0.4,0-0.8-0.2-1.4-0.6
		l-7-4.8c9.7-4.1,17.3-9.3,23.1-15.1c-2-1.6-4.3-3.1-6.7-4.6v-0.6l5.1-5.6l0.7-0.1c2.2,1.3,4.4,2.6,6.4,4c2.1-2.9,4-6.2,5.3-9.4
		L208.9,22c-3.9,5.4-8,10-12.2,13.9c-1.1,0.8-1.4,0.8-2.5,0.1l-6.5-4.2c8-6.2,15.2-14.9,19.4-24.6l0.6-0.2l8.2,2.9l0.1,0.7
		c-0.7,1.3-1.4,2.6-2.1,3.8l8.2-0.1l4.9-0.4L231.5,18.4z M225.9,8.9l3.1-2.2l0.6-0.1c2.2,1.9,4.3,4,6.1,6.4l-0.1,0.6l-3.3,2.3h-0.6
		c-1.9-2.5-3.5-4.4-5.9-6.5L225.9,8.9z M231.5,5.2l3.1-2.2l0.6-0.1c2.2,1.9,4.1,3.8,5.9,6.2l-0.1,0.6l-3.1,2.3h-0.6
		c-1.9-2.5-3.5-4.2-5.9-6.2L231.5,5.2z"/>
	<path class="st6" d="M232.5,49.4c8-6.9,12.5-17.1,13-30.5l0.5-0.4l8.5,0.7l0.5,0.5c-0.7,14.3-5.5,25.1-12.5,32.9
		c-0.6,0.6-0.9,0.8-1.3,0.8c-0.2,0-0.5-0.1-1-0.3L232.5,49.4z M268,38.5c7.2-4.9,13.6-10.9,18.5-17.1l2.6,8.8c0.2,0.6,0.3,1,0.3,1.3
		c0,0.4-0.2,0.7-0.5,1.1c-5.8,6.4-12.4,12.1-22.7,18.7c-0.7,0.4-1,0.6-1.4,0.6c-0.3,0-0.5-0.2-1-0.5l-5.8-4.7l0.5-6.8V14.1l0.5-0.4
		h8.5l0.5,0.5V38.5z"/>
</g>
<g>
	<path class="st6" d="M178.6,73c0,4.5-2.2,6.4-5.3,6.4S168,77.5,168,73c0-4.5,2.2-6.4,5.3-6.4S178.6,68.5,178.6,73z M175.5,73
		c0-3.2-0.8-4.3-2.2-4.3c-1.4,0-2.2,1.2-2.2,4.3c0,3.2,0.8,4.3,2.2,4.3C174.7,77.3,175.5,76.2,175.5,73z"/>
	<path class="st6" d="M182.8,71.4c0.5-0.9,1.5-1.4,2.6-1.4c1.6,0,2.9,1,2.9,3.1v6.2h-2.7v-5.6c0-1.2-0.4-1.7-1.3-1.7
		c-0.8,0-1.4,0.5-1.4,1.7v5.6h-2.7v-9.1h2.5L182.8,71.4L182.8,71.4z"/>
	<path class="st6" d="M198.7,74.6c0,3.4-1.9,4.8-4.5,4.8c-2.5,0-4.5-1.4-4.5-4.6c0-3.4,1.9-4.9,4.5-4.9
		C196.7,70,198.7,71.4,198.7,74.6z M195.9,74.7c0-1.5-0.5-2.7-1.7-2.7c-1.1,0-1.7,0.8-1.7,2.8c0,1.5,0.5,2.7,1.7,2.7
		C195.3,77.4,195.9,76.5,195.9,74.7z"/>
	<path class="st6" d="M202.7,71.4c0.5-0.9,1.5-1.4,2.6-1.4c1.2,0,2.1,0.5,2.5,1.7c0.5-1.2,1.6-1.7,2.9-1.7c1.6,0,2.9,1,2.9,3.1v6.2
		h-2.7v-5.6c0-1.2-0.4-1.7-1.3-1.7c-0.8,0-1.4,0.5-1.4,1.7v5.6h-2.7v-5.6c0-1.2-0.4-1.7-1.3-1.7c-0.8,0-1.4,0.5-1.4,1.7v5.6h-2.7
		v-9.1h2.5L202.7,71.4L202.7,71.4z"/>
	<path class="st6" d="M224,74.6c0,3.4-1.9,4.8-4.5,4.8c-2.5,0-4.5-1.4-4.5-4.6c0-3.4,1.9-4.9,4.5-4.9C222,70,224,71.4,224,74.6z
		 M221.2,74.7c0-1.5-0.5-2.7-1.7-2.7c-1.1,0-1.7,0.8-1.7,2.8c0,1.5,0.5,2.7,1.7,2.7C220.6,77.4,221.2,76.5,221.2,74.7z"/>
	<path class="st6" d="M228,71.4c0.5-0.9,1.5-1.4,2.6-1.4c1.6,0,2.9,1,2.9,3.1v6.2h-2.7v-5.6c0-1.2-0.4-1.7-1.3-1.7
		c-0.8,0-1.4,0.5-1.4,1.7v5.6h-2.7v-9.1h2.5L228,71.4L228,71.4z"/>
	<path class="st6" d="M243.9,74.6c0,3.4-1.9,4.8-4.5,4.8c-2.5,0-4.5-1.4-4.5-4.6c0-3.4,1.9-4.9,4.5-4.9
		C241.9,70,243.9,71.4,243.9,74.6z M241.1,74.7c0-1.5-0.5-2.7-1.7-2.7c-1.1,0-1.7,0.8-1.7,2.8c0,1.5,0.5,2.7,1.7,2.7
		C240.5,77.4,241.1,76.5,241.1,74.7z"/>
	<path class="st6" d="M249.7,66.8c3,0,4.6,1.3,4.6,4.1c0,3.1-2,4.4-4.9,4.4h-1v4h-2.8V66.8H249.7z M249.6,73.2c1,0,1.7-0.6,1.7-2.2
		c0-1.5-0.7-2.2-1.7-2.2h-1.2v4.4H249.6z"/>
	<path class="st6" d="M263.1,75.5h-5.4c0.2,1.5,0.8,2.1,1.6,2.1c0.6,0,1-0.4,1.2-1.2l2.4,0.7c-0.8,1.8-2.1,2.3-3.6,2.3
		c-2.8,0-4.3-1.6-4.3-4.6c0-3.3,1.7-4.9,4.1-4.9c2.9,0,4.1,1.9,4.1,4.1V75.5z M260.6,73.7c0-1.2-0.6-1.9-1.4-1.9
		c-0.7,0-1.3,0.4-1.5,1.9H260.6z"/>
	<path class="st6" d="M272.7,66.4v12.8h-2.6v-0.1c0-0.3,0-0.5,0.1-0.9h-0.1c-0.6,0.7-1.4,1.2-2.4,1.2c-2.4,0-3.7-1.7-3.7-4.8
		c0-2.7,1.6-4.7,3.8-4.7c0.9,0,1.7,0.4,2.2,1h0c-0.1-0.7-0.2-1.1-0.2-2.5v-2.1H272.7z M270.1,74.6c0-1.8-0.5-2.7-1.7-2.7
		c-1,0-1.6,1-1.6,2.7c0,1.7,0.6,2.8,1.7,2.8C269.5,77.4,270.1,76.4,270.1,74.6z"/>
	<path class="st6" d="M282.2,76.2c0,0.6,0.2,0.8,0.6,0.8c0.1,0,0.2,0,0.2,0V79c-0.5,0.2-0.9,0.3-1.5,0.3c-1,0-1.5-0.4-1.7-1
		c-0.5,0.8-1.4,1.2-2.6,1.2c-1.9,0-3-1-3-2.7c0-1.9,1.5-2.9,3.9-2.9c0.4,0,0.8,0,1.3,0.1v-0.5c0-1.1-0.4-1.6-1.2-1.6
		c-0.8,0-1.2,0.5-1.3,1.5l-2.3-0.4c0.4-1.8,1.8-2.8,3.9-2.8c2.3,0,3.7,1.2,3.7,3.3V76.2z M279.4,75.7c-0.3-0.1-0.7-0.1-1.1-0.1
		c-0.8,0-1.4,0.4-1.4,1.1c0,0.5,0.4,0.9,1.1,0.9C279,77.6,279.4,77,279.4,75.7z"/>
	<path class="st6" d="M286.9,76.7c0,0.5,0.2,0.8,0.6,0.8c0.1,0,0.2,0,0.3,0v1.8c-0.3,0.1-0.8,0.2-1.2,0.2c-1.4,0-2.4-0.5-2.4-2.2
		V66.4h2.7V76.7z"/>
</g>
</svg>
