<?xml version="1.0" encoding="utf-8"?>
<!-- Generator: Adobe Illustrator 23.0.6, SVG Export Plug-In . SVG Version: 6.00 Build 0)  -->
<svg version="1.1" id="Layer_1" xmlns="http://www.w3.org/2000/svg" xmlns:xlink="http://www.w3.org/1999/xlink" x="0px" y="0px"
	 viewBox="0 0 300 100" style="enable-background:new 0 0 300 100;" xml:space="preserve">
<style type="text/css">
	.st0{fill:#000000;}
</style>
<g>
	<path class="st0" d="M139.2,34.9c0.3,4.3,1.8,12.1,3.7,19.2c2.9-1,4.8-1.7,7.5-2.4c6.2-1.8,6.2-1.8,8.5-2.5c1.5-0.5,1.8-0.5,2.7-1
		l3.7,11.6c-6.4,1-15.5,3.4-23.3,6c-8.3,2.9-12.6,6.4-12.6,10.2c0,4,3.9,5.7,12.9,5.7c5.9,0,138.1-0.8,144-2.1c1-0.2,1.6-0.4,3.4-1
		l0.8,12.4c-1.5,0.4-2.3,0.4-5.7,0.5c-8.4,0.4-136.6,1.1-141.4,1.1c-9.4,0-15.9-1.4-20.2-4.1c-3.7-2.4-6-7.1-6-12.2
		c0-5,2.5-10,6.7-13.4c2.3-1.8,4.2-2.9,8.1-4.9c-1.6-5.7-1.9-7.2-3.8-17.1c-0.6-3-0.7-3.4-1-4.3L139.2,34.9z"/>
</g>
<g>
	<path class="st0" d="M46.6,22.3c-1,0.1-1.2,0.1-2.5,0.4c-2.5,0.5-6.6,1-9.8,1.3v5.7c3.8-0.8,6-1.1,9.5-1.1c8,0,14,2,17.7,5.9
		c2.9,2.9,4.4,7,4.4,11.5c0,9.2-7,16.1-16.2,16.1c-8.1,0-12.7-5.4-12.7-14.8c0-0.3,0-0.9,0-1.6c4.7-1.4,6.3-2,9.9-4
		c-0.1,1.4-0.1,2.1-0.1,3.4c0,2,0.1,3.1,0.5,4.1c0.5,1.2,1.6,2,2.9,2c2.8,0,4.7-2.3,4.7-5.6c0-2.2-1.2-4.4-3.2-5.7
		c-1.8-1.1-4.3-1.7-7.7-1.7c-3.2,0-5.9,0.3-9.6,1.3l0.1,11.5v1.7c0,4-0.3,5.4-1.2,6.8c-1.2,1.8-3.7,2.9-6.6,2.9
		c-4.8,0-10.3-2-14-5.1c-2.7-2.3-4.2-5.3-4.2-8.5c0-3.5,2.1-7.3,6-10.8c2.6-2.3,5.3-3.9,9.7-5.8v-7.7l-4.9,0.1l-6.3-0.1
		c-0.2,0-0.8,0-1.4,0.1l-0.1-10.2c2.1,0.4,4.7,0.6,8.9,0.6c0.4,0,0.5,0,2.5,0c0.9-0.1,0.9-0.1,1.3-0.1v-2.1c0-4.9-0.1-6.4-0.5-8.8
		h11.2c-0.3,2.3-0.4,3.8-0.4,8.1v2.1c4.4-0.5,8.5-1.2,11.9-2.2L46.6,22.3z M24,42.9c-3.1,1.4-5.4,4-5.4,5.8c0,0.8,0.5,1.4,1.4,2.1
		c0.9,0.6,2.1,1,2.9,1c0.8,0,1-0.5,1-2.6V42.9z M60.4,28.6c-3.3-5.8-7-10.2-12.8-15.3l8.6-5.8c5.5,4.5,9.6,9,12.8,14.4L60.4,28.6z"
		/>
</g>
<g>
	<path class="st0" d="M74,26.3c3.8,0.9,10.5,1.4,18.7,1.4c0.8,0,1.6,0,3.6-0.1c-0.1-4.3-0.1-5.5-0.4-7.1h11.4
		c-0.3,1.8-0.3,2.2-0.5,6.8c8.6-0.5,14.7-1.2,18.5-2.3l0.3,9.9c-1.9,0.1-2.3,0.1-5.7,0.6c-4.4,0.6-8,0.9-13.1,1.1c0,1.6,0,1.6,0,4.1
		c7.3-0.4,12.3-1,16.8-2l0.3,9.9c-1.4,0.1-1.4,0.1-4.2,0.3c-2.9,0.3-9.2,0.8-12.7,0.9c0.1,3,0.1,3,0.2,5.7c3.4,0.9,5.5,1.7,8.9,3.5
		c3.3,1.8,4.1,2.2,8.7,5.4c1,0.7,1.4,0.9,2.5,1.6L121,76.6c-2-2.1-2-2.1-4.4-4.2c-3.1-2.6-6.2-4.6-9.2-5.8c0,2.9-0.5,4.9-1.6,6.6
		c-2.1,3.3-7.1,5.1-14.2,5.1C81,78.3,75,74,75,66.4c0-4.7,3-8.6,8.2-10.6c3.1-1.2,7-1.8,11.6-1.8c0.8,0,1,0,2,0
		c-0.1-2.2-0.1-3.5-0.1-3.8c-1.4,0-4,0.1-5,0.1c-3.8,0-6.8-0.1-10.5-0.3c-2.9-0.1-3.2-0.2-5.1-0.2l0.1-9.7c2.9,0.6,9.4,1,16,1
		c1.4,0,2.3,0,4.4-0.1c0-0.5,0-0.7,0-1c0-0.1,0-0.1-0.1-1.7c0-0.9,0-0.9,0-1.6C94.9,37,94.3,37,93.7,37c-3.5,0-4.6-0.1-12.1-0.4
		c-2.5-0.1-2.5-0.1-4.9-0.2c-0.9-0.1-1.6-0.1-1.8-0.1c-0.3,0-0.6,0-1.1,0L74,26.3z M92.8,63.3c-4,0-6.2,1.1-6.2,3.1
		c0,1.6,1.8,2.6,5.1,2.6c3.6,0,5.2-1.2,5.2-4.2c0-0.4-0.1-1.1-0.1-1.1C95.2,63.4,94.3,63.3,92.8,63.3z"/>
</g>
<g>
	<path class="st0" d="M61.9,82.2c-2.6,5.8-5.6,8.3-9.7,8.3c-6,0-10.3-5.8-10.3-14c0-5.3,1.8-10,5.2-13.7c4-4.3,9.7-6.6,16.3-6.6
		c6,0,11.3,2,14.7,5.5c2.9,3.1,4.4,7.4,4.4,12.5c0,5.9-2.2,11.2-6,14.5c-3.1,2.7-6.6,4.2-12.9,5.2c-1.1-3.2-1.9-4.9-3.8-7.4
		c4.2-0.3,7-1,9.4-2.3c3.5-1.8,5.4-5.6,5.4-10.4c0-3.8-1.4-6.9-4-8.9c-1.2-0.9-2.2-1.3-3.8-1.6C65.8,71.1,64.3,76.9,61.9,82.2z
		 M54.1,65.8c-3,2.5-4.9,6.7-4.9,10.7c0,3.2,1.2,5.7,2.8,5.7c1.1,0,2.3-1.6,3.6-5c1.6-4,2.9-9.3,3.4-13.7
		C57.2,63.7,55.7,64.4,54.1,65.8z"/>
</g>
<g>
	<path class="st0" d="M143.7,35.7c1.7-1,5.1-4.8,11.7-13.2c1.9-2.4,3.2-3.6,4.4-4.3c1.2-0.7,2.5-1,4-1c3.1,0,4.6,1,8.8,5.8
		c6.8,7.6,9.8,10.7,15.9,16.2c2.9,2.7,3.9,3.5,5.6,4.7l-4.6,10c-7.6-7.1-12.2-11.9-23.6-24.9c-0.8-0.9-1.3-1.2-1.9-1.2
		c-0.7,0-0.7,0-2.8,2.7c-3,3.9-5.7,7.4-9.4,11.8c-0.6,0.7-1,1.3-1.9,2.4L143.7,35.7z M189.9,19.6c0,3.2-2.6,5.9-5.8,5.9
		c-3.2,0-5.9-2.7-5.9-5.9c0-3.3,2.6-5.9,5.9-5.9C187.3,13.8,189.9,16.4,189.9,19.6z M181.2,19.6c0,1.6,1.4,2.9,2.9,2.9
		c1.6,0,3-1.4,3-2.9c0-1.6-1.4-3-2.9-3C182.5,16.7,181.2,18,181.2,19.6z"/>
	<path class="st0" d="M236.9,21.1c-0.6,1-0.7,1.1-1.5,3.6C230,41,220.9,51,205.4,58c-1.7-3.1-3.4-5.3-6.1-7.8
		c7.4-2.5,13.5-6.2,17.6-10.7c-2.9-2.4-6.2-4.6-9.7-6.4l5.5-6.6c4.4,2.4,6.5,3.7,9.6,5.9c1.9-2.9,3.5-6.4,4.5-9.5L212.4,23
		c-2.7,4.7-7.1,10-11.9,14.1c-2.2-2.5-4.4-4.2-7.5-5.9c7.9-6,13.7-14.1,16-22.2l9.3,1.8c-0.5,1-1.2,2.4-2.2,4.5l12.1-0.1h0.9
		c-0.6-1.4-1.3-2.7-2.3-4.4l5.3-1.4c1.6,2.5,2.7,4.8,3.7,7.9l-1.8,0.5L236.9,21.1z M239.3,7.7c1.6,2.4,2.4,4.3,3.7,7.7l-5,1.6
		c-1.4-3.7-2.3-5.6-3.7-7.9L239.3,7.7z"/>
	<path class="st0" d="M257.5,12.2c-0.2,1.8-0.2,1.8-0.6,12.1c-0.3,10.9-1.4,16.6-3.8,22.3c-1.7,3.8-3.7,6.7-7.2,10.4
		c-2.7-3.5-4.1-4.9-7.4-7.3c3-2.7,4.6-4.8,6.2-8.3c2.4-5.1,3.3-11.5,3.3-25c0-2.3-0.1-3.4-0.2-4.8L257.5,12.2z M272.2,11.4
		c-0.3,2.1-0.4,3-0.4,6l-0.3,27.2c2.8-1.8,4.5-3.3,6.2-5.7c1.9-2.7,3.1-5.4,4.1-8.9c2.6,3.2,4,4.6,6.9,6.9c-2.3,5.8-5,9.8-9,13.2
		c-3.1,2.7-5.7,4-10.9,5.9c-1.5,0.5-1.9,0.7-2.5,1.1l-4.5-4.7c0.5-1.4,0.6-2.2,0.6-4.4l0.3-30.8v-1.9c0-1.7-0.1-2.8-0.2-4.1H272.2z"
		/>
</g>
<g>
	<path class="st0" d="M177.8,68.8c0,3.7-2.3,6.1-5.7,6.1c-3.4,0-5.6-2.4-5.6-6.1c0-3.7,2.2-6.1,5.7-6.1
		C175.6,62.8,177.8,65.1,177.8,68.8z M174.9,68.8c0-2.3-1-3.6-2.7-3.6c-1.7,0-2.8,1.4-2.8,3.6c0,2.3,1.1,3.7,2.8,3.7
		C173.8,72.5,174.9,71.1,174.9,68.8z"/>
	<path class="st0" d="M179.3,74.7c0.1-0.7,0.1-1.2,0.1-2.1v-4.3c0-1,0-1.6-0.1-2.1h2.8v0.6c0,0.1,0,0.3,0,0.4
		c0.9-0.8,1.7-1.2,2.9-1.2c1,0,1.7,0.3,2.3,0.8c0.6,0.6,0.8,1.2,0.8,2.4v3.5c0,0.8,0,1.5,0.1,2.1h-2.9c0.1-0.7,0.1-1.3,0.1-2.1v-2.9
		c0-0.6-0.1-0.8-0.2-1c-0.2-0.3-0.5-0.4-0.9-0.4c-0.8,0-1.5,0.5-2.1,1.5v2.8c0,0.8,0,1.4,0.1,2.1H179.3z"/>
	<path class="st0" d="M189.5,70.4c0-2.8,1.8-4.6,4.6-4.6c2.8,0,4.6,1.8,4.6,4.6c0,2.8-1.8,4.6-4.6,4.6
		C191.3,75,189.5,73.2,189.5,70.4z M192.2,70.4c0,1.6,0.7,2.5,1.9,2.5s1.9-0.9,1.9-2.5c0-1.6-0.7-2.5-1.9-2.5
		C192.9,67.9,192.2,68.8,192.2,70.4z"/>
	<path class="st0" d="M200.2,74.7c0.1-0.6,0.1-1.2,0.1-2.1v-4.3c0-1.1,0-1.6-0.1-2.1h2.8v0.6c0,0.1,0,0.1,0,0.2c0,0,0,0,0,0.1
		c0,0,0,0,0,0.1c0.7-0.8,1.6-1.1,2.7-1.1c0.7,0,1.3,0.2,1.8,0.5c0.3,0.2,0.4,0.3,0.6,0.7c0.9-0.9,1.7-1.2,2.9-1.2c2,0,3,1.1,3,3.2
		v3.5c0,0.9,0,1.4,0.1,2.1h-2.9c0.1-0.7,0.1-1.2,0.1-2.1v-2.9c0-1.1-0.3-1.5-1.1-1.5c-0.7,0-1.4,0.6-1.7,1.5v2.9
		c0,0.8,0,1.4,0.1,2.1h-2.9c0.1-0.6,0.1-1.2,0.1-2.1v-2.9c0-0.6-0.1-0.9-0.2-1.1c-0.2-0.2-0.4-0.3-0.8-0.3c-0.8,0-1.4,0.5-1.8,1.5
		v2.8c0,0.9,0,1.4,0.1,2.1H200.2z"/>
	<path class="st0" d="M221.4,68.8c0-0.7-0.4-1-1.3-1c-0.9,0-1.4,0.3-1.6,1l-2.7-0.4c0.3-0.8,0.6-1.3,1.2-1.7
		c0.8-0.5,1.8-0.8,3.2-0.8c1,0,2,0.2,2.6,0.5c0.9,0.5,1.3,1.3,1.3,2.5v3.8c0,0.9,0,1.4,0.1,2h-2.7V74c-0.8,0.6-1.6,0.8-2.7,0.8
		c-1.1,0-1.9-0.3-2.4-0.8c-0.5-0.5-0.8-1.1-0.8-1.9c0-0.9,0.4-1.6,1-2c0.7-0.5,1.7-0.8,2.9-0.9c0.5-0.1,1-0.1,2-0.1V68.8z
		 M221.4,70.9c-1.2,0-1.8,0.1-2.4,0.3c-0.5,0.2-0.8,0.5-0.8,0.9c0,0.5,0.4,0.8,1.1,0.8c0.6,0,1.2-0.2,1.6-0.5
		c0.3-0.3,0.5-0.7,0.5-1.1V70.9z"/>
	<path class="st0" d="M227,65.8c0-0.7,0-1.3-0.1-1.9h2.9c-0.1,0.6-0.1,1.2-0.1,1.9v0.3h0.5c0.6,0,0.9,0,1.4-0.1v2.3
		c-0.4-0.1-0.8-0.1-1.3-0.1h-0.6v3.6c0,0.4,0.1,0.6,0.3,0.7c0.2,0.1,0.4,0.2,0.6,0.2c0.4,0,0.6-0.1,1-0.3l0.2,2.1
		c-0.6,0.2-1.2,0.3-1.9,0.3c-1,0-1.6-0.2-2.1-0.5c-0.5-0.4-0.7-0.9-0.7-1.8v-4.3h-0.5c-0.4,0-0.8,0-1.2,0.1V66
		c0.4,0.1,0.8,0.1,1.2,0.1h0.5V65.8z"/>
	<path class="st0" d="M232.5,70.4c0-2.8,1.8-4.6,4.6-4.6c2.8,0,4.6,1.8,4.6,4.6c0,2.8-1.8,4.6-4.6,4.6
		C234.3,75,232.5,73.2,232.5,70.4z M235.2,70.4c0,1.6,0.7,2.5,1.9,2.5s1.9-0.9,1.9-2.5c0-1.6-0.7-2.5-1.9-2.5
		C235.9,67.9,235.2,68.8,235.2,70.4z"/>
	<path class="st0" d="M243.3,74.7c0.1-0.6,0.1-1.2,0.1-2.1V65c0-0.8,0-1.4-0.1-2c0.7,0,1.2,0,2.1,0h3.1c2.8,0,4.3,1.3,4.3,3.8
		c0,2.5-1.6,4-4.3,4h-2.2v1.8c0,0.8,0,1.5,0.1,2.1H243.3z M248.3,68.4c1,0,1.6-0.5,1.6-1.5s-0.5-1.5-1.6-1.5h-2.1v3H248.3z"/>
	<path class="st0" d="M256.3,71.2c0.1,1.1,0.8,1.7,1.9,1.7c0.6,0,1.1-0.2,1.4-0.5c0.2-0.2,0.3-0.4,0.4-0.7l2.4,0.7
		c-0.3,0.7-0.5,1.1-0.9,1.4c-0.8,0.8-1.9,1.2-3.3,1.2c-1.4,0-2.5-0.4-3.2-1.2c-0.8-0.8-1.3-2-1.3-3.4c0-2.8,1.8-4.6,4.5-4.6
		c2.2,0,3.7,1.2,4.2,3.3c0.1,0.4,0.2,1,0.2,1.8c0,0.1,0,0.1,0,0.3H256.3z M260,69.2c-0.2-0.9-0.8-1.4-1.8-1.4c-1,0-1.6,0.4-1.8,1.4
		H260z"/>
	<path class="st0" d="M270.6,74.2c0-0.1,0-0.2,0-0.3c-0.9,0.8-1.7,1-2.8,1c-2.5,0-4.1-1.7-4.1-4.5c0-1.5,0.4-2.6,1.2-3.4
		c0.7-0.7,1.7-1.1,2.8-1.1c1.1,0,1.9,0.3,2.9,1c0-0.2,0-0.3,0-0.5v-1.2c0-1,0-1.6-0.1-2.2h2.9c-0.1,0.6-0.1,1.3-0.1,2.2v7.3
		c0,0.9,0,1.5,0.1,2.2h-2.8V74.2z M266.4,70.4c0,0.8,0.2,1.4,0.6,1.8c0.3,0.3,0.8,0.5,1.4,0.5c1.2,0,2.2-1,2.2-2.4
		c0-1.4-0.9-2.3-2.2-2.3C267.2,68,266.4,68.9,266.4,70.4z"/>
	<path class="st0" d="M280.7,68.8c0-0.7-0.4-1-1.3-1c-0.9,0-1.4,0.3-1.6,1l-2.7-0.4c0.3-0.8,0.6-1.3,1.2-1.7
		c0.8-0.5,1.8-0.8,3.2-0.8c1,0,2,0.2,2.6,0.5c0.9,0.5,1.3,1.3,1.3,2.5v3.8c0,0.9,0,1.4,0.1,2h-2.7V74c-0.8,0.6-1.6,0.8-2.7,0.8
		c-1.1,0-1.9-0.3-2.4-0.8c-0.5-0.5-0.8-1.1-0.8-1.9c0-0.9,0.4-1.6,1-2c0.7-0.5,1.7-0.8,2.9-0.9c0.5-0.1,1-0.1,2-0.1V68.8z
		 M280.7,70.9c-1.2,0-1.8,0.1-2.4,0.3c-0.5,0.2-0.8,0.5-0.8,0.9c0,0.5,0.4,0.8,1.1,0.8c0.6,0,1.2-0.2,1.6-0.5
		c0.3-0.3,0.5-0.7,0.5-1.1V70.9z"/>
	<path class="st0" d="M288.1,63c-0.1,0.6-0.1,1.2-0.1,2.1v7.4c0,0.8,0,1.4,0.1,2.1h-2.9c0.1-0.6,0.1-1.1,0.1-2.1v-7.4
		c0-1,0-1.6-0.1-2.1H288.1z"/>
</g>
</svg>
