<?xml version="1.0" encoding="utf-8"?>
<!-- Generator: Adobe Illustrator 24.0.0, SVG Export Plug-In . SVG Version: 6.00 Build 0)  -->
<svg version="1.1" id="Layer_1" xmlns="http://www.w3.org/2000/svg" xmlns:xlink="http://www.w3.org/1999/xlink" x="0px" y="0px"
	 viewBox="0 0 180 60" style="enable-background:new 0 0 180 60;" xml:space="preserve">
<style type="text/css">
	.st0{fill:#FFFFFF;}
	.st1{fill:#DA1C5C;}
</style>
<g>
	<path class="st0" d="M15.7,17c2.8-1.1,5.3-1.7,7.5-1.7c2.5,0,4.6,0.7,6.2,2c1.6,1.4,2.5,3.1,2.5,5.3c0,1.9-0.7,3.5-2,4.8
		c-1.7,1.8-5.2,3.2-10.6,3.3l0.1-2.5c4-0.2,7.2-1.1,8.6-2.3c1-0.9,1.7-2.1,1.7-3.8c0-1.4-0.6-2.6-1.7-3.4c-1.2-0.9-2.8-1.3-4.9-1.3
		c-1.2,0-2.4,0.1-3.5,0.4c-1.1,0.3-2.3,0.7-3.7,1.3l-0.3,9.6c0,0.8-0.2,1.4-0.6,1.8c-0.4,0.4-1,0.6-1.9,0.6c-1.9,0-3.5-0.5-4.6-1.5
		c-1.1-1-1.6-2.2-1.6-3.8c0-1.5,0.5-2.9,1.6-4.1c1.1-1.2,2.8-2.5,5.3-3.7l0.2-6.4C11.4,11.8,9.4,12,7.7,12L7.6,9.8
		c2.5,0,4.6-0.1,6.2-0.3L14,4.4l2,0.1l-0.2,4.7c1.6-0.3,9-1.4,10-1.7l0.2,2.2c-1.6,0.4-9.1,1.4-10.3,1.6L15.7,17z M13.5,20.2
		c-1.7,1-2.9,1.9-3.8,2.7c-0.9,0.9-1.3,1.8-1.3,2.7c0,0.9,0.3,1.7,0.9,2.2c0.6,0.6,1.5,0.8,2.7,0.8c0.4,0,0.8-0.1,0.9-0.4
		c0.2-0.3,0.3-0.9,0.3-1.9L13.5,20.2z M31.3,10.9l-1.4,1.6c-1.7-1.5-3.7-2.8-5.8-3.9l1.2-1.7C27.3,7.9,29.3,9.2,31.3,10.9z"/>
	<path class="st0" d="M45.6,8c-0.3,5.8-1.4,10.8-3.2,14.8c-1.8,4-3.8,6.1-6,6.1c-1.5,0-2.9-0.9-4.2-2.6c-1.3-1.7-1.9-4-1.9-6.7
		c0-4,1.5-7.3,4.5-9.8c3-2.6,6.4-3.8,10.2-3.8c2.6,0,4.8,0.6,6.9,1.7c2,1.1,3.6,2.6,4.7,4.6c1.1,1.9,1.7,4,1.7,6.3
		c0,3.2-1,6-3.1,8.4c-2.1,2.3-5.2,4-9.4,4.8l-1-1.8c3-0.7,5.4-1.7,7-2.9c1.7-1.2,2.8-2.6,3.4-4.2c0.6-1.6,0.9-3.2,0.9-4.7
		c0-2.5-0.9-4.7-2.7-6.7C51.6,9.3,49,8.2,45.6,8z M43.5,8c-3.4,0.4-6.1,1.8-8.1,4.1c-2,2.3-3,4.9-3,7.7c0,1.7,0.4,3.3,1.3,4.8
		s1.8,2.2,2.7,2.2c0.7,0,1.3-0.3,1.9-1c0.6-0.7,1.4-1.9,2.2-3.7c0.8-1.8,1.5-3.8,2-6.2C43.1,13.5,43.4,10.9,43.5,8z"/>
	<path class="st0" d="M84.2,9.7c-6.2,0.1-9.6,0.2-14.4,0.3l0.1,4.5c1.8,0,4.7-0.3,8.6-0.7l0.2,2c-5,0.4-7.9,0.6-8.9,0.7
		c0,2.2,0,4.2,0,5.9c3.1,1,5.9,2.4,8.2,4.2L76.7,28c-2-1.5-4.3-2.7-6.8-3.6c-0.1,2.6-0.6,4.4-1.6,5.3c-1,0.9-2.7,1.3-5,1.3
		c-2.3,0-4.1-0.4-5.4-1.1c-1.2-0.7-2.4-2-2.4-3.8c0-1.8,1.1-3,2.2-3.8c1.1-0.8,2.8-1.2,5-1.2c1.6,0,3.3,0.2,5.1,0.7
		c0-1.8,0-3.6,0-5.3c-1.7,0-3.2,0.1-4.5,0.1c-1.3,0-3.3-0.1-6-0.2l-0.1-2.1c2.6,0.2,4.6,0.3,5.9,0.3c1.4,0,2.9,0,4.7-0.1L67.8,10
		c-2.5,0-5,0.1-7.5,0.1c-2.5,0-4.3,0-7.8-0.1l0.1-2c4,0.1,5.9,0.2,8.5,0.2c2.6,0,4.8,0,6.7,0l-0.1-4L69.7,4l0.1,4
		c3.3,0,6.8-0.1,14.4-0.3V9.7z M67.9,23.8c-1.8-0.5-3.4-0.7-5-0.7c-1.6,0-2.8,0.2-3.6,0.7c-0.8,0.5-1.7,1.3-1.7,2.7
		c0,0.9,0.9,1.6,1.7,2c0.8,0.4,2,0.6,3.6,0.6c1.6,0,2.7-0.1,3.4-0.4c0.6-0.3,1.1-0.7,1.3-1.4C67.7,26.6,67.9,25.4,67.9,23.8z"/>
	<path class="st0" d="M100.6,29.9c-2.3,0.7-5.3,1.1-8.9,1.1c-4.8,0-8.1-0.7-10.1-2c-1.9-1.3-2.9-3.1-2.9-5.2c0-1.3,0.5-2.5,1.7-3.7
		c1.1-1.2,2.5-2.3,4.3-3.5C83.9,13,83.4,8.9,83,4.4l2.3-0.1c-0.1,3.5,0.3,7.2,1.2,11.1c2.9-1.6,6.8-3.5,11.7-5.6l0.8,1.9
		c-7.2,3-12.1,5.4-14.6,7.3c-2.5,1.9-3.8,3.5-3.8,4.9c0,1.6,0.9,2.8,2.7,3.7c1.8,0.9,4.7,1.4,8.9,1.4c2.9,0,5.6-0.4,8.1-1.2
		L100.6,29.9z"/>
	<path class="st0" d="M124.4,30.1l-1.9,1.4c-6.1-9.6-11.4-16.8-16-21.6c-2.3,3.2-4.6,5.7-6.9,9l-1.9-1.2c3-4.1,5.9-7.3,8.6-10.7
		C111,11.4,117,19.1,124.4,30.1z M118.2,2.8c1.3,0,2.5,0.5,3.4,1.4c0.9,0.9,1.4,2,1.4,3.4s-0.5,2.5-1.4,3.4c-0.9,0.9-2,1.4-3.4,1.4
		c-1.3,0-2.5-0.5-3.4-1.4c-0.9-0.9-1.4-2-1.4-3.4s0.5-2.5,1.4-3.4C115.8,3.2,116.9,2.8,118.2,2.8z M118.2,10.4c0.8,0,1.5-0.3,2-0.8
		c0.6-0.6,0.8-1.2,0.8-2s-0.3-1.5-0.8-2.1c-0.6-0.6-1.2-0.8-2-0.8c-0.8,0-1.5,0.3-2,0.8c-0.6,0.6-0.8,1.2-0.8,2.1s0.3,1.5,0.8,2
		C116.7,10.1,117.4,10.4,118.2,10.4z"/>
	<path class="st0" d="M143.7,6.4c-0.3-1-0.7-1.9-1.1-2.9l1.9-0.5c0.7,1.7,1.3,3.4,1.8,5l-1.8,0.6c-0.2-0.7-0.4-1.3-0.6-1.8
		c-0.7,6.1-2.1,10.9-4.3,14.3c1.2,0.8,3,2.1,5.3,3.7l-1.4,1.8c-1.8-1.5-3.5-2.8-5-3.9c-3,4-8.1,7.3-15.3,9.9l-1.1-2.1
		c6.6-2,11.3-5,14.5-9.1c-2.5-1.6-4.8-2.9-6.9-3.8L131,16c2.3,1.2,4.6,2.5,6.8,3.9c2.1-3.3,3.3-7,3.7-11.4h-11.7
		c-1.7,3-4.3,6.5-7.9,10.4l-1.7-1.2c1.8-1.8,3.5-3.7,5-5.9c1.6-2.2,2.7-4,3.2-5.3H143.7z M150.2,7.8l-2,0.7c-0.4-1.8-1.1-3.6-2-5.2
		l1.8-0.5C148.8,4.2,149.5,5.9,150.2,7.8z"/>
	<path class="st0" d="M154.2,6.5c0,5.8-0.4,10.4-1.2,14c-0.8,3.5-2.1,7-4,10.4l-2-1.2c1.6-2.5,2.8-5.4,3.7-8.8
		c0.8-3.3,1.3-6.8,1.3-10.3c0-1.4-0.1-2.7-0.2-4.1H154.2z M173.3,22.8c-4.5,2.7-9.9,5.9-14.7,8.7l-1.3-1.9c1.6-0.8,2.6-1.2,2.9-1.4
		V5.2h2.2V27c2.8-1.5,6.7-3.8,10.1-6L173.3,22.8z"/>
	<path class="st1" d="M4.9,46.4c0-2,0.5-3.9,1.5-5.6c1-1.7,2.3-3.1,4-4c1.7-1,3.5-1.5,5.5-1.5c2,0,3.9,0.5,5.6,1.4
		c1.7,1,3.1,2.3,4.1,4c1,1.7,1.5,3.5,1.5,5.5c0,2-0.5,3.8-1.5,5.5c-1,1.7-2.3,3-4,4c-1.7,1-3.5,1.5-5.5,1.5c-2,0-3.8-0.5-5.6-1.4
		c-1.7-1-3.1-2.3-4-4C5.4,50.2,4.9,48.4,4.9,46.4z M24.8,46.3c0-2.5-0.9-4.6-2.6-6.4c-1.7-1.7-3.8-2.6-6.3-2.6
		c-2.5,0-4.6,0.9-6.3,2.6c-1.7,1.7-2.5,3.9-2.5,6.4c0,2.5,0.9,4.6,2.6,6.3c1.7,1.7,3.8,2.6,6.3,2.6s4.5-0.8,6.3-2.5
		C23.9,51,24.8,48.9,24.8,46.3z"/>
	<path class="st1" d="M25.6,41.3h2v2.8c1.6-2.1,3.5-3.2,5.8-3.2c1.2,0,2.2,0.3,3.2,0.9c0.9,0.6,1.6,1.5,2,2.5c0.4,1,0.6,2.5,0.6,4.5
		v8h-2v-7.4c0-1.8-0.1-3-0.2-3.7c-0.2-0.6-0.4-1.2-0.8-1.6c-0.3-0.4-0.8-0.8-1.3-1c-0.5-0.2-1.2-0.4-1.9-0.4c-0.7,0-1.5,0.2-2.2,0.6
		c-0.7,0.4-1.3,0.9-1.8,1.5c-0.5,0.7-0.8,1.3-1,2c-0.2,0.7-0.3,2.1-0.3,4.2v5.7h-2V41.3z"/>
	<path class="st1" d="M38,49.1c0-2.3,0.8-4.2,2.3-5.8c1.6-1.6,3.5-2.4,5.7-2.4c2.2,0,4.2,0.8,5.7,2.4c1.6,1.6,2.3,3.5,2.3,5.8
		c0,2.3-0.8,4.2-2.3,5.8c-1.5,1.6-3.5,2.4-5.7,2.4c-2.3,0-4.2-0.8-5.7-2.4C38.8,53.3,38,51.4,38,49.1z M52.1,49.2
		c0-1.7-0.6-3.2-1.8-4.4c-1.2-1.3-2.6-1.9-4.3-1.9c-1.6,0-3.1,0.6-4.2,1.9C40.6,46,40,47.5,40,49.2c0,1.7,0.6,3.2,1.7,4.4
		c1.1,1.2,2.6,1.8,4.3,1.8c1.7,0,3.1-0.6,4.3-1.8C51.5,52.4,52.1,50.9,52.1,49.2z"/>
	<path class="st1" d="M53.2,41.3h2V44c1.4-2.1,3.2-3.1,5.3-3.1c1.1,0,2.2,0.3,3.1,1c0.9,0.7,1.5,1.6,1.8,2.8
		c0.6-1.2,1.5-2.1,2.5-2.8c1-0.6,2.1-1,3.4-1c1.3,0,2.5,0.5,3.5,1.5c1.1,1,1.6,3,1.6,5.9v8.5h-2v-8.5c0-1.4-0.1-2.5-0.3-3.1
		c-0.2-0.7-0.6-1.2-1.1-1.7c-0.6-0.5-1.4-0.7-2.3-0.7c-1,0-1.9,0.3-2.7,1c-0.8,0.6-1.4,1.5-1.7,2.5c-0.3,1-0.5,2.5-0.5,4.5v6.1h-2
		v-7.9c0-1.7-0.1-2.8-0.3-3.5c-0.2-0.7-0.6-1.3-1.2-1.8c-0.6-0.5-1.3-0.7-2.2-0.7s-1.7,0.3-2.5,0.8c-0.8,0.5-1.4,1.2-1.8,2.1
		c-0.4,0.9-0.7,2.4-0.7,4.5v6.6h-2V41.3z"/>
	<path class="st1" d="M91.3,41.3v15.5h-2v-2.7c-1.8,2.1-3.8,3.2-6.1,3.2c-2.3,0-4.2-0.8-5.8-2.4c-1.6-1.6-2.3-3.6-2.3-5.8
		c0-2.2,0.8-4.2,2.4-5.8c1.6-1.6,3.5-2.4,5.7-2.4c2.5,0,4.6,1.1,6.2,3.2v-2.8H91.3z M89.5,49.1c0-1.8-0.6-3.3-1.8-4.5
		c-1.2-1.2-2.6-1.8-4.4-1.8s-3.2,0.6-4.4,1.9c-1.2,1.3-1.8,2.7-1.8,4.4c0,1.7,0.6,3.2,1.8,4.4c1.2,1.3,2.7,1.9,4.3,1.9
		c1.7,0,3.1-0.6,4.3-1.8C88.9,52.5,89.5,50.9,89.5,49.1z"/>
	<path class="st1" d="M95.5,54.3c0,0.5,0.1,0.8,0.2,0.9c0.1,0.1,0.5,0.1,1.1,0.1h1.2v1.7c-0.8,0.1-1.5,0.2-1.9,0.2
		c-0.9,0-1.5-0.2-1.9-0.6c-0.4-0.4-0.6-1.1-0.6-2V43h-2.7v-1.7h2.7v-6h2v6h7.4V43h-7.4V54.3z"/>
	<path class="st1" d="M96.8,49.1c0-2.3,0.8-4.2,2.3-5.8c1.6-1.6,3.5-2.4,5.7-2.4c2.2,0,4.2,0.8,5.7,2.4c1.6,1.6,2.3,3.5,2.3,5.8
		c0,2.3-0.8,4.2-2.3,5.8c-1.5,1.6-3.5,2.4-5.7,2.4c-2.3,0-4.2-0.8-5.7-2.4C97.6,53.3,96.8,51.4,96.8,49.1z M110.9,49.2
		c0-1.7-0.6-3.2-1.8-4.4c-1.2-1.3-2.6-1.9-4.3-1.9c-1.6,0-3.1,0.6-4.2,1.9c-1.2,1.3-1.8,2.7-1.8,4.5c0,1.7,0.6,3.2,1.7,4.4
		c1.1,1.2,2.6,1.8,4.3,1.8c1.7,0,3.1-0.6,4.3-1.8C110.3,52.4,110.9,50.9,110.9,49.2z"/>
	<path class="st1" d="M112.3,35.8h4.2c2.5,0,4.1,0.1,4.8,0.3c0.8,0.2,1.5,0.5,2.1,1c0.6,0.5,1.1,1.1,1.5,1.8s0.5,1.5,0.5,2.4
		c0,1.4-0.4,2.6-1.2,3.5c-0.8,0.9-1.8,1.5-2.9,1.7c-1.2,0.2-3,0.4-5.4,0.4h-1.5v9.7h-2.1V35.8z M114.4,37.9V45h3.5
		c2.1,0,3.5-0.3,4.2-1c0.7-0.7,1.1-1.6,1.1-2.6c0-2.4-1.7-3.5-5.1-3.5H114.4z"/>
	<path class="st1" d="M135.8,55c-1.5,1.5-3.4,2.3-5.7,2.3c-2.3,0-4.3-0.8-5.8-2.4c-1.5-1.6-2.3-3.5-2.3-5.8c0-2.3,0.8-4.2,2.3-5.8
		c1.5-1.6,3.4-2.4,5.7-2.4s4.1,0.7,5.7,2.2c1.5,1.5,2.3,3.5,2.4,6.1h-13.9c0.1,1.9,0.6,3.4,1.8,4.5c1.1,1.1,2.5,1.7,4.1,1.7
		c1.8,0,3.2-0.6,4.4-1.7L135.8,55z M135.8,47.5c-0.3-1.5-1-2.6-2-3.5c-1.1-0.8-2.3-1.3-3.8-1.3c-2.9,0-4.8,1.6-5.7,4.7H135.8z"/>
	<path class="st1" d="M152.6,35.3v21.5h-2v-2.7c-1.8,2.1-3.8,3.2-6.1,3.2s-4.2-0.8-5.8-2.4c-1.6-1.6-2.3-3.5-2.3-5.8
		s0.8-4.2,2.4-5.8c1.6-1.6,3.5-2.4,5.7-2.4c2.5,0,4.6,1.1,6.2,3.2v-8.8H152.6z M150.7,49.1c0-1.8-0.6-3.3-1.8-4.5
		c-1.2-1.2-2.6-1.8-4.4-1.8c-1.8,0-3.2,0.6-4.4,1.9c-1.2,1.3-1.8,2.7-1.8,4.4c0,1.7,0.6,3.2,1.8,4.5c1.2,1.3,2.6,1.9,4.3,1.9
		c1.6,0,3.1-0.6,4.3-1.8C150.1,52.5,150.7,51,150.7,49.1z"/>
	<path class="st1" d="M167.9,41.3v15.5h-2v-2.7c-1.8,2.1-3.8,3.2-6.1,3.2c-2.3,0-4.2-0.8-5.8-2.4c-1.6-1.6-2.3-3.6-2.3-5.8
		c0-2.2,0.8-4.2,2.4-5.8c1.6-1.6,3.5-2.4,5.7-2.4c2.5,0,4.6,1.1,6.2,3.2v-2.8H167.9z M166,49.1c0-1.8-0.6-3.3-1.8-4.5
		c-1.2-1.2-2.6-1.8-4.4-1.8s-3.2,0.6-4.4,1.9c-1.2,1.3-1.8,2.7-1.8,4.4c0,1.7,0.6,3.2,1.8,4.4c1.2,1.3,2.7,1.9,4.3,1.9
		c1.7,0,3.1-0.6,4.3-1.8C165.4,52.5,166,50.9,166,49.1z"/>
	<path class="st1" d="M169.2,35.3h2v21.5h-2V35.3z"/>
</g>
</svg>
