<?xml version="1.0" encoding="utf-8"?>
<!-- Generator: Adobe Illustrator 24.0.0, SVG Export Plug-In . SVG Version: 6.00 Build 0)  -->
<svg version="1.1" id="Layer_1" xmlns="http://www.w3.org/2000/svg" xmlns:xlink="http://www.w3.org/1999/xlink" x="0px" y="0px"
	 viewBox="0 0 30 30" style="enable-background:new 0 0 30 30;" xml:space="preserve">
<style type="text/css">
	.st0{fill:#231F20;}
</style>
<g>
	<path class="st0" d="M15.1,0c-8.3,0-15,6.7-15,15s6.7,15,15,15s15-6.7,15-15S23.4,0,15.1,0z M18.5,23.1c-1.2,0-2.1-0.2-3-0.7
		c-0.1-0.1-0.2-0.3-0.1-0.4l0.6-2.5c0.7,0.3,1.5,0.6,2.3,0.6c1.2,0,2.1-0.7,2.1-1.9c0-1.1-0.8-1.8-2.2-1.8c-1.3,0-2.5,0.4-4,1.1v4.7
		c0,1.2-0.6,1.9-2.2,1.9c-1.3,0-5.2-1.8-5.2-3.9c0-1.3,2.1-3.4,4.4-4.6l0-2.5c-1.3,0.2-2.6,0.3-4,0.4l-0.2-0.1L7,10.8l0.2-0.2
		c1.4-0.1,2.8-0.2,4.1-0.4l0-3.6l0.2-0.2h2.7l0.2,0.1l0,3.2c0.9-0.2,1.6-0.4,2.5-0.6l0.2,0.1l0.3,2.5L17,12
		c-0.9,0.2-1.9,0.4-2.8,0.6l0,2c1.3-0.5,2.9-0.9,4.4-0.9c3.4,0,5.2,2.1,5.2,4.5C23.7,21.3,21.6,23.1,18.5,23.1z M23.8,13.6l-0.2,0.1
		c-1.3-1.3-2.7-2.3-4.7-2.9l-0.1-0.2l1.5-2.2l0.2,0c1.8,0.6,3.5,1.5,4.8,2.8l0,0.2L23.8,13.6z"/>
	<path class="st0" d="M9.8,20c0,0.4,0.9,0.9,1.3,0.9c0.2,0,0.3-0.1,0.3-0.4v-1.9h0C10.4,19.2,9.8,19.8,9.8,20z"/>
</g>
</svg>
