<?xml version="1.0" encoding="utf-8"?>
<!-- Generator: Adobe Illustrator 24.0.0, SVG Export Plug-In . SVG Version: 6.00 Build 0)  -->
<svg version="1.1" id="Layer_1" xmlns="http://www.w3.org/2000/svg" xmlns:xlink="http://www.w3.org/1999/xlink" x="0px" y="0px"
	 viewBox="0 0 30 30" style="enable-background:new 0 0 30 30;" xml:space="preserve">
<style type="text/css">
	.st0{fill:#231F20;}
</style>
<g>
	<path class="st0" d="M15,21.4c-0.5,0-1-0.4-1-1s0.4-1,1-1s1,0.4,1,1S15.5,21.4,15,21.4z M18,8.6c1,0,1.8,0.8,2,1.7h-1.5
		c-0.1,0-0.2,0.1-0.2,0.2s0.1,0.2,0.2,0.2h1.5c-0.1,1-0.9,1.7-2,1.7c-1.1,0-2-0.9-2-2S16.9,8.6,18,8.6z M17,15.2h-1.5
		c-0.1,0-0.2,0.1-0.2,0.2s0.1,0.2,0.2,0.2H17c-0.1,1-0.9,1.7-2,1.7c-1.1,0-2-0.9-2-2s0.9-2,2-2C16,13.5,16.8,14.3,17,15.2z
		 M11.5,10.3h-1.5c0.1-1,0.9-1.7,2-1.7c1.1,0,2,0.9,2,2s-0.9,2-2,2c-1,0-1.8-0.8-2-1.7h1.5c0.1,0,0.2-0.1,0.2-0.2
		S11.7,10.3,11.5,10.3z"/>
	<path class="st0" d="M15,0C6.7,0,0,6.7,0,15s6.7,15,15,15s15-6.7,15-15S23.3,0,15,0z M22.4,23.1c0,0.4-0.3,0.7-0.7,0.7H8.2
		c-0.4,0-0.7-0.3-0.7-0.7V6.9c0-0.4,0.3-0.7,0.7-0.7h13.5c0.4,0,0.7,0.3,0.7,0.7V23.1z"/>
</g>
</svg>
