<?xml version="1.0" encoding="utf-8"?>
<!-- Generator: Adobe Illustrator 23.1.1, SVG Export Plug-In . SVG Version: 6.00 Build 0)  -->
<svg version="1.1" id="Layer_1" xmlns="http://www.w3.org/2000/svg" xmlns:xlink="http://www.w3.org/1999/xlink" x="0px" y="0px"
	 viewBox="0 0 300 100" style="enable-background:new 0 0 300 100;" xml:space="preserve">
<style type="text/css">
	.st0{fill:none;stroke:#231F20;stroke-width:1.5;stroke-linecap:round;stroke-miterlimit:10;}
	.st1{fill:none;stroke:#231F20;stroke-width:1.5;stroke-linecap:round;stroke-linejoin:round;stroke-miterlimit:10;}
	.st2{fill:none;stroke:#231F20;stroke-linecap:round;stroke-miterlimit:10;}
	.st3{fill:none;stroke:#231F20;stroke-linecap:round;stroke-miterlimit:10;stroke-dasharray:1.0302,2.0605;}
	.st4{fill:none;stroke:#231F20;stroke-linecap:round;stroke-miterlimit:10;stroke-dasharray:0.9778,1.9556;}
	.st5{fill:none;stroke:#231F20;stroke-linecap:round;stroke-miterlimit:10;stroke-dasharray:1.0721,2.1442;}
	.st6{fill:none;stroke:#231F20;stroke-linecap:round;stroke-miterlimit:10;stroke-dasharray:1,2;}
	.st7{fill:#231F20;}
	.st8{fill:none;stroke:#FFFFFF;stroke-width:2;stroke-linecap:round;stroke-miterlimit:10;}
	.st9{fill:#FFFFFF;}
	.st10{fill:#DFC669;}
	.st11{fill:#EF569F;}
	.st12{fill:none;stroke:#231F20;stroke-width:2;stroke-linecap:round;stroke-miterlimit:10;}
	.st13{fill:#036C9B;}
	.st14{fill:#08C792;}
	.st15{fill:#3F3F3F;}
	.st16{fill:#A3A3A5;}
	.st17{fill:#B21F25;}
	.st18{fill:#E87E57;}
	.st19{fill:#D1D0D5;}
	.st20{fill:#2394A0;}
	.st21{fill:#838080;}
	.st22{fill:#55AF2F;}
	.st23{fill:#9C8035;}
</style>
<g>
	<path class="st21" d="M19.9,83.1c-0.1-1-0.1-1.3-0.1-2.2c-0.1-0.4-0.1-1.1-0.3-2.2l-0.3-2.1c-0.9-6-1.4-13.7-1.4-20.5
		c0-4.4,0.2-9.5,0.6-14.8c0.2-2.5,0.2-2.5,2.2-16.1c0.4-2.7,0.6-4.2,0.6-4.9c0-0.1,0-0.3,0-0.5l13,0.9c-0.7,1.5-2.4,8.5-3.3,14.7
		c-1.2,7.4-1.4,10.9-2,21l5.6,1.9c-1.9,6.2-2.8,12.4-2.8,20.9c0,1.4,0.1,2.1,0.2,3.5L19.9,83.1z M77.1,32.5
		c-0.9,0.1-0.9,0.1-2.1,0.1c-0.4,0.1-1.2,0.1-2.1,0.2c-2.7,0.2-3.2,0.3-4.9,0.5c-0.1,1.4-0.1,1.7-0.1,6.4c4.2-0.4,8.6-1.1,11.1-1.9
		l0.4,10.7c-0.9,0.1-1.4,0.1-2.1,0.2L75.5,49L74,49.2c-1.6,0.2-2.2,0.3-3.2,0.4c-0.3,0.1-0.8,0.1-1.5,0.1l-1.4,0.1
		c0.1,4.5,0.2,6,0.6,9.9c4.1,1.8,7.2,3.5,11.1,6.3c1.1,0.7,1.2,0.8,1.9,1.2l-4.2,12c-1.7-2.1-5.3-5-8.7-7.2
		c-0.1,2.3-0.1,2.8-0.8,4.2c-1.1,2.2-2.6,3.7-5.2,4.8c-2.7,1.2-6.5,1.9-10.1,1.9c-10.3,0-16.6-5-16.6-13c0-5.3,3.1-9.8,7.8-11.6
		c2.8-1.1,5.7-1.6,9.3-1.6c1.4,0,2.4,0.1,4.1,0.4c-0.1-0.9-0.1-1.3-0.1-2.9L57,52.7l-0.1-2.3c-4,0.1-4.4,0.1-5.7,0.1
		c-1.7,0-4-0.1-7.3-0.1c-3-0.1-4-0.1-5.5-0.1c-0.1,0-0.5,0-0.9,0l0.3-10.7c2.8,0.6,7.8,0.9,14,0.9c1.4,0,2,0,4.9-0.1
		c0-1.1,0-3.6,0-4.2c0-0.5,0-0.6,0-2.1c-2.2,0-4.5,0.1-6.3,0.1c-3.8,0-4.1,0-9.9-0.3c-0.9-0.1-1.1-0.1-1.9-0.1c-0.1,0-0.5,0-0.9,0.1
		l0.4-10.9c2.7,0.6,7.2,0.9,13.1,0.9c6.7,0,13.8-0.4,17.8-0.9c0.2-4.5,3.7-7.8,8.1-7.8c4.5,0,8.1,3.6,8.1,8.1s-3.6,8.1-8.1,8.1V32.5
		z M52.4,66.6c-2.8,0-4.8,1.4-4.8,3.2s1.8,3,4.8,3c3.5,0,5-1.3,5-4.1c0-0.6-0.1-1.3-0.1-1.3C55.4,66.9,54.2,66.6,52.4,66.6z
		 M73,23.1c0,2.2,1.9,4,4,4c2.2,0,4.1-1.9,4.1-4c0-2.2-1.9-4.1-4-4.1C74.9,19,73,20.9,73,23.1z"/>
	<path class="st21" d="M122.5,37.8c6.8-0.9,10-1.1,19.1-1.1c0.5,0,2,0,3.5,0.1l0.2,12.2c-3.5-0.4-5.5-0.5-9.4-0.5
		c-7.9,0-13,0.4-20.2,1.8L114.9,40c-3.5,0.4-4.3,0.4-6.6,0.6c-1.2,6.8-2.5,12.1-4.5,19.6c-1.8,6.3-2.2,7.9-5.3,17.2
		c-1.2,3.5-1.2,3.5-1.7,5.2l-13.2-4.8c4.8-9.2,9.4-23.5,12.1-36.9c-0.5,0-0.9,0-1.2,0c-2.3,0-3.8-0.1-6.9-0.2c-0.1,0-0.4,0-0.7,0
		c-0.6,0-0.9,0-1.7,0.1L85.5,29c2.8,0.4,6.6,0.7,10.9,0.7c0.2,0,0.7,0,1.4,0c0.9-5.8,1.2-8.6,1.2-10.8c0-0.2,0-0.6,0-1.1l13.5,1
		c-0.4,1.4-0.6,2.2-0.9,4.2c-0.1,0.4-0.5,2.5-1.2,6.2c5-0.5,7.8-0.9,11.8-1.9L122.5,37.8z M125,57.6c-2.7,3.2-3.9,5.6-3.9,7.8
		c0,3.3,3,4.9,9,4.9c5.6,0,12.6-1.2,17-2.8l0.9,12.6c-1.4,0.1-2.1,0.2-3.8,0.4c-6.8,0.9-9.6,1.2-14,1.2c-14.1,0-21.2-4.5-21.2-13.6
		c0-4.2,1.7-8.2,5.6-14L125,57.6z"/>
	<path class="st21" d="M153.6,83.1c-0.1-1-0.1-1.3-0.1-2.2c-0.1-0.4-0.1-1.1-0.3-2.2l-0.3-2.1c-0.9-6-1.4-13.7-1.4-20.5
		c0-4.4,0.2-9.5,0.6-14.8c0.2-2.5,0.2-2.5,2.2-16.1c0.4-2.7,0.6-4.2,0.6-4.9c0-0.1,0-0.3,0-0.5l13,0.9c-0.7,1.5-2.4,8.5-3.3,14.7
		c-1.2,7.4-1.4,10.9-2,21l5.6,1.9c-1.9,6.2-2.8,12.4-2.8,20.9c0,1.4,0.1,2.1,0.2,3.5L153.6,83.1z M210.8,32.5
		c-0.9,0.1-0.9,0.1-2.1,0.1c-0.4,0.1-1.2,0.1-2.1,0.2c-2.7,0.2-3.2,0.3-4.9,0.5c-0.1,1.4-0.1,1.7-0.1,6.4c4.2-0.4,8.6-1.1,11.1-1.9
		l0.4,10.7c-0.9,0.1-1.4,0.1-2.1,0.2l-1.7,0.2l-1.5,0.2c-1.6,0.2-2.2,0.3-3.2,0.4c-0.3,0.1-0.8,0.1-1.5,0.1l-1.4,0.1
		c0.1,4.5,0.2,6,0.6,9.9c4.1,1.8,7.2,3.5,11.1,6.3c1.1,0.7,1.2,0.8,1.9,1.2l-4.2,12c-1.7-2.1-5.3-5-8.7-7.2
		c-0.1,2.3-0.1,2.8-0.8,4.2c-1.1,2.2-2.6,3.7-5.2,4.8c-2.7,1.2-6.5,1.9-10.1,1.9c-10.3,0-16.6-5-16.6-13c0-5.3,3.1-9.8,7.8-11.6
		c2.8-1.1,5.7-1.6,9.3-1.6c1.4,0,2.4,0.1,4.1,0.4c-0.1-0.9-0.1-1.3-0.1-2.9l-0.1-1.5l-0.1-2.3c-4,0.1-4.4,0.1-5.7,0.1
		c-1.7,0-4-0.1-7.3-0.1c-3-0.1-4-0.1-5.5-0.1c-0.1,0-0.5,0-0.9,0l0.3-10.7c2.8,0.6,7.8,0.9,14,0.9c1.4,0,2,0,4.9-0.1
		c0-1.1,0-3.6,0-4.2c0-0.5,0-0.6,0-2.1c-2.2,0-4.5,0.1-6.3,0.1c-3.8,0-4.1,0-9.9-0.3c-0.9-0.1-1.1-0.1-1.9-0.1c-0.1,0-0.5,0-0.9,0.1
		l0.4-10.9c2.7,0.6,7.2,0.9,13.1,0.9c6.7,0,13.8-0.4,17.8-0.9c0.2-4.5,3.7-7.8,8.1-7.8c4.5,0,8.1,3.6,8.1,8.1s-3.6,8.1-8.1,8.1V32.5
		z M186.1,66.6c-2.8,0-4.8,1.4-4.8,3.2s1.8,3,4.8,3c3.5,0,5-1.3,5-4.1c0-0.6-0.1-1.3-0.1-1.3C189.1,66.9,187.9,66.6,186.1,66.6z
		 M206.7,23.1c0,2.2,1.9,4,4,4c2.2,0,4.1-1.9,4.1-4c0-2.2-1.9-4.1-4-4.1C208.6,19,206.7,20.9,206.7,23.1z"/>
	<path class="st21" d="M256.2,37.8c6.8-0.9,10-1.1,19.1-1.1c0.5,0,2,0,3.5,0.1l0.2,12.2c-3.5-0.4-5.5-0.5-9.4-0.5
		c-7.9,0-13,0.4-20.2,1.8L248.6,40c-3.5,0.4-4.3,0.4-6.6,0.6c-1.2,6.8-2.5,12.1-4.5,19.6c-1.8,6.3-2.2,7.9-5.3,17.2
		c-1.2,3.5-1.2,3.5-1.7,5.2l-13.2-4.8c4.8-9.2,9.4-23.5,12.1-36.9c-0.5,0-0.9,0-1.2,0c-2.3,0-3.8-0.1-6.9-0.2c-0.1,0-0.4,0-0.7,0
		c-0.6,0-0.9,0-1.7,0.1l0.2-11.7c2.8,0.4,6.6,0.7,10.9,0.7c0.2,0,0.7,0,1.4,0c0.9-5.8,1.2-8.6,1.2-10.8c0-0.2,0-0.6,0-1.1l13.5,1
		c-0.4,1.4-0.6,2.2-0.9,4.2c-0.1,0.4-0.5,2.5-1.2,6.2c5-0.5,7.8-0.9,11.8-1.9L256.2,37.8z M258.7,57.6c-2.7,3.2-3.9,5.6-3.9,7.8
		c0,3.3,3,4.9,9,4.9c5.6,0,12.6-1.2,17-2.8l0.9,12.6c-1.4,0.1-2.1,0.2-3.8,0.4c-6.8,0.9-9.6,1.2-14,1.2c-14.1,0-21.2-4.5-21.2-13.6
		c0-4.2,1.7-8.2,5.6-14L258.7,57.6z"/>
</g>
</svg>
