<?xml version="1.0" encoding="utf-8"?>
<!-- Generator: Adobe Illustrator 23.1.1, SVG Export Plug-In . SVG Version: 6.00 Build 0)  -->
<svg version="1.1" id="Layer_1" xmlns="http://www.w3.org/2000/svg" xmlns:xlink="http://www.w3.org/1999/xlink" x="0px" y="0px"
	 viewBox="0 0 150 30" style="enable-background:new 0 0 150 30;" xml:space="preserve">
<style type="text/css">
	.st0{fill:none;stroke:#000000;stroke-linecap:round;stroke-miterlimit:10;}
</style>
<g>
	<path class="st0" d="M15.5,13.5c1.4-1.8,4.3-4,8-4"/>
	<path class="st0" d="M13.5,17.5c-1.4,1.8-4.3,3-8,3"/>
	<path class="st0" d="M5.5,9.5c5,0,7,2.5,9,6s4,5,9,5"/>
	<polyline class="st0" points="23.5,6.5 25.5,9.5 23.5,12.5 	"/>
	<polyline class="st0" points="23.5,17.5 25.5,20.5 23.5,23.5 	"/>
</g>
<g>
	<path d="M41.2,17.3c0,0.9-0.3,1.6-1,2.1s-1.5,0.7-2.6,0.7c-1.2,0-2.1-0.2-2.7-0.5v-1.1c0.4,0.2,0.9,0.3,1.3,0.4s1,0.2,1.4,0.2
		c0.8,0,1.4-0.1,1.8-0.4c0.4-0.3,0.6-0.7,0.6-1.2c0-0.3-0.1-0.6-0.2-0.9c-0.1-0.2-0.4-0.4-0.7-0.6c-0.3-0.2-0.8-0.4-1.5-0.6
		c-0.9-0.3-1.6-0.7-2-1.2c-0.4-0.5-0.6-1.1-0.6-1.8c0-0.8,0.3-1.4,0.9-1.8s1.3-0.7,2.3-0.7c1,0,1.9,0.2,2.7,0.5l-0.4,1
		c-0.8-0.3-1.6-0.5-2.4-0.5c-0.6,0-1.1,0.1-1.4,0.4s-0.5,0.6-0.5,1.1c0,0.3,0.1,0.6,0.2,0.9s0.3,0.4,0.6,0.6
		c0.3,0.2,0.8,0.4,1.4,0.6c1,0.4,1.8,0.8,2.2,1.2C41,16.1,41.2,16.7,41.2,17.3z"/>
	<path d="M50.8,20h-1.2v-4.7h-5.3V20h-1.2V10h1.2v4.3h5.3V10h1.2V20z"/>
	<path d="M61.1,10v6.5c0,1.1-0.3,2-1,2.7s-1.6,1-2.8,1s-2.1-0.3-2.8-1c-0.7-0.7-1-1.6-1-2.7V10h1.2v6.5c0,0.8,0.2,1.5,0.7,1.9
		s1.1,0.7,2,0.7c0.8,0,1.5-0.2,1.9-0.7c0.5-0.4,0.7-1.1,0.7-1.9V10H61.1z"/>
	<path d="M64.9,20h-1.2V10h5.6v1h-4.4v3.7H69v1h-4.1V20z"/>
	<path d="M72.1,20H71V10h5.6v1h-4.4v3.7h4.1v1h-4.1V20z"/>
	<path d="M78.2,20V10h1.2v8.9h4.4V20H78.2z"/>
	<path d="M91,20h-5.6V10H91v1h-4.4v3.2h4.1v1h-4.1V19H91V20z"/>
	<path d="M103.2,12.9c0,1-0.3,1.8-1,2.3c-0.7,0.5-1.7,0.8-3,0.8H98V20h-1.2V10h2.6C102,10,103.2,11,103.2,12.9z M98,15.1h1
		c1,0,1.8-0.2,2.2-0.5s0.7-0.9,0.7-1.6c0-0.7-0.2-1.2-0.6-1.5s-1.1-0.5-2-0.5H98V15.1z"/>
	<path d="M110.9,20h-5.6V10h5.6v1h-4.4v3.2h4.1v1h-4.1V19h4.4V20z"/>
	<path d="M121.1,14.9c0,1.6-0.4,2.9-1.3,3.8c-0.9,0.9-2.2,1.3-3.9,1.3h-2.8V10h3.1c1.6,0,2.8,0.4,3.6,1.3S121.1,13.4,121.1,14.9z
		 M119.8,14.9c0-1.3-0.3-2.3-1-2.9c-0.7-0.7-1.6-1-2.9-1h-1.7v8h1.4c1.4,0,2.4-0.3,3.1-1C119.5,17.3,119.8,16.3,119.8,14.9z"/>
	<path d="M129.6,20l-1.2-3.2h-4l-1.2,3.2h-1.2l4-10h1l3.9,10H129.6z M128,15.8l-1.2-3.1c-0.2-0.4-0.3-0.9-0.5-1.4
		c-0.1,0.4-0.2,0.9-0.4,1.4l-1.2,3.1H128z"/>
	<path d="M132.2,20V10h1.2v8.9h4.4V20H132.2z"/>
	<path d="M145.1,17.3c0,0.9-0.3,1.6-1,2.1s-1.5,0.7-2.6,0.7c-1.2,0-2.1-0.2-2.7-0.5v-1.1c0.4,0.2,0.9,0.3,1.3,0.4s1,0.2,1.4,0.2
		c0.8,0,1.4-0.1,1.8-0.4c0.4-0.3,0.6-0.7,0.6-1.2c0-0.3-0.1-0.6-0.2-0.9c-0.1-0.2-0.4-0.4-0.7-0.6c-0.3-0.2-0.8-0.4-1.5-0.6
		c-0.9-0.3-1.6-0.7-2-1.2c-0.4-0.5-0.6-1.1-0.6-1.8c0-0.8,0.3-1.4,0.9-1.8s1.3-0.7,2.3-0.7c1,0,1.9,0.2,2.7,0.5l-0.4,1
		c-0.8-0.3-1.6-0.5-2.4-0.5c-0.6,0-1.1,0.1-1.4,0.4s-0.5,0.6-0.5,1.1c0,0.3,0.1,0.6,0.2,0.9s0.3,0.4,0.6,0.6
		c0.3,0.2,0.8,0.4,1.4,0.6c1,0.4,1.8,0.8,2.2,1.2C144.9,16.1,145.1,16.7,145.1,17.3z"/>
</g>
</svg>
