<?xml version="1.0" encoding="utf-8"?>
<!-- Generator: Adobe Illustrator 23.0.6, SVG Export Plug-In . SVG Version: 6.00 Build 0)  -->
<svg version="1.1" id="Layer_1" xmlns="http://www.w3.org/2000/svg" xmlns:xlink="http://www.w3.org/1999/xlink" x="0px" y="0px"
	 viewBox="0 0 30 30" style="enable-background:new 0 0 30 30;" xml:space="preserve">
<style type="text/css">
	.st0{fill:none;stroke:#000000;stroke-linecap:round;stroke-miterlimit:10;}
	.st1{fill:none;stroke:#000000;stroke-linecap:round;stroke-miterlimit:10;stroke-dasharray:1.0302,2.0605;}
	.st2{fill:none;stroke:#000000;stroke-linecap:round;stroke-miterlimit:10;stroke-dasharray:0.9778,1.9556;}
	.st3{fill:none;stroke:#000000;stroke-linecap:round;stroke-miterlimit:10;stroke-dasharray:1.0721,2.1442;}
	.st4{fill:none;stroke:#000000;stroke-linecap:round;stroke-miterlimit:10;stroke-dasharray:1,2;}
</style>
<g>
	<g>
		<g>
			<path class="st0" d="M15.5,13.5c0.1-0.1,0.2-0.3,0.3-0.4"/>
			<path class="st1" d="M17.3,11.7c1.2-1,2.8-1.8,4.7-2.1"/>
			<path class="st0" d="M23,9.5c0.2,0,0.3,0,0.5,0"/>
		</g>
	</g>
	<g>
		<g>
			<path class="st0" d="M13.5,17.5c-0.1,0.1-0.2,0.3-0.3,0.4"/>
			<path class="st2" d="M11.6,19.1c-1.2,0.7-2.8,1.2-4.7,1.4"/>
			<path class="st0" d="M6,20.5c-0.2,0-0.3,0-0.5,0"/>
		</g>
	</g>
	<g>
		<g>
			<path class="st0" d="M5.5,9.5c0.2,0,0.3,0,0.5,0"/>
			<path class="st3" d="M8.1,9.8c3.1,0.7,4.8,2.9,6.4,5.7c1.8,3.1,3.6,4.6,7.4,4.9"/>
			<path class="st0" d="M23,20.5c0.2,0,0.3,0,0.5,0"/>
		</g>
	</g>
	<polyline class="st0" points="23.5,6.5 25.5,9.5 23.5,12.5 	"/>
	<polyline class="st0" points="23.5,17.5 25.5,20.5 23.5,23.5 	"/>
</g>
</svg>
