<?xml version="1.0" encoding="utf-8"?>
<!-- Generator: Adobe Illustrator 23.0.6, SVG Export Plug-In . SVG Version: 6.00 Build 0)  -->
<svg version="1.1" id="Layer_1" xmlns="http://www.w3.org/2000/svg" xmlns:xlink="http://www.w3.org/1999/xlink" x="0px" y="0px"
	 viewBox="0 0 30 30" style="enable-background:new 0 0 30 30;" xml:space="preserve">
<style type="text/css">
	.st0{fill:none;stroke:#231F20;stroke-width:1.5;stroke-linecap:round;stroke-miterlimit:10;}
	.st1{fill:none;stroke:#231F20;stroke-width:1.5;stroke-linecap:round;stroke-linejoin:round;stroke-miterlimit:10;}
	.st2{fill:none;stroke:#231F20;stroke-linecap:round;stroke-miterlimit:10;}
	.st3{fill:none;stroke:#231F20;stroke-linecap:round;stroke-miterlimit:10;stroke-dasharray:1.0302,2.0605;}
	.st4{fill:none;stroke:#231F20;stroke-linecap:round;stroke-miterlimit:10;stroke-dasharray:0.9778,1.9556;}
	.st5{fill:none;stroke:#231F20;stroke-linecap:round;stroke-miterlimit:10;stroke-dasharray:1.0721,2.1442;}
	.st6{fill:none;stroke:#231F20;stroke-linecap:round;stroke-miterlimit:10;stroke-dasharray:1,2;}
	.st7{fill:#231F20;}
	.st8{fill:none;stroke:#FFFFFF;stroke-width:2;stroke-linecap:round;stroke-miterlimit:10;}
	.st9{fill:#FFFFFF;}
	.st10{fill:#DFC669;}
	.st11{fill:none;stroke:#231F20;stroke-width:2;stroke-linecap:round;stroke-miterlimit:10;}
</style>
<rect x="7.5" y="6" class="st1" width="15" height="18"/>
<path class="st7" d="M15,21.5L15,21.5c-0.6,0-1-0.4-1-1v0c0-0.6,0.4-1,1-1h0c0.6,0,1,0.4,1,1v0C16,21.1,15.6,21.5,15,21.5z"/>
<path class="st7" d="M12,8.5c-1,0-1.9,0.8-2,1.8h1.5c0.1,0,0.2,0.1,0.2,0.2s-0.1,0.2-0.2,0.2H10c0.1,1,1,1.8,2,1.8c1.1,0,2-0.9,2-2
	S13.1,8.5,12,8.5z"/>
<path class="st7" d="M18.5,10.8c-0.1,0-0.2-0.1-0.2-0.2s0.1-0.2,0.2-0.2H20c-0.1-1-1-1.8-2-1.8c-1.1,0-2,0.9-2,2s0.9,2,2,2
	c1,0,1.9-0.8,2-1.8H18.5z"/>
<path class="st7" d="M15.5,15.8c-0.1,0-0.2-0.1-0.2-0.2s0.1-0.2,0.2-0.2H17c-0.1-1-1-1.8-2-1.8c-1.1,0-2,0.9-2,2s0.9,2,2,2
	c1,0,1.9-0.8,2-1.8H15.5z"/>
</svg>
