<?xml version="1.0" encoding="utf-8"?>
<!-- Generator: Adobe Illustrator 24.0.0, SVG Export Plug-In . SVG Version: 6.00 Build 0)  -->
<svg version="1.1" id="Layer_1" xmlns="http://www.w3.org/2000/svg" xmlns:xlink="http://www.w3.org/1999/xlink" x="0px" y="0px"
	 viewBox="0 0 60 60" style="enable-background:new 0 0 60 60;" xml:space="preserve">
<style type="text/css">
	.st0{fill:#838080;}
	.st1{fill:none;stroke:#838080;stroke-width:3;stroke-linecap:round;stroke-miterlimit:10;}
</style>
<path class="st0" d="M13.6,41.1h-10c-0.4,0-0.7-0.3-0.7-0.7V19.6c0-0.4,0.3-0.7,0.7-0.7h10V41.1z"/>
<path class="st0" d="M32.5,53.7L16.3,41.1V18.9L32.5,6.3c0.4-0.4,1.1,0,1.1,0.5v46.4C33.5,53.8,32.9,54.1,32.5,53.7z"/>
<path class="st1" d="M40.6,20.6c5.2,0,9.4,4.1,9.4,9.4s-4.1,9.4-9.4,9.4"/>
<path class="st1" d="M41,13.4c9.2,0,16.6,7.5,16.6,16.6S50.1,46.6,41,46.6"/>
</svg>
