<?xml version="1.0" encoding="utf-8"?>
<!-- Generator: Adobe Illustrator 24.0.0, SVG Export Plug-In . SVG Version: 6.00 Build 0)  -->
<svg version="1.1" id="Layer_1" xmlns="http://www.w3.org/2000/svg" xmlns:xlink="http://www.w3.org/1999/xlink" x="0px" y="0px"
	 viewBox="0 0 30 30" style="enable-background:new 0 0 30 30;" xml:space="preserve">
<style type="text/css">
	.st0{fill:#838080;}
</style>
<path class="st0" d="M15,0C6.7,0,0,6.7,0,15s6.7,15,15,15s15-6.7,15-15S23.3,0,15,0z M23.7,10.3c-0.3,0.5-0.9,0.7-1.4,0.4l-4.6-2.5
	v12.1c0,0,0,0,0,0c0,2.5-2,4.5-4.5,4.5c-2.5,0-4.5-2-4.5-4.5c0-2.5,2-4.5,4.5-4.5c0.9,0,1.8,0.3,2.5,0.8v-10c0-0.4,0.2-0.7,0.5-0.9
	c0.3-0.2,0.7-0.2,1,0l6.1,3.3C23.7,9.2,23.9,9.8,23.7,10.3z"/>
</svg>
