<?xml version="1.0" encoding="utf-8"?>
<!-- Generator: Adobe Illustrator 23.1.1, SVG Export Plug-In . SVG Version: 6.00 Build 0)  -->
<svg version="1.1" id="Layer_1" xmlns="http://www.w3.org/2000/svg" xmlns:xlink="http://www.w3.org/1999/xlink" x="0px" y="0px"
	 viewBox="0 0 300 100" style="enable-background:new 0 0 300 100;" xml:space="preserve">
<style type="text/css">
	.st0{fill:none;stroke:#231F20;stroke-width:1.5;stroke-linecap:round;stroke-miterlimit:10;}
	.st1{fill:none;stroke:#231F20;stroke-width:1.5;stroke-linecap:round;stroke-linejoin:round;stroke-miterlimit:10;}
	.st2{fill:none;stroke:#231F20;stroke-linecap:round;stroke-miterlimit:10;}
	.st3{fill:none;stroke:#231F20;stroke-linecap:round;stroke-miterlimit:10;stroke-dasharray:1.0302,2.0605;}
	.st4{fill:none;stroke:#231F20;stroke-linecap:round;stroke-miterlimit:10;stroke-dasharray:0.9778,1.9556;}
	.st5{fill:none;stroke:#231F20;stroke-linecap:round;stroke-miterlimit:10;stroke-dasharray:1.0721,2.1442;}
	.st6{fill:none;stroke:#231F20;stroke-linecap:round;stroke-miterlimit:10;stroke-dasharray:1,2;}
	.st7{fill:#231F20;}
	.st8{fill:none;stroke:#FFFFFF;stroke-width:2;stroke-linecap:round;stroke-miterlimit:10;}
	.st9{fill:#FFFFFF;}
	.st10{fill:#DFC669;}
	.st11{fill:#EF569F;}
	.st12{fill:none;stroke:#231F20;stroke-width:2;stroke-linecap:round;stroke-miterlimit:10;}
	.st13{fill:#036C9B;}
	.st14{fill:#08C792;}
	.st15{fill:#3F3F3F;}
	.st16{fill:#A3A3A5;}
	.st17{fill:#B21F25;}
	.st18{fill:#E87E57;}
	.st19{fill:#D1D0D5;}
	.st20{fill:#2394A0;}
	.st21{fill:#838080;}
	.st22{fill:#55AF2F;}
	.st23{fill:#9C8035;}
</style>
<g>
	<path class="st20" d="M23.3,31.9c2.9-0.3,4.7-0.6,9.5-1.7c14.7-3,20.2-3.8,27.5-3.8c7.6,0,13.5,1.5,17.9,4.5
		c5.6,4,8.9,10.4,8.9,17.9c0,10.6-6.2,19.7-16.8,24.8c-7.3,3.5-14.3,5.1-27,6.3c-1.7-6.5-2.3-7.8-5.1-13c8.9-0.1,15-0.9,20.5-2.5
		c5.7-1.7,9.7-4.3,12.4-8.1c1.6-2.2,2.3-4.5,2.3-7.2c0-2.9-0.9-5.2-2.7-7c-2.3-2.4-5.6-3.5-10.7-3.5c-7.6,0-16.3,1.6-27.7,5.1
		c-2.7,0.8-4.5,1.5-6.2,2.3L23.3,31.9z"/>
	<path class="st20" d="M97.5,21.1c3,0.4,5.7,0.5,10.4,0.5c6.4,0,14.4-0.3,21.7-0.9c3.2-0.2,4.1-0.4,5.5-1l5.9,8.7
		c-1.9,1.1-1.9,1.1-11.6,9.4c-3.8,3.2-5.1,4.3-9.9,7.8c4-1,6.1-1.3,9.9-1.3c6.8,0,11.6,1.6,15.4,4.9c3.5,3.1,5.3,7.3,5.3,12.5
		c0,7.3-3.4,13-9.9,16.9c-5,2.9-11.9,4.5-19.1,4.5c-12.2,0-19.6-4.8-19.6-12.8c0-6.7,6-11.5,14.3-11.5c5.2,0,9.8,2,12.9,5.5
		c1.4,1.6,2.2,3,3.3,5.7c3.9-1.7,5.7-4.2,5.7-7.8c0-5-4.9-8.1-12.9-8.1c-7.6,0-15.7,2.4-22.2,6.6c-2.2,1.4-4.5,3.2-6.9,5.4
		l-6.7-10.9c6.6-3.1,21.8-14.9,30.7-23.8c-3.8,0.4-6.7,0.6-16.8,1.1c-1.9,0.1-3.3,0.2-4.8,0.4L97.5,21.1z M115.4,68
		c-1.7,0-2.8,0.9-2.8,2.4c0,1.9,2.3,3.2,6.2,3.2c0.9,0,1,0,2.4-0.2C120.2,69.9,118.2,68,115.4,68z"/>
	<path class="st20" d="M148.6,31.9c2.9-0.3,4.7-0.6,9.5-1.7c14.7-3,20.2-3.8,27.5-3.8c7.6,0,13.5,1.5,17.9,4.5
		c5.6,4,8.9,10.4,8.9,17.9c0,10.6-6.2,19.7-16.8,24.8c-7.3,3.5-14.3,5.1-27,6.3c-1.7-6.5-2.3-7.8-5.1-13c8.9-0.1,15-0.9,20.5-2.5
		c5.7-1.7,9.7-4.3,12.4-8.1c1.6-2.2,2.3-4.5,2.3-7.2c0-2.9-0.9-5.2-2.7-7c-2.3-2.4-5.6-3.5-10.7-3.5c-7.6,0-16.3,1.6-27.7,5.1
		c-2.7,0.8-4.5,1.5-6.2,2.3L148.6,31.9z"/>
	<path class="st20" d="M222.8,21.1c3,0.4,5.7,0.5,10.4,0.5c6.4,0,14.4-0.3,21.7-0.9c3.2-0.2,4.1-0.4,5.5-1l5.9,8.7
		c-1.9,1.1-1.9,1.1-11.6,9.4c-3.8,3.2-5.1,4.3-9.9,7.8c4-1,6.1-1.3,9.9-1.3c6.8,0,11.6,1.6,15.4,4.9c3.5,3.1,5.3,7.3,5.3,12.5
		c0,7.3-3.4,13-9.9,16.9c-5,2.9-11.9,4.5-19.1,4.5c-12.2,0-19.6-4.8-19.6-12.8c0-6.7,6-11.5,14.3-11.5c5.2,0,9.8,2,12.9,5.5
		c1.4,1.6,2.2,3,3.3,5.7c3.9-1.7,5.7-4.2,5.7-7.8c0-5-4.9-8.1-12.9-8.1c-7.6,0-15.7,2.4-22.2,6.6c-2.2,1.4-4.5,3.2-6.9,5.4
		l-6.7-10.9c6.6-3.1,21.8-14.9,30.7-23.8c-3.8,0.4-6.7,0.6-16.8,1.1c-1.9,0.1-3.3,0.2-4.8,0.4L222.8,21.1z M240.6,68
		c-1.7,0-2.8,0.9-2.8,2.4c0,1.9,2.3,3.2,6.2,3.2c0.9,0,1,0,2.4-0.2C245.5,69.9,243.5,68,240.6,68z"/>
</g>
</svg>
