<?xml version="1.0" encoding="utf-8"?>
<!-- Generator: Adobe Illustrator 23.1.1, SVG Export Plug-In . SVG Version: 6.00 Build 0)  -->
<svg version="1.1" id="Layer_1" xmlns="http://www.w3.org/2000/svg" xmlns:xlink="http://www.w3.org/1999/xlink" x="0px" y="0px"
	 viewBox="0 0 300 100" style="enable-background:new 0 0 300 100;" xml:space="preserve">
<style type="text/css">
	.st0{fill:none;stroke:#231F20;stroke-width:1.5;stroke-linecap:round;stroke-miterlimit:10;}
	.st1{fill:none;stroke:#231F20;stroke-width:1.5;stroke-linecap:round;stroke-linejoin:round;stroke-miterlimit:10;}
	.st2{fill:none;stroke:#231F20;stroke-linecap:round;stroke-miterlimit:10;}
	.st3{fill:none;stroke:#231F20;stroke-linecap:round;stroke-miterlimit:10;stroke-dasharray:1.0302,2.0605;}
	.st4{fill:none;stroke:#231F20;stroke-linecap:round;stroke-miterlimit:10;stroke-dasharray:0.9778,1.9556;}
	.st5{fill:none;stroke:#231F20;stroke-linecap:round;stroke-miterlimit:10;stroke-dasharray:1.0721,2.1442;}
	.st6{fill:none;stroke:#231F20;stroke-linecap:round;stroke-miterlimit:10;stroke-dasharray:1,2;}
	.st7{fill:#231F20;}
	.st8{fill:none;stroke:#FFFFFF;stroke-width:2;stroke-linecap:round;stroke-miterlimit:10;}
	.st9{fill:#FFFFFF;}
	.st10{fill:#DFC669;}
	.st11{fill:#EF569F;}
	.st12{fill:none;stroke:#231F20;stroke-width:2;stroke-linecap:round;stroke-miterlimit:10;}
	.st13{fill:#036C9B;}
	.st14{fill:#08C792;}
	.st15{fill:#3F3F3F;}
	.st16{fill:#A3A3A5;}
	.st17{fill:#B21F25;}
	.st18{fill:#E87E57;}
	.st19{fill:#D1D0D5;}
	.st20{fill:#2394A0;}
	.st21{fill:#838080;}
	.st22{fill:#55AF2F;}
	.st23{fill:#9C8035;}
</style>
<g>
	<path class="st17" d="M6.2,43.4c1.9,0,1.9,0,7.9-1c8.5-1.4,13.9-1.9,20.2-1.9c7.9,0,13,2.1,15.8,6.6c1.5,2.4,2.3,5.1,2.3,8.1
		c0,7.4-4.7,14.3-12.5,18.4c-5.2,2.8-10.6,4.2-20.5,5.4c-1.1-4.4-2-6.6-4.1-10.3c7-0.3,12.3-1.2,16.7-2.9c4-1.5,6.7-3.5,8.1-6.1
		c0.7-1.3,1.1-2.8,1.1-4.1c0-3.6-2.6-5.5-7.6-5.5c-7,0-18.8,2-25,4.3L6.2,43.4z M16.1,23.8c7.3,2.2,15.5,3.3,24.8,3.3
		c1.1,0,2.1,0,4.1-0.1l-1.3,10.2c-12.2-0.4-21.2-1.4-30.8-3.7L16.1,23.8z"/>
	<path class="st17" d="M67.9,25.7c-0.7,3.8-1.4,19.8-1.4,29.8c0,6,0.2,7.8,1.3,9.4c1.1,1.8,3.7,2.9,7,2.9c6.2,0,11-3.7,13.3-10.1
		c1.2-3.2,1.9-6.4,2.4-10.9c4.1,3.3,6.8,4.9,10.3,6.3c-2.3,9-4.3,13.4-7.6,17c-4.7,5.2-11,7.7-18.8,7.7c-6.1,0-10.7-1.5-13.9-4.6
		c-3.4-3.3-4.6-7.1-4.6-15.5c0-1.6,0-1.6,0.3-13.6c0.1-6.1,0.2-11.8,0.2-14.1c0-1.9-0.1-2.8-0.3-4.6L67.9,25.7z M85.9,28.4
		c2.5,2.7,4.5,5.7,6.2,8.9l-5.7,2.8c-1.9-3.7-3.7-6.4-6.2-9.1L85.9,28.4z M93.8,24.8c2.3,2.3,4.1,5,6.2,8.6l-5.5,2.7
		c-2-3.8-3.9-6.5-6.1-8.9L93.8,24.8z"/>
	<path class="st17" d="M117.2,35.1c0.2,1.3,0.4,2.2,0.8,4c0.1,0.4,0.1,0.4,0.8,2.8c0.3,0.8,0.3,1,0.7,2.2c3.2-0.8,3.4-0.9,6.7-1.6
		c0-4.1-0.2-7.4-0.4-8.5h9.2c-0.2,1.7-0.2,3.4-0.3,7.4c0.7-0.1,1.1-0.1,1.7-0.1c7.7,0,12.5,4.4,12.5,11.5c0,4.2-1.6,7.5-4.8,9.8
		c-2.6,1.9-6.2,2.9-9.8,2.9c-2.2,0-4.4-0.3-7.1-1c-0.2-3.4-0.5-5.9-1.4-9.1c3.5,1.4,5,1.7,7.5,1.7c4,0,6.4-1.6,6.4-4.2
		c0-2.3-1.7-3.6-4.7-3.6c-2.2,0-5.4,0.4-8.4,1.1c-0.6,0.1-2.2,0.6-4.7,1.3c0.4,1.6,0.4,1.6,1.4,5.3c1.1,4.1,1.2,4.3,3.8,15.1
		c0.8,3.4,1,3.8,1.6,5.5l-9.8,2.1c-0.1-2-0.2-2.4-1.4-8.4c-1.1-5.5-2.3-10.3-4.1-17c-4.5,1.4-5.9,1.9-8,2.9l-2.6-8.5
		c1.6-0.3,1.6-0.3,8.5-2.4c-1.3-4.4-2.2-6.8-3.2-8.9L117.2,35.1z"/>
	<path class="st17" d="M151.5,43.4c1.9,0,1.9,0,7.9-1c8.5-1.4,13.9-1.9,20.2-1.9c7.9,0,13,2.1,15.8,6.6c1.5,2.4,2.3,5.1,2.3,8.1
		c0,7.4-4.7,14.3-12.5,18.4c-5.2,2.8-10.6,4.2-20.5,5.4c-1.1-4.4-2-6.6-4.1-10.3c7-0.3,12.3-1.2,16.7-2.9c4-1.5,6.7-3.5,8.1-6.1
		c0.7-1.3,1.1-2.8,1.1-4.1c0-3.6-2.6-5.5-7.6-5.5c-7,0-18.8,2-25,4.3L151.5,43.4z M161.3,23.8c7.3,2.2,15.5,3.3,24.8,3.3
		c1.1,0,2.1,0,4.1-0.1L189,37.2c-12.2-0.4-21.2-1.4-30.8-3.7L161.3,23.8z"/>
	<path class="st17" d="M213.2,25.7c-0.7,3.8-1.4,19.8-1.4,29.8c0,6,0.2,7.8,1.3,9.4c1.1,1.8,3.7,2.9,7,2.9c6.2,0,11-3.7,13.3-10.1
		c1.2-3.2,1.9-6.4,2.4-10.9c4.1,3.3,6.8,4.9,10.3,6.3c-2.3,9-4.3,13.4-7.6,17c-4.7,5.2-11,7.7-18.8,7.7c-6.1,0-10.7-1.5-13.9-4.6
		c-3.4-3.3-4.6-7.1-4.6-15.5c0-1.6,0-1.6,0.3-13.6c0.1-6.1,0.2-11.8,0.2-14.1c0-1.9-0.1-2.8-0.3-4.6L213.2,25.7z M231.1,28.4
		c2.5,2.7,4.5,5.7,6.2,8.9l-5.7,2.8c-1.9-3.7-3.7-6.4-6.2-9.1L231.1,28.4z M239.1,24.8c2.3,2.3,4.1,5,6.2,8.6l-5.5,2.7
		c-2-3.8-3.9-6.5-6.1-8.9L239.1,24.8z"/>
	<path class="st17" d="M262.5,35.1c0.2,1.3,0.4,2.2,0.8,4c0.1,0.4,0.1,0.4,0.8,2.8c0.3,0.8,0.3,1,0.7,2.2c3.2-0.8,3.4-0.9,6.7-1.6
		c0-4.1-0.2-7.4-0.4-8.5h9.2c-0.2,1.7-0.2,3.4-0.3,7.4c0.7-0.1,1.1-0.1,1.7-0.1c7.7,0,12.5,4.4,12.5,11.5c0,4.2-1.6,7.5-4.8,9.8
		c-2.6,1.9-6.2,2.9-9.8,2.9c-2.2,0-4.4-0.3-7.1-1c-0.2-3.4-0.5-5.9-1.4-9.1c3.5,1.4,5,1.7,7.5,1.7c4,0,6.4-1.6,6.4-4.2
		c0-2.3-1.7-3.6-4.7-3.6c-2.2,0-5.4,0.4-8.4,1.1c-0.6,0.1-2.2,0.6-4.7,1.3c0.4,1.6,0.4,1.6,1.4,5.3c1.1,4.1,1.2,4.3,3.8,15.1
		c0.8,3.4,1,3.8,1.6,5.5l-9.8,2.1c-0.1-2-0.2-2.4-1.4-8.4c-1.1-5.5-2.3-10.3-4.1-17c-4.5,1.4-5.9,1.9-8,2.9l-2.6-8.5
		c1.6-0.3,1.6-0.3,8.5-2.4c-1.3-4.4-2.2-6.8-3.2-8.9L262.5,35.1z"/>
</g>
</svg>
