<?xml version="1.0" encoding="utf-8"?>
<!-- Generator: Adobe Illustrator 23.1.1, SVG Export Plug-In . SVG Version: 6.00 Build 0)  -->
<svg version="1.1" id="Layer_1" xmlns="http://www.w3.org/2000/svg" xmlns:xlink="http://www.w3.org/1999/xlink" x="0px" y="0px"
	 viewBox="0 0 300 100" style="enable-background:new 0 0 300 100;" xml:space="preserve">
<style type="text/css">
	.st0{fill:none;stroke:#231F20;stroke-width:1.5;stroke-linecap:round;stroke-miterlimit:10;}
	.st1{fill:none;stroke:#231F20;stroke-width:1.5;stroke-linecap:round;stroke-linejoin:round;stroke-miterlimit:10;}
	.st2{fill:none;stroke:#231F20;stroke-linecap:round;stroke-miterlimit:10;}
	.st3{fill:none;stroke:#231F20;stroke-linecap:round;stroke-miterlimit:10;stroke-dasharray:1.0302,2.0605;}
	.st4{fill:none;stroke:#231F20;stroke-linecap:round;stroke-miterlimit:10;stroke-dasharray:0.9778,1.9556;}
	.st5{fill:none;stroke:#231F20;stroke-linecap:round;stroke-miterlimit:10;stroke-dasharray:1.0721,2.1442;}
	.st6{fill:none;stroke:#231F20;stroke-linecap:round;stroke-miterlimit:10;stroke-dasharray:1,2;}
	.st7{fill:#231F20;}
	.st8{fill:none;stroke:#FFFFFF;stroke-width:2;stroke-linecap:round;stroke-miterlimit:10;}
	.st9{fill:#FFFFFF;}
	.st10{fill:#DFC669;}
	.st11{fill:#EF569F;}
	.st12{fill:none;stroke:#231F20;stroke-width:2;stroke-linecap:round;stroke-miterlimit:10;}
	.st13{fill:#036C9B;}
	.st14{fill:#08C792;}
	.st15{fill:#3F3F3F;}
	.st16{fill:#A3A3A5;}
	.st17{fill:#B21F25;}
	.st18{fill:#E87E57;}
	.st19{fill:#D1D0D5;}
	.st20{fill:#2394A0;}
	.st21{fill:#838080;}
	.st22{fill:#55AF2F;}
	.st23{fill:#9C8035;}
</style>
<g>
	<path class="st11" d="M31.9,41.2c2.2,0,2.2,0,9.5-1.2c10.2-1.7,16.7-2.2,24.2-2.2c9.4,0,15.6,2.5,18.9,7.9c1.8,2.9,2.7,6.1,2.7,9.7
		c0,8.9-5.7,17.2-15,22.1c-6.3,3.3-12.7,5-24.6,6.5c-1.3-5.3-2.4-7.9-5-12.4c8.4-0.4,14.8-1.4,20-3.5c4.8-1.8,8.1-4.2,9.7-7.3
		c0.9-1.6,1.4-3.4,1.4-4.9c0-4.3-3.2-6.6-9.1-6.6c-8.4,0-22.6,2.4-30,5.2L31.9,41.2z M43.7,17.7c8.7,2.7,18.6,4,29.8,4
		c1.3,0,2.5,0,5-0.1l-1.6,12.2c-14.6-0.4-25.5-1.7-36.9-4.4L43.7,17.7z"/>
	<path class="st11" d="M92.7,26.8c2.5,0.3,4.9,0.4,8.2,0.4c4.1,0,9.6-0.2,12.9-0.5c-1.5-4-2.4-5.9-3-7.2l12.6-1.5
		c0.4,2.3,0.9,4,2.2,7.5c6.9-0.9,15.3-2.7,19.5-4l1,10.5c-1.4,0.3-1.4,0.3-5.3,1.1c-4.2,0.9-4.2,0.9-11.4,2.1
		c0.6,1.4,1.4,3.2,1.7,3.7c10-1.8,13.5-2.6,16.8-3.8l1.1,10.6c-1.7,0.2-1.7,0.2-8.9,1.7c-0.1,0-3.4,0.6-4.3,0.8
		c3,5.2,5,8.1,9.2,13.2l-10.6,5.5c-4.2-2.2-8.9-3.2-15.1-3.2c-8,0-12.4,1.7-12.4,4.7c0,2.7,3.7,4,11.4,4c8.3,0,17.1-1.7,22.9-4.5
		l1.7,12.2c-1.5,0.2-1.5,0.2-5,1c-6.8,1.5-13.5,2.2-20.2,2.2c-10.9,0-18.3-2.3-21.8-6.8c-1.7-2.2-2.7-5.1-2.7-7.9
		c0-5,3.3-9.6,8.6-11.9c4.2-1.8,9.1-2.7,15.4-2.7c3.8,0,6.7,0.2,9.9,0.9c-0.8-1.1-1.9-2.8-3.3-5.1c-6.1,0.8-14.4,1.3-24.8,1.6
		c-4.3,0.1-4.5,0.1-6.3,0.4L92.1,41c2.1,0.2,3.5,0.3,7.4,0.3c6.9,0,13.8-0.4,19.7-1c-0.2-0.6-0.8-1.9-1.7-3.8
		c-6.3,0.6-9.6,0.8-18.8,0.8c-3.2,0.1-3.7,0.1-5.4,0.1L92.7,26.8z"/>
	<path class="st11" d="M151.9,41.2c2.2,0,2.2,0,9.5-1.2c10.2-1.7,16.7-2.2,24.2-2.2c9.4,0,15.6,2.5,18.9,7.9
		c1.8,2.9,2.7,6.1,2.7,9.7c0,8.9-5.7,17.2-15,22.1c-6.3,3.3-12.7,5-24.6,6.5c-1.3-5.3-2.4-7.9-5-12.4c8.4-0.4,14.8-1.4,20-3.5
		c4.8-1.8,8.1-4.2,9.7-7.3c0.9-1.6,1.4-3.4,1.4-4.9c0-4.3-3.2-6.6-9.1-6.6c-8.4,0-22.6,2.4-30,5.2L151.9,41.2z M163.7,17.7
		c8.7,2.7,18.6,4,29.8,4c1.3,0,2.5,0,5-0.1l-1.6,12.2c-14.6-0.4-25.5-1.7-36.9-4.4L163.7,17.7z"/>
	<path class="st11" d="M212.7,26.8c2.5,0.3,4.9,0.4,8.2,0.4c4.1,0,9.6-0.2,12.9-0.5c-1.5-4-2.4-5.9-3-7.2l12.6-1.5
		c0.4,2.3,0.9,4,2.2,7.5c6.9-0.9,15.3-2.7,19.5-4l1,10.5c-1.4,0.3-1.4,0.3-5.3,1.1c-4.2,0.9-4.2,0.9-11.4,2.1
		c0.6,1.4,1.4,3.2,1.7,3.7c10-1.8,13.5-2.6,16.8-3.8l1.1,10.6c-1.7,0.2-1.7,0.2-8.9,1.7c-0.1,0-3.4,0.6-4.3,0.8
		c3,5.2,5,8.1,9.2,13.2l-10.6,5.5c-4.2-2.2-8.9-3.2-15.1-3.2c-8,0-12.4,1.7-12.4,4.7c0,2.7,3.7,4,11.4,4c8.3,0,17.1-1.7,22.9-4.5
		l1.7,12.2c-1.5,0.2-1.5,0.2-5,1c-6.8,1.5-13.5,2.2-20.2,2.2c-10.9,0-18.3-2.3-21.8-6.8c-1.7-2.2-2.7-5.1-2.7-7.9
		c0-5,3.3-9.6,8.6-11.9c4.2-1.8,9.1-2.7,15.4-2.7c3.8,0,6.7,0.2,9.9,0.9c-0.8-1.1-1.9-2.8-3.3-5.1c-6.1,0.8-14.4,1.3-24.8,1.6
		c-4.3,0.1-4.5,0.1-6.3,0.4L212.1,41c2.1,0.2,3.5,0.3,7.4,0.3c6.9,0,13.8-0.4,19.7-1c-0.2-0.6-0.8-1.9-1.7-3.8
		c-6.3,0.6-9.6,0.8-18.8,0.8c-3.2,0.1-3.7,0.1-5.4,0.1L212.7,26.8z"/>
</g>
</svg>
