<?xml version="1.0" encoding="utf-8"?>
<!-- Generator: Adobe Illustrator 23.1.1, SVG Export Plug-In . SVG Version: 6.00 Build 0)  -->
<svg version="1.1" id="Layer_1" xmlns="http://www.w3.org/2000/svg" xmlns:xlink="http://www.w3.org/1999/xlink" x="0px" y="0px"
	 viewBox="0 0 300 100" style="enable-background:new 0 0 300 100;" xml:space="preserve">
<style type="text/css">
	.st0{fill:none;stroke:#231F20;stroke-width:1.5;stroke-linecap:round;stroke-miterlimit:10;}
	.st1{fill:none;stroke:#231F20;stroke-width:1.5;stroke-linecap:round;stroke-linejoin:round;stroke-miterlimit:10;}
	.st2{fill:none;stroke:#231F20;stroke-linecap:round;stroke-miterlimit:10;}
	.st3{fill:none;stroke:#231F20;stroke-linecap:round;stroke-miterlimit:10;stroke-dasharray:1.0302,2.0605;}
	.st4{fill:none;stroke:#231F20;stroke-linecap:round;stroke-miterlimit:10;stroke-dasharray:0.9778,1.9556;}
	.st5{fill:none;stroke:#231F20;stroke-linecap:round;stroke-miterlimit:10;stroke-dasharray:1.0721,2.1442;}
	.st6{fill:none;stroke:#231F20;stroke-linecap:round;stroke-miterlimit:10;stroke-dasharray:1,2;}
	.st7{fill:#231F20;}
	.st8{fill:none;stroke:#FFFFFF;stroke-width:2;stroke-linecap:round;stroke-miterlimit:10;}
	.st9{fill:#FFFFFF;}
	.st10{fill:#DFC669;}
	.st11{fill:#EF569F;}
	.st12{fill:none;stroke:#231F20;stroke-width:2;stroke-linecap:round;stroke-miterlimit:10;}
	.st13{fill:#036C9B;}
	.st14{fill:#08C792;}
	.st15{fill:#3F3F3F;}
	.st16{fill:#A3A3A5;}
	.st17{fill:#B21F25;}
	.st18{fill:#E87E57;}
	.st19{fill:#D1D0D5;}
	.st20{fill:#2394A0;}
	.st21{fill:#838080;}
	.st22{fill:#55AF2F;}
	.st23{fill:#9C8035;}
</style>
<g>
	<path class="st22" d="M40.9,24.6c-0.6,1.7-1,3.5-1.5,6.3c-0.5,2.7-0.6,3.2-1.1,7.3c-0.1,1.9-0.1,1.9-0.4,3.3
		c4.5-7,10.4-11.2,18.2-13c-0.1-1.1-0.1-1.1-0.2-3c-0.3-4.4-0.4-5.5-0.9-7.5l12.7-0.2c-0.1,0.8-0.1,1.2-0.1,1.6
		c0,1.1,0.2,6.4,0.4,8.2c4.5,0.1,8.3,1.2,11.9,3.4c6.5,4,9.9,10.5,9.9,18.8c0,13.2-10,22.9-23.7,22.9c-0.7,0-1.4,0-2.5-0.1
		c-3.5,5.6-6.9,8.9-13.2,13c-3.2-3.5-5.5-5.3-10.1-8.3c4.5-2,8.1-4.8,10.7-8.2c-4-2.1-6.8-4.5-10-8.7c2.7-3.5,4-6,5.8-10.5
		c2.6,4.7,5,7.2,8.7,9.2c1.1-4.5,1.4-7.8,1.4-15.3c0-1.7,0-2.3-0.1-4c-5.5,1.9-10.2,5.7-13.6,10.9c-3.1,4.8-4.4,8.9-4.4,14.1
		c0,1.7,0.1,2.5,0.2,4.2l-11.4,0.6c0-1.7,0-1.7-0.4-5.9c-0.3-3.5-0.5-8.4-0.5-12.2c0-6.6,0.6-14.8,1.7-22.5c0.4-2.7,0.4-3,0.4-4.9
		L40.9,24.6z M68.6,45.6c0,6.4-0.4,10.7-1.4,15.2c6-0.4,10.4-5.4,10.4-12c0-5.9-3.2-9.5-9.1-10.2C68.6,41.6,68.6,42.7,68.6,45.6z"/>
	<path class="st22" d="M108.9,33.4c-1,3.9-2.2,10.7-3.1,17.5c6-3.9,12.4-5.6,20.6-5.6c12.8,0,21.3,6.7,21.3,16.9
		c0,6.2-3,11.7-8.1,15.3s-11.7,5.2-20.6,5.2c-5.9,0-11-0.6-18.1-2.2c-0.2-6-0.5-8.3-1.7-12.8c7.1,2.2,13.8,3.4,19.2,3.4
		c9.5,0,15.8-3.4,15.8-8.5c0-3.8-3.7-6-10.2-6c-5.4,0-10.9,1.4-15.8,4.3c-1.9,1-2.6,1.7-4,3.2l-12-0.5c0.1-0.6,0.1-0.7,0.2-1.4
		c0.4-3.5,1.9-15,3.3-24.9c0.2-1.6,0.4-2.7,0.4-4.6L108.9,33.4z M107.6,17.5c3.5,1.8,7.8,3.3,14.7,5.1c4.9,1.3,11.1,2.6,14.5,3.1
		l-3.8,11.6c-13-2.7-22.7-5.5-31.1-9.4L107.6,17.5z"/>
	<path class="st22" d="M167.6,24.6c-0.6,1.7-1,3.5-1.5,6.3c-0.5,2.7-0.6,3.2-1.1,7.3c-0.1,1.9-0.1,1.9-0.4,3.3
		c4.5-7,10.4-11.2,18.2-13c-0.1-1.1-0.1-1.1-0.2-3c-0.3-4.4-0.4-5.5-0.9-7.5l12.7-0.2c-0.1,0.8-0.1,1.2-0.1,1.6
		c0,1.1,0.2,6.4,0.4,8.2c4.5,0.1,8.3,1.2,11.9,3.4c6.5,4,9.9,10.5,9.9,18.8c0,13.2-10,22.9-23.7,22.9c-0.7,0-1.4,0-2.5-0.1
		c-3.5,5.6-6.9,8.9-13.2,13c-3.2-3.5-5.5-5.3-10.1-8.3c4.5-2,8.1-4.8,10.7-8.2c-4-2.1-6.8-4.5-10-8.7c2.7-3.5,4-6,5.8-10.5
		c2.6,4.7,5,7.2,8.7,9.2c1.1-4.5,1.4-7.8,1.4-15.3c0-1.7,0-2.3-0.1-4c-5.5,1.9-10.2,5.7-13.6,10.9c-3.1,4.8-4.4,8.9-4.4,14.1
		c0,1.7,0.1,2.5,0.2,4.2l-11.4,0.6c0-1.7,0-1.7-0.4-5.9c-0.3-3.5-0.5-8.4-0.5-12.2c0-6.6,0.6-14.8,1.7-22.5c0.4-2.7,0.4-3,0.4-4.9
		L167.6,24.6z M195.2,45.6c0,6.4-0.4,10.7-1.4,15.2c6-0.4,10.4-5.4,10.4-12c0-5.9-3.2-9.5-9.1-10.2
		C195.2,41.6,195.2,42.7,195.2,45.6z"/>
	<path class="st22" d="M235.5,33.4c-1,3.9-2.2,10.7-3.1,17.5c6-3.9,12.4-5.6,20.6-5.6c12.8,0,21.3,6.7,21.3,16.9
		c0,6.2-3,11.7-8.1,15.3s-11.7,5.2-20.6,5.2c-5.9,0-11-0.6-18.1-2.2c-0.2-6-0.5-8.3-1.7-12.8c7.1,2.2,13.8,3.4,19.2,3.4
		c9.5,0,15.8-3.4,15.8-8.5c0-3.8-3.7-6-10.2-6c-5.4,0-10.9,1.4-15.8,4.3c-1.9,1-2.6,1.7-4,3.2l-12-0.5c0.1-0.6,0.1-0.7,0.2-1.4
		c0.4-3.5,1.9-15,3.3-24.9c0.2-1.6,0.4-2.7,0.4-4.6L235.5,33.4z M234.2,17.5c3.5,1.8,7.8,3.3,14.7,5.1c4.9,1.3,11.1,2.6,14.5,3.1
		l-3.8,11.6c-13-2.7-22.7-5.5-31.1-9.4L234.2,17.5z"/>
</g>
</svg>
