<?xml version="1.0" encoding="utf-8"?>
<!-- Generator: Adobe Illustrator 23.0.6, SVG Export Plug-In . SVG Version: 6.00 Build 0)  -->
<svg version="1.1" id="Layer_1" xmlns="http://www.w3.org/2000/svg" xmlns:xlink="http://www.w3.org/1999/xlink" x="0px" y="0px"
	 viewBox="0 0 100 100" style="enable-background:new 0 0 100 100;" xml:space="preserve">
<style type="text/css">
	.st0{fill:#DFC669;}
</style>
<g>
	<path class="st0" d="M44.3,7.6c0.3,2,1.7,6.8,3.3,10.7c3.3-0.5,4.3-0.8,8.9-1.7c-1.2-2.9-2.4-5.3-4.4-8.6l7.1-1.7
		c2,3,3.3,5.5,4.5,8.6c0.5-0.2,0.7-0.2,1.4-0.5l1.7,12.5c-1.7,0.2-2,0.2-3.7,0.6c-4.4,0.8-8.1,1.4-11,1.9c2.3,5,8,14.4,12.8,21
		l-12.5,5c-2.2-2.3-4.1-3.3-8-4.1c-2.6-0.5-5.1-0.8-8.3-0.8c-8.4,0-13.4,2.4-13.4,6.4s4.7,6,13.8,6c8.6,0,17.9-2,23.9-5.1L62,71.3
		c-1.4,0.3-1.8,0.4-3.5,0.8c-9.7,2.3-14.3,2.9-22,2.9c-10.2,0-17.4-1.7-21.8-5.2c-3.8-3.1-5.9-7.4-5.9-12.2c0-4,1.6-7.9,4.4-10.8
		c4.4-4.7,11.7-7,21.6-7c4.1,0,6.3,0.3,10.3,1.5c-1.7-2.3-2.9-4.4-4.7-7.8c-0.8-1.4-0.8-1.5-1.3-2.4c-7,1-12.8,1.4-26.4,1.7
		c-2.3,0.1-2.5,0.1-3.8,0.2L8,20.4c2.9,0.4,4.7,0.5,8.3,0.5c5.8,0,11.6-0.3,18.8-1c-0.2-0.5-0.3-0.8-0.4-0.9c-0.1-0.2-0.4-1-0.8-2.1
		c-1.8-4.7-2.1-5.5-3.1-7.5L44.3,7.6z M69.5,3.9c2.3,3.1,3.7,6,5.5,11l-7,2.3c-1.3-4.1-2.6-7-5.3-11.3L69.5,3.9z"/>
</g>
<g>
	<path class="st0" d="M91.7,45.6c-1.5,0.9-2.1,1.5-7.7,6.5c-3.5,3.1-8.4,7-14.8,11.7c-1.6,1.2-2,1.6-2,2.1c0,0.7,0,0.7,5.7,4.9
		c6.6,4.8,11.7,9,18.5,14.8c0.4,0.3,0.9,0.7,1.9,1.6L84.6,96c-1.5-2-2.8-3.5-6-6.6c-5.2-4.9-7.3-6.7-17.8-14.8c-3-2.4-4.1-3.4-4.9-5
		c-0.5-1.1-0.9-2.7-0.9-4c0-2.1,0.8-4.1,2.2-5.8c0.8-0.9,1.8-1.7,5.5-4.5c8-6,11.7-9.2,15.9-13.4c1.5-1.5,2.1-2.1,3-3.5L91.7,45.6z"
		/>
</g>
</svg>
