<?xml version="1.0" encoding="utf-8"?>
<!-- Generator: Adobe Illustrator 23.0.6, SVG Export Plug-In . SVG Version: 6.00 Build 0)  -->
<svg version="1.1" id="Layer_1" xmlns="http://www.w3.org/2000/svg" xmlns:xlink="http://www.w3.org/1999/xlink" x="0px" y="0px"
	 viewBox="0 0 100 100" style="enable-background:new 0 0 100 100;" xml:space="preserve">
<style type="text/css">
	.st0{fill:#DFC669;}
</style>
<g>
	<path class="st0" d="M43.2,16.3c0.3,2.2,1.8,7.2,3.5,11.4c3.5-0.6,4.6-0.8,9.4-1.8c-1.3-3-2.6-5.6-4.7-9.2l7.5-1.8
		c2.2,3.2,3.5,5.8,4.8,9.2c0.6-0.2,0.7-0.2,1.4-0.5l1.8,13.3c-1.8,0.2-2.1,0.2-3.9,0.6c-4.7,0.8-8.6,1.5-11.8,2
		c2.4,5.4,8.5,15.4,13.7,22.4l-13.3,5.4c-2.4-2.5-4.3-3.5-8.6-4.4c-2.7-0.6-5.4-0.8-8.8-0.8c-9,0-14.3,2.6-14.3,6.8s5,6.4,14.7,6.4
		c9.1,0,19-2.1,25.4-5.4l2,14.3c-1.4,0.3-1.9,0.4-3.7,0.8c-10.3,2.4-15.2,3-23.4,3c-10.9,0-18.6-1.8-23.2-5.5c-4-3.3-6.2-7.9-6.2-13
		c0-4.2,1.7-8.4,4.6-11.5c4.7-5,12.5-7.4,23-7.4c4.3,0,6.7,0.3,11,1.6c-1.8-2.4-3-4.6-5-8.3c-0.8-1.5-0.8-1.6-1.4-2.6
		c-7.4,1-13.7,1.4-28.2,1.8c-2.5,0.1-2.6,0.1-4.1,0.2l-1-13.4c3,0.4,5,0.5,8.8,0.5c6.2,0,12.4-0.3,20-1.1c-0.2-0.5-0.3-0.9-0.4-1
		c-0.1-0.2-0.4-1-0.8-2.2c-1.9-5-2.2-5.8-3.3-8L43.2,16.3z M70,12.3c2.4,3.3,3.9,6.4,5.8,11.7l-7.4,2.4c-1.4-4.3-2.8-7.4-5.6-12.1
		L70,12.3z"/>
</g>
<g>
	<path class="st0" d="M94.8,23.9c-1.3,0.8-1.9,1.3-7,5.9c-3.2,2.8-7.6,6.4-13.5,10.7c-1.5,1.1-1.8,1.4-1.8,1.9c0,0.7,0,0.7,5.2,4.5
		c6,4.3,10.7,8.1,16.8,13.5c0.3,0.3,0.8,0.7,1.7,1.4l-7.9,8c-1.3-1.8-2.5-3.2-5.4-6c-4.7-4.5-6.7-6-16.2-13.5
		c-2.8-2.1-3.7-3.1-4.5-4.5c-0.5-1-0.8-2.4-0.8-3.6c0-1.9,0.7-3.7,2-5.3c0.8-0.8,1.6-1.5,5-4.1c7.3-5.5,10.7-8.4,14.5-12.2
		c1.3-1.3,1.9-1.9,2.8-3.2L94.8,23.9z"/>
</g>
</svg>
